<svg xmlns="http://www.w3.org/2000/svg" xmlns:xlink="http://www.w3.org/1999/xlink" contentStyleType="text/css" data-diagram-type="CLASS" height="1240px" preserveAspectRatio="none" style="width:1669px;height:1240px;background:#FFFFFF;" version="1.1" viewBox="0 0 1669 1240" width="1669px" zoomAndPan="magnify"><title>score::time &#8212; Class Overview</title><defs/><g><text fill="#000000" font-family="sans-serif" font-size="14" font-weight="bold" lengthAdjust="spacing" textLength="233.0098" x="711.1938" y="22.9951">score::time &#8212; Class Overview</text><rect fill="transparent" height="79.1875" id="_legend" rx="7.5" ry="7.5" style="stroke:#000000;stroke-width:1;" width="301.7236" x="12" y="49.2969"/><rect fill="#90EE90" height="16.2969" style="stroke:transparent;stroke-width:1;" width="40.0518" x="17" y="56.2969"/><text fill="#000000" font-family="sans-serif" font-size="14" lengthAdjust="spacing" textLength="17.8008" x="17" y="69.292">&#160;&#160;&#160;&#160;</text><text fill="#000000" font-family="sans-serif" font-size="14" lengthAdjust="spacing" textLength="164.541" x="61.502" y="69.292">Public framework types</text><rect fill="#F5DEB3" height="16.2969" style="stroke:transparent;stroke-width:1;" width="40.0518" x="17" y="72.5938"/><text fill="#000000" font-family="sans-serif" font-size="14" lengthAdjust="spacing" textLength="40.0518" x="17" y="85.5889">&#160;&#160;&#160;&#160;&#160;&#160;&#160;&#160;&#160;</text><text fill="#000000" font-family="sans-serif" font-size="14" lengthAdjust="spacing" textLength="229.4209" x="61.502" y="85.5889">Time-domain tag structs (public)</text><rect fill="#ADD8E6" height="16.2969" style="stroke:transparent;stroke-width:1;" width="40.0518" x="17" y="88.8906"/><text fill="#000000" font-family="sans-serif" font-size="14" lengthAdjust="spacing" textLength="22.251" x="17" y="101.8857">&#160;&#160;&#160;&#160;&#160;</text><text fill="#000000" font-family="sans-serif" font-size="14" lengthAdjust="spacing" textLength="209.1318" x="61.502" y="101.8857">PTP notification types (public)</text><rect fill="#F08080" height="16.2969" style="stroke:transparent;stroke-width:1;" width="40.0518" x="17" y="105.1875"/><text fill="#000000" font-family="sans-serif" font-size="14" lengthAdjust="spacing" textLength="17.8008" x="17" y="118.1826">&#160;&#160;&#160;&#160;</text><text fill="#000000" font-family="sans-serif" font-size="14" lengthAdjust="spacing" textLength="195.1182" x="61.502" y="118.1826">Internal interfaces (details/)</text><line style="stroke:#000000;stroke-width:1;" x1="17" x2="308.7236" y1="56.2969" y2="56.2969"/><line style="stroke:#000000;stroke-width:1;" x1="17" x2="308.7236" y1="72.5938" y2="72.5938"/><line style="stroke:#000000;stroke-width:1;" x1="17" x2="308.7236" y1="88.8906" y2="88.8906"/><line style="stroke:#000000;stroke-width:1;" x1="17" x2="308.7236" y1="105.1875" y2="105.1875"/><line style="stroke:#000000;stroke-width:1;" x1="17" x2="308.7236" y1="121.4844" y2="121.4844"/><line style="stroke:#000000;stroke-width:1;" x1="17" x2="17" y1="56.2969" y2="121.4844"/><line style="stroke:#000000;stroke-width:1;" x1="57.0518" x2="57.0518" y1="56.2969" y2="121.4844"/><line style="stroke:#000000;stroke-width:1;" x1="308.7236" x2="308.7236" y1="56.2969" y2="121.4844"/><!--class clock--><g id="elem_clock"><rect codeLine="16" fill="#90EE90" height="210.9688" id="clock" rx="2.5" ry="2.5" style="stroke:#888888;stroke-width:0.5;" width="428.124" x="987.5" y="325.4844"/><ellipse cx="1165.144" cy="341.4844" fill="#ADD1B2" rx="11" ry="11" style="stroke:#181818;stroke-width:1;"/><path d="M1168.1128,347.125 Q1167.5347,347.4219 1166.894,347.5625 Q1166.2534,347.7188 1165.5503,347.7188 Q1163.0503,347.7188 1161.7222,346.0781 Q1160.4097,344.4219 1160.4097,341.2969 Q1160.4097,338.1719 1161.7222,336.5156 Q1163.0503,334.8594 1165.5503,334.8594 Q1166.2534,334.8594 1166.894,335.0156 Q1167.5503,335.1719 1168.1128,335.4688 L1168.1128,338.1875 Q1167.4878,337.6094 1166.894,337.3438 Q1166.3003,337.0625 1165.6753,337.0625 Q1164.3315,337.0625 1163.644,338.1406 Q1162.9565,339.2031 1162.9565,341.2969 Q1162.9565,343.3906 1163.644,344.4688 Q1164.3315,345.5313 1165.6753,345.5313 Q1166.3003,345.5313 1166.894,345.2656 Q1167.4878,344.9844 1168.1128,344.4063 L1168.1128,347.125 Z " fill="#000000"/><text fill="#000000" font-family="sans-serif" font-size="14" lengthAdjust="spacing" textLength="38.0352" x="1185.644" y="346.3311">Clock</text><rect fill="#FAFAFA" height="15.9688" style="stroke:#888888;stroke-width:1;stroke-dasharray:2.0,2.0;" width="24.3008" x="1394.3232" y="322.4844"/><text fill="#000000" font-family="sans-serif" font-size="12" font-style="italic" lengthAdjust="spacing" textLength="22.3008" x="1395.3232" y="334.623">Tag</text><line style="stroke:#888888;stroke-width:0.5;" x1="988.5" x2="1414.624" y1="357.4844" y2="357.4844"/><ellipse cx="998.5" cy="371.1328" fill="#84BE84" rx="3" ry="3" style="stroke:#038048;stroke-width:1;"/><text fill="#000000" font-family="sans-serif" font-size="14" lengthAdjust="spacing" text-decoration="underline" textLength="196.5537" x="1007.5" y="374.4795">GetInstance() : Clock&lt;Tag&gt;</text><ellipse cx="998.5" cy="387.4297" fill="#84BE84" rx="3" ry="3" style="stroke:#038048;stroke-width:1;"/><text fill="#000000" font-family="sans-serif" font-size="14" lengthAdjust="spacing" textLength="120.4766" x="1007.5" y="390.7764">Now() : Snapshot</text><ellipse cx="998.5" cy="403.7266" fill="#84BE84" rx="3" ry="3" style="stroke:#038048;stroke-width:1;"/><text fill="#000000" font-family="sans-serif" font-size="14" lengthAdjust="spacing" textLength="237.4395" x="1007.5" y="407.0732">Subscribe&lt;EventType&gt;(cb) : void</text><ellipse cx="998.5" cy="420.0234" fill="#84BE84" rx="3" ry="3" style="stroke:#038048;stroke-width:1;"/><text fill="#000000" font-family="sans-serif" font-size="14" lengthAdjust="spacing" textLength="238.3828" x="1007.5" y="423.3701">Unsubscribe&lt;EventType&gt;() : void</text><ellipse cx="998.5" cy="436.3203" fill="#84BE84" rx="3" ry="3" style="stroke:#038048;stroke-width:1;"/><text fill="#000000" font-family="sans-serif" font-size="14" lengthAdjust="spacing" textLength="216.5625" x="1007.5" y="439.667">Init() : bool  [VehicleTime only]</text><ellipse cx="998.5" cy="452.6172" fill="#84BE84" rx="3" ry="3" style="stroke:#038048;stroke-width:1;"/><text fill="#000000" font-family="sans-serif" font-size="14" lengthAdjust="spacing" textLength="269.7939" x="1007.5" y="455.9639">IsAvailable() : bool  [VehicleTime only]</text><ellipse cx="998.5" cy="468.9141" fill="#84BE84" rx="3" ry="3" style="stroke:#038048;stroke-width:1;"/><text fill="#000000" font-family="sans-serif" font-size="14" lengthAdjust="spacing" textLength="402.124" x="1007.5" y="472.2607">WaitUntilAvailable(token, until) : bool  [VehicleTime only]</text><line style="stroke:#888888;stroke-width:1;" x1="988.5" x2="1414.624" y1="479.5625" y2="479.5625"/><rect fill="transparent" height="6" style="stroke:#C82930;stroke-width:1;" width="6" x="995.5" y="490.2109"/><text fill="#000000" font-family="sans-serif" font-size="14" lengthAdjust="spacing" textLength="209.877" x="1007.5" y="496.5576">impl_ : shared_ptr&lt;Backend&gt;</text><rect fill="transparent" height="6" style="stroke:#C82930;stroke-width:1;" width="6" x="995.5" y="506.5078"/><text fill="#000000" font-family="sans-serif" font-size="14" lengthAdjust="spacing" text-decoration="underline" textLength="276.0898" x="1007.5" y="512.8545">instance_cache_ : weak_ptr&lt;Backend&gt;</text><rect fill="transparent" height="6" style="stroke:#C82930;stroke-width:1;" width="6" x="995.5" y="522.8047"/><text fill="#000000" font-family="sans-serif" font-size="14" lengthAdjust="spacing" text-decoration="underline" textLength="304.2471" x="1007.5" y="529.1514">instance_override_ : shared_ptr&lt;Backend&gt;</text></g><!--class guard--><g id="elem_guard"><rect codeLine="30" fill="#90EE90" height="96.8906" id="guard" rx="2.5" ry="2.5" style="stroke:#888888;stroke-width:0.5;" width="399.5566" x="787.5" y="151.4844"/><ellipse cx="858.3052" cy="167.4844" fill="#ADD1B2" rx="11" ry="11" style="stroke:#181818;stroke-width:1;"/><path d="M861.2739,173.125 Q860.6958,173.4219 860.0552,173.5625 Q859.4146,173.7188 858.7114,173.7188 Q856.2114,173.7188 854.8833,172.0781 Q853.5708,170.4219 853.5708,167.2969 Q853.5708,164.1719 854.8833,162.5156 Q856.2114,160.8594 858.7114,160.8594 Q859.4146,160.8594 860.0552,161.0156 Q860.7114,161.1719 861.2739,161.4688 L861.2739,164.1875 Q860.6489,163.6094 860.0552,163.3438 Q859.4614,163.0625 858.8364,163.0625 Q857.4927,163.0625 856.8052,164.1406 Q856.1177,165.2031 856.1177,167.2969 Q856.1177,169.3906 856.8052,170.4688 Q857.4927,171.5313 858.8364,171.5313 Q859.4614,171.5313 860.0552,171.2656 Q860.6489,170.9844 861.2739,170.4063 L861.2739,173.125 Z " fill="#000000"/><text fill="#000000" font-family="sans-serif" font-size="14" lengthAdjust="spacing" textLength="223.1455" x="878.8052" y="172.3311">test_utils::ScopedClockOverride</text><rect fill="#FAFAFA" height="15.9688" style="stroke:#888888;stroke-width:1;stroke-dasharray:2.0,2.0;" width="24.3008" x="1165.7559" y="148.4844"/><text fill="#000000" font-family="sans-serif" font-size="12" font-style="italic" lengthAdjust="spacing" textLength="22.3008" x="1166.7559" y="160.623">Tag</text><line style="stroke:#888888;stroke-width:0.5;" x1="788.5" x2="1186.0566" y1="183.4844" y2="183.4844"/><ellipse cx="798.5" cy="197.1328" fill="#84BE84" rx="3" ry="3" style="stroke:#038048;stroke-width:1;"/><text fill="#000000" font-family="sans-serif" font-size="14" lengthAdjust="spacing" textLength="373.5566" x="807.5" y="200.4795">ScopedClockOverride(const shared_ptr&lt;Backend&gt;&amp;)</text><ellipse cx="798.5" cy="213.4297" fill="#84BE84" rx="3" ry="3" style="stroke:#038048;stroke-width:1;"/><text fill="#000000" font-family="sans-serif" font-size="14" lengthAdjust="spacing" textLength="173.0449" x="807.5" y="216.7764">~ScopedClockOverride()</text><line style="stroke:#888888;stroke-width:1;" x1="788.5" x2="1186.0566" y1="224.0781" y2="224.0781"/><text fill="#000000" font-family="sans-serif" font-size="14" lengthAdjust="spacing" textLength="185.124" x="793.5" y="241.0732">move-only, non-re-entrant</text></g><!--class factory--><g id="elem_factory"><rect codeLine="37" fill="#90EE90" height="80.5938" id="factory" rx="2.5" ry="2.5" style="stroke:#888888;stroke-width:0.5;" width="387.6758" x="1222.5" y="159.4844"/><ellipse cx="1302.356" cy="175.4844" fill="#ADD1B2" rx="11" ry="11" style="stroke:#181818;stroke-width:1;"/><path d="M1305.3247,181.125 Q1304.7466,181.4219 1304.106,181.5625 Q1303.4653,181.7188 1302.7622,181.7188 Q1300.2622,181.7188 1298.9341,180.0781 Q1297.6216,178.4219 1297.6216,175.2969 Q1297.6216,172.1719 1298.9341,170.5156 Q1300.2622,168.8594 1302.7622,168.8594 Q1303.4653,168.8594 1304.106,169.0156 Q1304.7622,169.1719 1305.3247,169.4688 L1305.3247,172.1875 Q1304.6997,171.6094 1304.106,171.3438 Q1303.5122,171.0625 1302.8872,171.0625 Q1301.5435,171.0625 1300.856,172.1406 Q1300.1685,173.2031 1300.1685,175.2969 Q1300.1685,177.3906 1300.856,178.4688 Q1301.5435,179.5313 1302.8872,179.5313 Q1303.5122,179.5313 1304.106,179.2656 Q1304.6997,178.9844 1305.3247,178.4063 L1305.3247,181.125 Z " fill="#000000"/><text fill="#000000" font-family="sans-serif" font-size="14" lengthAdjust="spacing" textLength="193.1631" x="1322.856" y="180.3311">test_utils::ClockTestFactory</text><rect fill="#FAFAFA" height="15.9688" style="stroke:#888888;stroke-width:1;stroke-dasharray:2.0,2.0;" width="24.3008" x="1588.875" y="156.4844"/><text fill="#000000" font-family="sans-serif" font-size="12" font-style="italic" lengthAdjust="spacing" textLength="22.3008" x="1589.875" y="168.623">Tag</text><line style="stroke:#888888;stroke-width:0.5;" x1="1223.5" x2="1609.1758" y1="191.4844" y2="191.4844"/><ellipse cx="1233.5" cy="205.1328" fill="#84BE84" rx="3" ry="3" style="stroke:#038048;stroke-width:1;"/><text fill="#000000" font-family="sans-serif" font-size="14" lengthAdjust="spacing" text-decoration="underline" textLength="361.6758" x="1242.5" y="208.4795">Make(const shared_ptr&lt;Backend&gt;&amp;) : Clock&lt;Tag&gt;</text><line style="stroke:#888888;stroke-width:1;" x1="1223.5" x2="1609.1758" y1="215.7813" y2="215.7813"/><text fill="#000000" font-family="sans-serif" font-size="14" lengthAdjust="spacing" textLength="173.25" x="1228.5" y="232.7764">all-static, no global state</text></g><!--class snapshot--><g id="elem_snapshot"><rect codeLine="43" fill="#90EE90" height="80.5938" id="snapshot" rx="2.5" ry="2.5" style="stroke:#888888;stroke-width:0.5;" width="260.3496" x="287.5" y="670.4844"/><ellipse cx="302.5" cy="686.4844" fill="#ADD1B2" rx="11" ry="11" style="stroke:#181818;stroke-width:1;"/><path d="M305.4688,692.125 Q304.8906,692.4219 304.25,692.5625 Q303.6094,692.7188 302.9063,692.7188 Q300.4063,692.7188 299.0781,691.0781 Q297.7656,689.4219 297.7656,686.2969 Q297.7656,683.1719 299.0781,681.5156 Q300.4063,679.8594 302.9063,679.8594 Q303.6094,679.8594 304.25,680.0156 Q304.9063,680.1719 305.4688,680.4688 L305.4688,683.1875 Q304.8438,682.6094 304.25,682.3438 Q303.6563,682.0625 303.0313,682.0625 Q301.6875,682.0625 301,683.1406 Q300.3125,684.2031 300.3125,686.2969 Q300.3125,688.3906 301,689.4688 Q301.6875,690.5313 303.0313,690.5313 Q303.6563,690.5313 304.25,690.2656 Q304.8438,689.9844 305.4688,689.4063 L305.4688,692.125 Z " fill="#000000"/><text fill="#000000" font-family="sans-serif" font-size="14" lengthAdjust="spacing" textLength="103.4824" x="316.5" y="691.3311">ClockSnapshot</text><rect fill="#FAFAFA" height="15.9688" style="stroke:#888888;stroke-width:1;stroke-dasharray:2.0,2.0;" width="122.8672" x="427.9824" y="667.4844"/><text fill="#000000" font-family="sans-serif" font-size="12" font-style="italic" lengthAdjust="spacing" textLength="120.8672" x="428.9824" y="679.623">TimepointT, StatusT</text><line style="stroke:#888888;stroke-width:0.5;" x1="288.5" x2="546.8496" y1="702.4844" y2="702.4844"/><line style="stroke:#888888;stroke-width:0.5;" x1="288.5" x2="546.8496" y1="710.4844" y2="710.4844"/><ellipse cx="298.5" cy="724.1328" fill="#84BE84" rx="3" ry="3" style="stroke:#038048;stroke-width:1;"/><text fill="#000000" font-family="sans-serif" font-size="14" lengthAdjust="spacing" textLength="173.4414" x="307.5" y="727.4795">TimePoint() : TimepointT</text><ellipse cx="298.5" cy="740.4297" fill="#84BE84" rx="3" ry="3" style="stroke:#038048;stroke-width:1;"/><text fill="#000000" font-family="sans-serif" font-size="14" lengthAdjust="spacing" textLength="122.3154" x="307.5" y="743.7764">Status() : StatusT</text></g><!--class status--><g id="elem_status"><rect codeLine="48" fill="#90EE90" height="113.1875" id="status" rx="2.5" ry="2.5" style="stroke:#888888;stroke-width:0.5;" width="377.2646" x="229" y="1120.4844"/><ellipse cx="336.5493" cy="1136.4844" fill="#ADD1B2" rx="11" ry="11" style="stroke:#181818;stroke-width:1;"/><path d="M339.5181,1142.125 Q338.9399,1142.4219 338.2993,1142.5625 Q337.6587,1142.7188 336.9556,1142.7188 Q334.4556,1142.7188 333.1274,1141.0781 Q331.8149,1139.4219 331.8149,1136.2969 Q331.8149,1133.1719 333.1274,1131.5156 Q334.4556,1129.8594 336.9556,1129.8594 Q337.6587,1129.8594 338.2993,1130.0156 Q338.9556,1130.1719 339.5181,1130.4688 L339.5181,1133.1875 Q338.8931,1132.6094 338.2993,1132.3438 Q337.7056,1132.0625 337.0806,1132.0625 Q335.7368,1132.0625 335.0493,1133.1406 Q334.3618,1134.2031 334.3618,1136.2969 Q334.3618,1138.3906 335.0493,1139.4688 Q335.7368,1140.5313 337.0806,1140.5313 Q337.7056,1140.5313 338.2993,1140.2656 Q338.8931,1139.9844 339.5181,1139.4063 L339.5181,1142.125 Z " fill="#000000"/><text fill="#000000" font-family="sans-serif" font-size="14" lengthAdjust="spacing" textLength="82.6465" x="357.0493" y="1141.3311">ClockStatus</text><rect fill="#FAFAFA" height="15.9688" style="stroke:#888888;stroke-width:1;stroke-dasharray:2.0,2.0;" width="69.0195" x="540.2451" y="1117.4844"/><text fill="#000000" font-family="sans-serif" font-size="12" font-style="italic" lengthAdjust="spacing" textLength="67.0195" x="541.2451" y="1129.623">FlagEnumT</text><line style="stroke:#888888;stroke-width:0.5;" x1="230" x2="605.2646" y1="1152.4844" y2="1152.4844"/><line style="stroke:#888888;stroke-width:0.5;" x1="230" x2="605.2646" y1="1160.4844" y2="1160.4844"/><ellipse cx="240" cy="1174.1328" fill="#84BE84" rx="3" ry="3" style="stroke:#038048;stroke-width:1;"/><text fill="#000000" font-family="sans-serif" font-size="14" lengthAdjust="spacing" textLength="165.1152" x="249" y="1177.4795">IsFlagActive(flag) : bool</text><ellipse cx="240" cy="1190.4297" fill="#84BE84" rx="3" ry="3" style="stroke:#038048;stroke-width:1;"/><text fill="#000000" font-family="sans-serif" font-size="14" lengthAdjust="spacing" textLength="222.3867" x="249" y="1193.7764">IsAnyOfFlagsActive(flags) : bool</text><ellipse cx="240" cy="1206.7266" fill="#84BE84" rx="3" ry="3" style="stroke:#038048;stroke-width:1;"/><text fill="#000000" font-family="sans-serif" font-size="14" lengthAdjust="spacing" textLength="137.2109" x="249" y="1210.0732">AddFlag(flag) : void</text><ellipse cx="240" cy="1223.0234" fill="#84BE84" rx="3" ry="3" style="stroke:#038048;stroke-width:1;"/><text fill="#000000" font-family="sans-serif" font-size="14" lengthAdjust="spacing" textLength="351.2646" x="249" y="1226.3701">PrintTo() : ostringstream  [specialization required]</text></g><!--class vtag--><g id="elem_vtag"><rect codeLine="56" fill="#F5DEB3" height="129.4844" id="vtag" rx="2.5" ry="2.5" style="stroke:#888888;stroke-width:0.5;" width="368.002" x="582.5" y="646.4844"/><ellipse cx="719.3281" cy="662.4844" fill="#ADD1B2" rx="11" ry="11" style="stroke:#181818;stroke-width:1;"/><path d="M722.2969,668.125 Q721.7188,668.4219 721.0781,668.5625 Q720.4375,668.7188 719.7344,668.7188 Q717.2344,668.7188 715.9063,667.0781 Q714.5938,665.4219 714.5938,662.2969 Q714.5938,659.1719 715.9063,657.5156 Q717.2344,655.8594 719.7344,655.8594 Q720.4375,655.8594 721.0781,656.0156 Q721.7344,656.1719 722.2969,656.4688 L722.2969,659.1875 Q721.6719,658.6094 721.0781,658.3438 Q720.4844,658.0625 719.8594,658.0625 Q718.5156,658.0625 717.8281,659.1406 Q717.1406,660.2031 717.1406,662.2969 Q717.1406,664.3906 717.8281,665.4688 Q718.5156,666.5313 719.8594,666.5313 Q720.4844,666.5313 721.0781,666.2656 Q721.6719,665.9844 722.2969,665.4063 L722.2969,668.125 Z " fill="#000000"/><text fill="#000000" font-family="sans-serif" font-size="14" lengthAdjust="spacing" textLength="85.8457" x="739.8281" y="667.3311">VehicleTime</text><line style="stroke:#888888;stroke-width:0.5;" x1="583.5" x2="949.502" y1="678.4844" y2="678.4844"/><ellipse cx="593.5" cy="692.1328" fill="transparent" rx="3" ry="3" style="stroke:#038048;stroke-width:1;"/><text fill="#000000" font-family="sans-serif" font-size="14" lengthAdjust="spacing" textLength="118.4668" x="602.5" y="695.4795">enum StatusFlag</text><ellipse cx="593.5" cy="708.4297" fill="transparent" rx="3" ry="3" style="stroke:#038048;stroke-width:1;"/><text fill="#000000" font-family="sans-serif" font-size="14" lengthAdjust="spacing" textLength="215.8174" x="602.5" y="711.7764">using Duration = nanoseconds</text><ellipse cx="593.5" cy="724.7266" fill="transparent" rx="3" ry="3" style="stroke:#038048;stroke-width:1;"/><text fill="#000000" font-family="sans-serif" font-size="14" lengthAdjust="spacing" textLength="342.002" x="602.5" y="728.0732">using Timepoint = time_point&lt;VehicleTime, ns&gt;</text><ellipse cx="593.5" cy="741.0234" fill="transparent" rx="3" ry="3" style="stroke:#038048;stroke-width:1;"/><text fill="#000000" font-family="sans-serif" font-size="14" lengthAdjust="spacing" textLength="306.1133" x="602.5" y="744.3701">using TimeSlaveSyncDataReceivedCallback</text><ellipse cx="593.5" cy="757.3203" fill="transparent" rx="3" ry="3" style="stroke:#038048;stroke-width:1;"/><text fill="#000000" font-family="sans-serif" font-size="14" lengthAdjust="spacing" textLength="305.0537" x="602.5" y="760.667">using PDelayMeasurementFinishedCallback</text><line style="stroke:#888888;stroke-width:0.5;" x1="583.5" x2="949.502" y1="767.9688" y2="767.9688"/></g><!--class vstatus--><g id="elem_vstatus"><rect codeLine="64" fill="#F5DEB3" height="174.375" id="vstatus" rx="2.5" ry="2.5" style="stroke:#888888;stroke-width:0.5;" width="348.6016" x="243" y="885.4844"/><ellipse cx="347.8223" cy="901.4844" fill="#ADD1B2" rx="11" ry="11" style="stroke:#181818;stroke-width:1;"/><path d="M350.791,907.125 Q350.2129,907.4219 349.5723,907.5625 Q348.9316,907.7188 348.2285,907.7188 Q345.7285,907.7188 344.4004,906.0781 Q343.0879,904.4219 343.0879,901.2969 Q343.0879,898.1719 344.4004,896.5156 Q345.7285,894.8594 348.2285,894.8594 Q348.9316,894.8594 349.5723,895.0156 Q350.2285,895.1719 350.791,895.4688 L350.791,898.1875 Q350.166,897.6094 349.5723,897.3438 Q348.9785,897.0625 348.3535,897.0625 Q347.0098,897.0625 346.3223,898.1406 Q345.6348,899.2031 345.6348,901.2969 Q345.6348,903.3906 346.3223,904.4688 Q347.0098,905.5313 348.3535,905.5313 Q348.9785,905.5313 349.5723,905.2656 Q350.166,904.9844 350.791,904.4063 L350.791,907.125 Z " fill="#000000"/><text fill="#000000" font-family="sans-serif" font-size="14" lengthAdjust="spacing" textLength="130.457" x="368.3223" y="906.3311">VehicleTimeStatus</text><line style="stroke:#888888;stroke-width:0.5;" x1="244" x2="590.6016" y1="917.4844" y2="917.4844"/><ellipse cx="254" cy="931.1328" fill="transparent" rx="3" ry="3" style="stroke:#038048;stroke-width:1;"/><text fill="#000000" font-family="sans-serif" font-size="14" lengthAdjust="spacing" textLength="322.6016" x="263" y="934.4795">flags : ClockStatus&lt;VehicleTime::StatusFlag&gt;</text><ellipse cx="254" cy="947.4297" fill="transparent" rx="3" ry="3" style="stroke:#038048;stroke-width:1;"/><text fill="#000000" font-family="sans-serif" font-size="14" lengthAdjust="spacing" textLength="161.8408" x="263" y="950.7764">rate_deviation : double</text><ellipse cx="254" cy="984.0234" fill="#84BE84" rx="3" ry="3" style="stroke:#038048;stroke-width:1;"/><text fill="#000000" font-family="sans-serif" font-size="14" lengthAdjust="spacing" textLength="121.96" x="263" y="987.3701">IsReliable() : bool</text><ellipse cx="254" cy="1000.3203" fill="#84BE84" rx="3" ry="3" style="stroke:#038048;stroke-width:1;"/><text fill="#000000" font-family="sans-serif" font-size="14" lengthAdjust="spacing" textLength="211.1006" x="263" y="1003.667">HasBeenSynchronized() : bool</text><ellipse cx="254" cy="1016.6172" fill="#84BE84" rx="3" ry="3" style="stroke:#038048;stroke-width:1;"/><text fill="#000000" font-family="sans-serif" font-size="14" lengthAdjust="spacing" textLength="140.0273" x="263" y="1019.9639">IsConsistent() : bool</text><ellipse cx="254" cy="1032.9141" fill="#84BE84" rx="3" ry="3" style="stroke:#038048;stroke-width:1;"/><text fill="#000000" font-family="sans-serif" font-size="14" lengthAdjust="spacing" textLength="171.6299" x="263" y="1036.2607">RateDeviation() : double</text><ellipse cx="254" cy="1049.2109" fill="#84BE84" rx="3" ry="3" style="stroke:#038048;stroke-width:1;"/><text fill="#000000" font-family="sans-serif" font-size="14" lengthAdjust="spacing" textLength="165.1152" x="263" y="1052.5576">IsFlagActive(flag) : bool</text><line style="stroke:#888888;stroke-width:1;stroke-dasharray:1.0,2.0;" x1="244" x2="291.0444" y1="966.2266" y2="966.2266"/><text fill="#000000" font-family="sans-serif" font-size="14" lengthAdjust="spacing" textLength="252.5127" x="291.0444" y="970.5732">VehicleTime-specific quality queries</text><line style="stroke:#888888;stroke-width:1;stroke-dasharray:1.0,2.0;" x1="543.5571" x2="590.6016" y1="966.2266" y2="966.2266"/></g><!--class htag--><g id="elem_htag"><rect codeLine="75" fill="#F5DEB3" height="80.5938" id="htag" rx="2.5" ry="2.5" style="stroke:#888888;stroke-width:0.5;" width="423.4004" x="7" y="159.4844"/><ellipse cx="143.8281" cy="175.4844" fill="#ADD1B2" rx="11" ry="11" style="stroke:#181818;stroke-width:1;"/><path d="M146.7969,181.125 Q146.2188,181.4219 145.5781,181.5625 Q144.9375,181.7188 144.2344,181.7188 Q141.7344,181.7188 140.4063,180.0781 Q139.0938,178.4219 139.0938,175.2969 Q139.0938,172.1719 140.4063,170.5156 Q141.7344,168.8594 144.2344,168.8594 Q144.9375,168.8594 145.5781,169.0156 Q146.2344,169.1719 146.7969,169.4688 L146.7969,172.1875 Q146.1719,171.6094 145.5781,171.3438 Q144.9844,171.0625 144.3594,171.0625 Q143.0156,171.0625 142.3281,172.1406 Q141.6406,173.2031 141.6406,175.2969 Q141.6406,177.3906 142.3281,178.4688 Q143.0156,179.5313 144.3594,179.5313 Q144.9844,179.5313 145.5781,179.2656 Q146.1719,178.9844 146.7969,178.4063 L146.7969,181.125 Z " fill="#000000"/><text fill="#000000" font-family="sans-serif" font-size="14" lengthAdjust="spacing" textLength="141.2441" x="164.3281" y="180.3311">HighResSteadyTime</text><line style="stroke:#888888;stroke-width:0.5;" x1="8" x2="429.4004" y1="191.4844" y2="191.4844"/><ellipse cx="18" cy="205.1328" fill="transparent" rx="3" ry="3" style="stroke:#038048;stroke-width:1;"/><text fill="#000000" font-family="sans-serif" font-size="14" lengthAdjust="spacing" textLength="215.8174" x="27" y="208.4795">using Duration = nanoseconds</text><ellipse cx="18" cy="221.4297" fill="transparent" rx="3" ry="3" style="stroke:#038048;stroke-width:1;"/><text fill="#000000" font-family="sans-serif" font-size="14" lengthAdjust="spacing" textLength="397.4004" x="27" y="224.7764">using Timepoint = time_point&lt;HighResSteadyTime, ns&gt;</text><line style="stroke:#888888;stroke-width:0.5;" x1="8" x2="429.4004" y1="232.0781" y2="232.0781"/></g><g id="elem_ntag"><path d="M465,164.4844 L465,195.9844 L430.26,199.9844 L465,203.9844 L465,235.0156 A0,0 0 0 0 465,235.0156 L751.5605,235.0156 A0,0 0 0 0 751.5605,235.0156 L751.5605,174.4844 L741.5605,164.4844 L465,164.4844 A0,0 0 0 0 465,164.4844 " fill="#FEFFDD" style="stroke:#181818;stroke-width:0.5;"/><path d="M741.5605,164.4844 L741.5605,174.4844 L751.5605,174.4844 L741.5605,164.4844 " fill="#FEFFDD" style="stroke:#181818;stroke-width:0.5;"/><text fill="#000000" font-family="sans-serif" font-size="13" lengthAdjust="spacing" textLength="194.7778" x="471" y="181.5513">std::chrono::steady_clock and</text><text fill="#000000" font-family="sans-serif" font-size="13" lengthAdjust="spacing" textLength="225.2847" x="471" y="196.6841">std::chrono::system_clock are also</text><text fill="#000000" font-family="sans-serif" font-size="13" lengthAdjust="spacing" textLength="265.5605" x="471" y="211.8169">valid Tag types &#8212; built-in specializations</text><text fill="#000000" font-family="sans-serif" font-size="13" lengthAdjust="spacing" textLength="167.7178" x="471" y="226.9497">provided by clock_traits.h</text></g><!--class tss--><g id="elem_tss"><rect codeLine="88" fill="#ADD8E6" height="96.8906" id="tss" rx="2.5" ry="2.5" style="stroke:#888888;stroke-width:0.5;" width="198.417" x="627.5" y="923.9844"/><ellipse cx="642.5" cy="939.9844" fill="#ADD1B2" rx="11" ry="11" style="stroke:#181818;stroke-width:1;"/><path d="M645.4688,945.625 Q644.8906,945.9219 644.25,946.0625 Q643.6094,946.2188 642.9063,946.2188 Q640.4063,946.2188 639.0781,944.5781 Q637.7656,942.9219 637.7656,939.7969 Q637.7656,936.6719 639.0781,935.0156 Q640.4063,933.3594 642.9063,933.3594 Q643.6094,933.3594 644.25,933.5156 Q644.9063,933.6719 645.4688,933.9688 L645.4688,936.6875 Q644.8438,936.1094 644.25,935.8438 Q643.6563,935.5625 643.0313,935.5625 Q641.6875,935.5625 641,936.6406 Q640.3125,937.7031 640.3125,939.7969 Q640.3125,941.8906 641,942.9688 Q641.6875,944.0313 643.0313,944.0313 Q643.6563,944.0313 644.25,943.7656 Q644.8438,943.4844 645.4688,942.9063 L645.4688,945.625 Z " fill="#000000"/><text fill="#000000" font-family="sans-serif" font-size="14" lengthAdjust="spacing" textLength="140.1162" x="656.5" y="944.8311">TimeSlaveSyncData</text><rect fill="#FAFAFA" height="15.9688" style="stroke:#888888;stroke-width:1;stroke-dasharray:2.0,2.0;" width="24.3008" x="804.6162" y="920.9844"/><text fill="#000000" font-family="sans-serif" font-size="12" font-style="italic" lengthAdjust="spacing" textLength="22.3008" x="805.6162" y="933.123">Tag</text><line style="stroke:#888888;stroke-width:0.5;" x1="628.5" x2="824.917" y1="955.9844" y2="955.9844"/><ellipse cx="638.5" cy="969.6328" fill="transparent" rx="3" ry="3" style="stroke:#038048;stroke-width:1;"/><text fill="#000000" font-family="sans-serif" font-size="14" lengthAdjust="spacing" textLength="152.9746" x="647.5" y="972.9795">time_slave_sync_data</text><ellipse cx="638.5" cy="985.9297" fill="transparent" rx="3" ry="3" style="stroke:#038048;stroke-width:1;"/><text fill="#000000" font-family="sans-serif" font-size="14" lengthAdjust="spacing" textLength="89.1133" x="647.5" y="989.2764">port_identity</text><ellipse cx="638.5" cy="1002.2266" fill="transparent" rx="3" ry="3" style="stroke:#038048;stroke-width:1;"/><text fill="#000000" font-family="sans-serif" font-size="14" lengthAdjust="spacing" textLength="75.5166" x="647.5" y="1005.5732">timestamp</text><line style="stroke:#888888;stroke-width:0.5;" x1="628.5" x2="824.917" y1="1012.875" y2="1012.875"/></g><!--class pdm--><g id="elem_pdm"><rect codeLine="94" fill="#ADD8E6" height="80.5938" id="pdm" rx="2.5" ry="2.5" style="stroke:#888888;stroke-width:0.5;" width="236.7393" x="861" y="931.9844"/><ellipse cx="876" cy="947.9844" fill="#ADD1B2" rx="11" ry="11" style="stroke:#181818;stroke-width:1;"/><path d="M878.9688,953.625 Q878.3906,953.9219 877.75,954.0625 Q877.1094,954.2188 876.4063,954.2188 Q873.9063,954.2188 872.5781,952.5781 Q871.2656,950.9219 871.2656,947.7969 Q871.2656,944.6719 872.5781,943.0156 Q873.9063,941.3594 876.4063,941.3594 Q877.1094,941.3594 877.75,941.5156 Q878.4063,941.6719 878.9688,941.9688 L878.9688,944.6875 Q878.3438,944.1094 877.75,943.8438 Q877.1563,943.5625 876.5313,943.5625 Q875.1875,943.5625 874.5,944.6406 Q873.8125,945.7031 873.8125,947.7969 Q873.8125,949.8906 874.5,950.9688 Q875.1875,952.0313 876.5313,952.0313 Q877.1563,952.0313 877.75,951.7656 Q878.3438,951.4844 878.9688,950.9063 L878.9688,953.625 Z " fill="#000000"/><text fill="#000000" font-family="sans-serif" font-size="14" lengthAdjust="spacing" textLength="178.4385" x="890" y="952.8311">PDelayMeasurementData</text><rect fill="#FAFAFA" height="15.9688" style="stroke:#888888;stroke-width:1;stroke-dasharray:2.0,2.0;" width="24.3008" x="1076.4385" y="928.9844"/><text fill="#000000" font-family="sans-serif" font-size="12" font-style="italic" lengthAdjust="spacing" textLength="22.3008" x="1077.4385" y="941.123">Tag</text><line style="stroke:#888888;stroke-width:0.5;" x1="862" x2="1096.7393" y1="963.9844" y2="963.9844"/><ellipse cx="872" cy="977.6328" fill="transparent" rx="3" ry="3" style="stroke:#038048;stroke-width:1;"/><text fill="#000000" font-family="sans-serif" font-size="14" lengthAdjust="spacing" textLength="94.0557" x="881" y="980.9795">pdelay_result</text><ellipse cx="872" cy="993.9297" fill="transparent" rx="3" ry="3" style="stroke:#038048;stroke-width:1;"/><text fill="#000000" font-family="sans-serif" font-size="14" lengthAdjust="spacing" textLength="89.1133" x="881" y="997.2764">port_identity</text><line style="stroke:#888888;stroke-width:0.5;" x1="862" x2="1096.7393" y1="1004.5781" y2="1004.5781"/></g><!--class viface--><g id="elem_viface"><rect codeLine="100" fill="#F08080" height="194.6719" id="viface" rx="2.5" ry="2.5" style="stroke:#888888;stroke-width:0.5;" width="341.2871" x="1031" y="613.4844"/><ellipse cx="1122.6187" cy="629.4844" fill="#A9DCDF" rx="11" ry="11" style="stroke:#181818;stroke-width:1;"/><path d="M1122.728,624.8281 L1121.5718,629.9063 L1123.8999,629.9063 L1122.728,624.8281 Z M1121.2437,622.5938 L1124.228,622.5938 L1127.5874,634.9844 L1125.1343,634.9844 L1124.3687,631.9219 L1121.0874,631.9219 L1120.3374,634.9844 L1117.8999,634.9844 L1121.2437,622.5938 Z " fill="#000000"/><text fill="#000000" font-family="sans-serif" font-size="14" font-style="italic" lengthAdjust="spacing" textLength="149.5498" x="1143.1187" y="634.3311">VehicleClockBackend</text><line style="stroke:#888888;stroke-width:0.5;" x1="1032" x2="1371.2871" y1="645.4844" y2="645.4844"/><line style="stroke:#888888;stroke-width:0.5;" x1="1032" x2="1371.2871" y1="653.4844" y2="653.4844"/><ellipse cx="1042" cy="667.1328" fill="#84BE84" rx="3" ry="3" style="stroke:#038048;stroke-width:1;"/><text fill="#000000" font-family="sans-serif" font-size="14" font-style="italic" lengthAdjust="spacing" textLength="120.4766" x="1051" y="670.4795">Now() : Snapshot</text><ellipse cx="1042" cy="683.4297" fill="#84BE84" rx="3" ry="3" style="stroke:#038048;stroke-width:1;"/><text fill="#000000" font-family="sans-serif" font-size="14" font-style="italic" lengthAdjust="spacing" textLength="130.0605" x="1051" y="686.7764">IsAvailable() : bool</text><ellipse cx="1042" cy="699.7266" fill="#84BE84" rx="3" ry="3" style="stroke:#038048;stroke-width:1;"/><text fill="#000000" font-family="sans-serif" font-size="14" font-style="italic" lengthAdjust="spacing" textLength="262.3906" x="1051" y="703.0732">WaitUntilAvailable(token, until) : bool</text><ellipse cx="1042" cy="716.0234" fill="#84BE84" rx="3" ry="3" style="stroke:#038048;stroke-width:1;"/><text fill="#000000" font-family="sans-serif" font-size="14" font-style="italic" lengthAdjust="spacing" textLength="314.3438" x="1051" y="719.3701">SetTimeSlaveSyncDataReceivedCallback(cb)</text><ellipse cx="1042" cy="732.3203" fill="#84BE84" rx="3" ry="3" style="stroke:#038048;stroke-width:1;"/><text fill="#000000" font-family="sans-serif" font-size="14" font-style="italic" lengthAdjust="spacing" textLength="315.2871" x="1051" y="735.667">UnsetTimeSlaveSyncDataReceivedCallback()</text><ellipse cx="1042" cy="748.6172" fill="#84BE84" rx="3" ry="3" style="stroke:#038048;stroke-width:1;"/><text fill="#000000" font-family="sans-serif" font-size="14" font-style="italic" lengthAdjust="spacing" textLength="313.2842" x="1051" y="751.9639">SetPDelayMeasurementFinishedCallback(cb)</text><ellipse cx="1042" cy="764.9141" fill="#84BE84" rx="3" ry="3" style="stroke:#038048;stroke-width:1;"/><text fill="#000000" font-family="sans-serif" font-size="14" font-style="italic" lengthAdjust="spacing" textLength="314.2275" x="1051" y="768.2607">UnsetPDelayMeasurementFinishedCallback()</text><ellipse cx="1042" cy="781.2109" fill="#84BE84" rx="3" ry="3" style="stroke:#038048;stroke-width:1;"/><text fill="#000000" font-family="sans-serif" font-size="14" font-style="italic" lengthAdjust="spacing" textLength="217" x="1051" y="784.5576">SetStatusChangedCallback(cb)</text><ellipse cx="1042" cy="797.5078" fill="#84BE84" rx="3" ry="3" style="stroke:#038048;stroke-width:1;"/><text fill="#000000" font-family="sans-serif" font-size="14" font-style="italic" lengthAdjust="spacing" textLength="217.9434" x="1051" y="800.8545">UnsetStatusChangedCallback()</text></g><!--class hiface--><g id="elem_hiface"><rect codeLine="112" fill="#F08080" height="64.2969" id="hiface" rx="2.5" ry="2.5" style="stroke:#888888;stroke-width:0.5;" width="236.9482" x="1407" y="678.9844"/><ellipse cx="1422" cy="694.9844" fill="#A9DCDF" rx="11" ry="11" style="stroke:#181818;stroke-width:1;"/><path d="M1422.1094,690.3281 L1420.9531,695.4063 L1423.2813,695.4063 L1422.1094,690.3281 Z M1420.625,688.0938 L1423.6094,688.0938 L1426.9688,700.4844 L1424.5156,700.4844 L1423.75,697.4219 L1420.4688,697.4219 L1419.7188,700.4844 L1417.2813,700.4844 L1420.625,688.0938 Z " fill="#000000"/><text fill="#000000" font-family="sans-serif" font-size="14" font-style="italic" lengthAdjust="spacing" textLength="204.9482" x="1436" y="699.8311">HighResSteadyClockBackend</text><line style="stroke:#888888;stroke-width:0.5;" x1="1408" x2="1642.9482" y1="710.9844" y2="710.9844"/><line style="stroke:#888888;stroke-width:0.5;" x1="1408" x2="1642.9482" y1="718.9844" y2="718.9844"/><ellipse cx="1418" cy="732.6328" fill="#84BE84" rx="3" ry="3" style="stroke:#038048;stroke-width:1;"/><text fill="#000000" font-family="sans-serif" font-size="14" font-style="italic" lengthAdjust="spacing" textLength="120.4766" x="1427" y="735.9795">Now() : Snapshot</text></g><!--class vmock--><g id="elem_vmock"><rect codeLine="116" fill="#F08080" height="80.5938" id="vmock" rx="2.5" ry="2.5" style="stroke:#888888;stroke-width:0.5;" width="192.6191" x="1133" y="931.9844"/><ellipse cx="1163.7417" cy="947.9844" fill="#ADD1B2" rx="11" ry="11" style="stroke:#181818;stroke-width:1;"/><path d="M1166.7104,953.625 Q1166.1323,953.9219 1165.4917,954.0625 Q1164.851,954.2188 1164.1479,954.2188 Q1161.6479,954.2188 1160.3198,952.5781 Q1159.0073,950.9219 1159.0073,947.7969 Q1159.0073,944.6719 1160.3198,943.0156 Q1161.6479,941.3594 1164.1479,941.3594 Q1164.851,941.3594 1165.4917,941.5156 Q1166.1479,941.6719 1166.7104,941.9688 L1166.7104,944.6875 Q1166.0854,944.1094 1165.4917,943.8438 Q1164.8979,943.5625 1164.2729,943.5625 Q1162.9292,943.5625 1162.2417,944.6406 Q1161.5542,945.7031 1161.5542,947.7969 Q1161.5542,949.8906 1162.2417,950.9688 Q1162.9292,952.0313 1164.2729,952.0313 Q1164.8979,952.0313 1165.4917,951.7656 Q1166.0854,951.4844 1166.7104,950.9063 L1166.7104,953.625 Z " fill="#000000"/><text fill="#000000" font-family="sans-serif" font-size="14" lengthAdjust="spacing" textLength="125.6377" x="1181.2398" y="952.8311">VehicleClockMock</text><line style="stroke:#888888;stroke-width:0.5;" x1="1134" x2="1324.6191" y1="963.9844" y2="963.9844"/><text fill="#000000" font-family="sans-serif" font-size="14" lengthAdjust="spacing" textLength="180.6191" x="1139" y="980.9795">GMock implementation of</text><text fill="#000000" font-family="sans-serif" font-size="14" lengthAdjust="spacing" textLength="149.5498" x="1139" y="997.2764">VehicleClockBackend</text><line style="stroke:#888888;stroke-width:0.5;" x1="1134" x2="1324.6191" y1="1004.5781" y2="1004.5781"/></g><!--class hmock--><g id="elem_hmock"><rect codeLine="120" fill="#F08080" height="80.5938" id="hmock" rx="2.5" ry="2.5" style="stroke:#888888;stroke-width:0.5;" width="273.3975" x="1389" y="931.9844"/><ellipse cx="1404" cy="947.9844" fill="#ADD1B2" rx="11" ry="11" style="stroke:#181818;stroke-width:1;"/><path d="M1406.9688,953.625 Q1406.3906,953.9219 1405.75,954.0625 Q1405.1094,954.2188 1404.4063,954.2188 Q1401.9063,954.2188 1400.5781,952.5781 Q1399.2656,950.9219 1399.2656,947.7969 Q1399.2656,944.6719 1400.5781,943.0156 Q1401.9063,941.3594 1404.4063,941.3594 Q1405.1094,941.3594 1405.75,941.5156 Q1406.4063,941.6719 1406.9688,941.9688 L1406.9688,944.6875 Q1406.3438,944.1094 1405.75,943.8438 Q1405.1563,943.5625 1404.5313,943.5625 Q1403.1875,943.5625 1402.5,944.6406 Q1401.8125,945.7031 1401.8125,947.7969 Q1401.8125,949.8906 1402.5,950.9688 Q1403.1875,952.0313 1404.5313,952.0313 Q1405.1563,952.0313 1405.75,951.7656 Q1406.3438,951.4844 1406.9688,950.9063 L1406.9688,953.625 Z " fill="#000000"/><text fill="#000000" font-family="sans-serif" font-size="14" lengthAdjust="spacing" textLength="241.3975" x="1418" y="952.8311">HighResSteadyClockBackendMock</text><line style="stroke:#888888;stroke-width:0.5;" x1="1390" x2="1661.3975" y1="963.9844" y2="963.9844"/><text fill="#000000" font-family="sans-serif" font-size="14" lengthAdjust="spacing" textLength="180.6191" x="1395" y="980.9795">GMock implementation of</text><text fill="#000000" font-family="sans-serif" font-size="14" lengthAdjust="spacing" textLength="204.9482" x="1395" y="997.2764">HighResSteadyClockBackend</text><line style="stroke:#888888;stroke-width:0.5;" x1="1390" x2="1661.3975" y1="1004.5781" y2="1004.5781"/></g><!--link clock to viface--><g id="link_clock_viface"><path codeLine="125" d="M1201.5,548.6844 C1201.5,573.7744 1201.5,582.4544 1201.5,607.1644 " fill="transparent" id="clock-viface" style="stroke:#181818;stroke-width:1;"/><polygon fill="#181818" points="1201.5,536.6844,1197.5,542.6844,1201.5,548.6844,1205.5,542.6844,1201.5,536.6844" style="stroke:#181818;stroke-width:1;"/><polygon fill="#181818" points="1201.5,613.1644,1205.5,604.1644,1201.5,608.1644,1197.5,604.1644,1201.5,613.1644" style="stroke:#181818;stroke-width:1;"/><text fill="#000000" font-family="sans-serif" font-size="13" lengthAdjust="spacing" textLength="128.6289" x="1202.5" y="579.5513">impl_ (VehicleTime)</text><text fill="#000000" font-family="sans-serif" font-size="13" lengthAdjust="spacing" textLength="8.271" x="1193.2362" y="556.3624">1</text><text fill="#000000" font-family="sans-serif" font-size="13" lengthAdjust="spacing" textLength="8.271" x="1193.2057" y="602.5138">1</text></g><!--link clock to hiface--><g id="link_clock_hiface"><path codeLine="126" d="M1332.6372,544.4984 C1391.6572,595.1384 1444.5562,640.5376 1484.6062,674.8976 " fill="transparent" id="clock-hiface" style="stroke:#181818;stroke-width:1;"/><polygon fill="#181818" points="1323.53,536.6844,1325.4789,543.6271,1332.6372,544.4984,1330.6883,537.5557,1323.53,536.6844" style="stroke:#181818;stroke-width:1;"/><polygon fill="#181818" points="1489.16,678.8044,1484.9339,669.9083,1485.3652,675.5487,1479.7248,675.98,1489.16,678.8044" style="stroke:#181818;stroke-width:1;"/><text fill="#000000" font-family="sans-serif" font-size="13" lengthAdjust="spacing" textLength="180.0703" x="1373.5" y="579.5513">impl_ (HighResSteadyTime)</text><text fill="#000000" font-family="sans-serif" font-size="13" lengthAdjust="spacing" textLength="8.271" x="1323.4651" y="556.3624">1</text><text fill="#000000" font-family="sans-serif" font-size="13" lengthAdjust="spacing" textLength="8.271" x="1472.8732" y="667.6704">1</text></g><!--link guard to clock--><g id="link_guard_clock"><path codeLine="127" d="M1032.1,248.7144 C1052.93,270.9944 1074.504,294.08 1099.504,320.84 " fill="transparent" id="guard-to-clock" style="stroke:#181818;stroke-width:1;stroke-dasharray:7.0,7.0;"/><polygon fill="#181818" points="1103.6,325.2244,1100.3789,315.9171,1100.1867,321.5707,1094.5331,321.3785,1103.6,325.2244" style="stroke:#181818;stroke-width:1;"/><text fill="#000000" font-family="sans-serif" font-size="13" lengthAdjust="spacing" textLength="211.0786" x="1076.5" y="291.5513">OverrideForTest / ResetOverride</text></g><!--link factory to clock--><g id="link_factory_clock"><path codeLine="128" d="M1379.3,240.6144 C1357.18,264.1644 1332.1063,290.8697 1303.7963,321.0297 " fill="transparent" id="factory-to-clock" style="stroke:#181818;stroke-width:1;stroke-dasharray:7.0,7.0;"/><polygon fill="#181818" points="1299.69,325.4044,1308.766,321.5799,1303.112,321.7588,1302.9331,316.1048,1299.69,325.4044" style="stroke:#181818;stroke-width:1;"/><text fill="#000000" font-family="sans-serif" font-size="13" lengthAdjust="spacing" textLength="194.0542" x="1341.5" y="291.5513">Make() &#8212; private ctor (friend)</text></g><!--link clock to snapshot--><g id="link_clock_snapshot"><path codeLine="130" d="M987.42,475.8244 C861.01,505.8744 699.77,551.5644 564.5,613.4844 C531.05,628.7944 501.413,647.6018 474.233,666.8918 " fill="transparent" id="clock-to-snapshot" style="stroke:#181818;stroke-width:1;"/><polygon fill="#181818" points="469.34,670.3644,478.9945,668.4175,473.4175,667.4705,474.3644,661.8935,469.34,670.3644" style="stroke:#181818;stroke-width:1;"/><text fill="#000000" font-family="sans-serif" font-size="13" lengthAdjust="spacing" textLength="124.2935" x="665.5" y="579.5513">returns from Now()</text></g><!--reverse link snapshot to vstatus--><g id="link_snapshot_vstatus"><path codeLine="131" d="M417.5,763.6744 C417.5,799.1044 417.5,840.1944 417.5,885.3344 " fill="transparent" id="snapshot-backto-vstatus" style="stroke:#181818;stroke-width:1;"/><polygon fill="#181818" points="417.5,751.6744,413.5,757.6744,417.5,763.6744,421.5,757.6744,417.5,751.6744" style="stroke:#181818;stroke-width:1;"/><text fill="#000000" font-family="sans-serif" font-size="13" lengthAdjust="spacing" textLength="51.5684" x="418.5" y="851.5513">Status()</text></g><!--reverse link viface to vmock--><g id="link_viface_vmock"><path codeLine="133" d="M1213.8602,826.5106 C1218.4602,869.1606 1221.68,899.0344 1225.21,931.7544 " fill="transparent" id="viface-backto-vmock" style="stroke:#181818;stroke-width:1;"/><polygon fill="transparent" points="1211.93,808.6144,1207.8948,827.154,1219.8256,825.8672,1211.93,808.6144" style="stroke:#181818;stroke-width:1;"/><text fill="#000000" font-family="sans-serif" font-size="13" lengthAdjust="spacing" textLength="73.4043" x="1216.5" y="851.5513">test double</text></g><!--reverse link hiface to hmock--><g id="link_hiface_hmock"><path codeLine="134" d="M1525.5,761.0244 C1525.5,808.2444 1525.5,880.0944 1525.5,931.9244 " fill="transparent" id="hiface-backto-hmock" style="stroke:#181818;stroke-width:1;"/><polygon fill="transparent" points="1525.5,743.0244,1519.5,761.0244,1531.5,761.0244,1525.5,743.0244" style="stroke:#181818;stroke-width:1;"/><text fill="#000000" font-family="sans-serif" font-size="13" lengthAdjust="spacing" textLength="73.4043" x="1526.5" y="851.5513">test double</text></g><!--link vtag to vstatus--><g id="link_vtag_vstatus"><path codeLine="136" d="M680.68,775.7944 C636.28,808.8144 586.2546,846.0039 538.1546,881.7739 " fill="transparent" id="vtag-to-vstatus" style="stroke:#181818;stroke-width:1;"/><polygon fill="#181818" points="533.34,885.3544,542.9489,883.1935,537.3522,882.3707,538.175,876.774,533.34,885.3544" style="stroke:#181818;stroke-width:1;"/></g><!--link vtag to tss--><g id="link_vtag_tss"><path codeLine="137" d="M756.66,775.7944 C749.61,821.5644 741.1642,876.3244 734.7542,917.9044 " fill="transparent" id="vtag-to-tss" style="stroke:#181818;stroke-width:1;"/><polygon fill="#181818" points="733.84,923.8344,739.1645,915.5489,734.6018,918.8928,731.2579,914.33,733.84,923.8344" style="stroke:#181818;stroke-width:1;"/></g><!--link vtag to pdm--><g id="link_vtag_pdm"><path codeLine="138" d="M818.88,775.7944 C858.91,824.5744 909.0331,885.6368 943.0831,927.1168 " fill="transparent" id="vtag-to-pdm" style="stroke:#181818;stroke-width:1;"/><polygon fill="#181818" points="946.89,931.7544,944.2714,922.26,943.7176,927.8897,938.0879,927.3359,946.89,931.7544" style="stroke:#181818;stroke-width:1;"/></g><!--reverse link vstatus to status--><g id="link_vstatus_status"><path codeLine="139" d="M417.5,1071.6544 C417.5,1092.2144 417.5,1101.6244 417.5,1120.3844 " fill="transparent" id="vstatus-backto-status" style="stroke:#181818;stroke-width:1;"/><polygon fill="#181818" points="417.5,1059.6544,413.5,1065.6544,417.5,1071.6544,421.5,1065.6544,417.5,1059.6544" style="stroke:#181818;stroke-width:1;"/></g><!--SRC=[fLVPRXit57sVho0Se9NQI47VYe4gm97Zn42J69RIFAI1G0slD8GeSa9oP2XBqO_e5_PBUhdC8iruQIl3rWnvxiBBSnTRRWKGaoaDQMhv3iZVV_v5Pe8QGzxkGUyvt2Q9sN9PK4rtP4MpxKQhKhAP4agJsvnRQErdJlBv2UZ9vRdxwS2KPg0Zv6V_IH816v2CM5KG0MkR4Fny9PCdl_9DRbzg03aDIzVbIl2Ch54Tt2gz9VPGW257dw-r-FiSg9qs6sI1PnqnjQDS4aitn5XTPjQGGU7r3e_5lVNdeeHf5BzUN1EfB5_pZ5gkPBJUbZuLdobDHNJ-IbhGaWh2tSEQPawMWQLSc6V3odaCH0X7adnFHgCHkQmFYs-93o8vcmcLRISBkfcU4MemjFXAMl4YNxmVFv8lngAlsJVo4koLn1UPmM18Kj9eYCWtwjPlp2KjJAviN9wNAvDfleB9Ypr8ky0ZJmVPoY7tYhE8UYTD7-u4TIMvzMihfGGX7tw3d6S2tBKG9SNXOuKpvtkC2bq9U0pyFUNsdRHSD59MRK4-9QLRVL03XjL_4Ruhn1BH9gSQsBAmUk9eZPSnZOWwd3p6SfdHB0SdT0jq-pWHXJccEOExJ7rBgcksOEoon3EOD9rdgW3ch-rjLD0GO5DIpNe9q2Cso1IwqcVwks6K-gDFRDYErWvFCN8nV8ev8KSQHdZhcafxX_jUrG8NBcbcbJuqlg_3mltqVKstz_hTPNJqamen2agSesGZr0fJqAr0orClMp5_ulXHA4pJnLCoHsHf5i5L4n6zlZgfQoVbETleg2x2Amef5dHsxFlboQMWcnUot5Ks_MglnIlZiEUPvNiOhF6nedgJH_BmTkr0feKo9x1pnXoarj3As6ljJg2yrmhB9PSR_0jOpSa7Kq36gU2VGp7KyAdaU34VtR52wSAxCEsgrKe_VxIzAyAXJDTd0Znv391pAgwM1YsJYr87MxyGIQKoW8HWvWXIXnqnhhKj_SkaPHbfOAOTcRcWUvWVP7P1BRs1331OR8RaSStl27rz0O8UNWCrfOOTalwIIsxo5hgvrfRPSAHmxEfAZq_khwRYSUH2Im5MW3egbVyO3bWosFCGbfGmXRq8_EvuJ5hI8tzRsBd8fnBlp1xm6pJ75ZGUrsov0S6FYcxSUKNDS-IT2q-kbUIVWGqwL9jXSd9ZGThJlHlqyg9oqc-stBoFnKqWNo7vRy3CBL1sgFcJz_3d_pAbOodm1Lt1rW_EghIHbiQoDFKHKMbglC0oT68gMG_YW9XTXT2eInZbONky4UQo9KuKRXnRbLpO4GugnsaMpb1ejSUApCZg47h_4ailjsQSk_d13IbGvQ0RMeBMLY9s6DzKOskgMkD6dpgiFaB6YImDoYmP2iMjGccxH6-mrzf32uuitnMjE-maph7XWktw31VCIIqrc5BONejrkQa7B7TIki92XPs57AUYJwxODa8oSZU9aTQurZIVIiUtkuQZ5g9lPkcY7ZcgT0NdO1yiKsuiwqhYQFOOsM6lpGUBtJqs7vRjjndAt2odSlCeE_tueUF5AGcEahj3XVo_KQ5JxhtYr_WR2BPhPlEsqfSEuKTE7vnGhjJwTzd3rBigOHjJ6yp_hS4xLJQfXPqXb9-S5rKbSThEVZeZFun6K_yGKocDS_IWrNw6VVZy1DyflSCapBNZyJJ-YvEIQXgzLDfDa-GP-eOag9QJQffio_ZXSUZBQg7v7jiHSI0oM6C7b6oOHE-SO_M8b-94OqijSK3LQXUkFQbtyH1r7q_hsIv9OWmcNzt-BfXtOt3LylBMVjwpd_YPo3aIjJSBM9cR5woMIMNV-HB1YM-9OpqENUeV]--></g></svg>