<svg xmlns="http://www.w3.org/2000/svg" xmlns:xlink="http://www.w3.org/1999/xlink" contentStyleType="text/css" data-diagram-type="SEQUENCE" height="1061px" preserveAspectRatio="none" style="width:1107px;height:1061px;background:#FFFFFF;" version="1.1" viewBox="0 0 1107 1061" width="1107px" zoomAndPan="magnify"><title>T1 &#8212; Testing: ScopedClockOverride (Scope-Bound Override)</title><defs/><g><text fill="#000000" font-family="sans-serif" font-size="14" font-weight="bold" lengthAdjust="spacing" textLength="475.6172" x="312.1079" y="27.9951">T1 &#8212; Testing: ScopedClockOverride (Scope-Bound Override)</text><rect fill="#FAFAF0" height="884.3125" style="stroke:#181818;stroke-width:0.5;" width="67.7598" x="1" y="163.7813"/><text fill="#000000" font-family="sans-serif" font-size="13" font-weight="bold" lengthAdjust="spacing" textLength="31.6367" x="19.0615" y="175.8481">Test</text><rect fill="#F0FFF0" height="884.3125" style="stroke:#181818;stroke-width:0.5;" width="355.2598" x="367.1987" y="163.7813"/><text fill="#000000" font-family="sans-serif" font-size="13" font-weight="bold" lengthAdjust="spacing" textLength="83.0337" x="503.3118" y="175.8481">score::time</text><rect fill="#FFFFF0" height="884.3125" style="stroke:#181818;stroke-width:0.5;" width="147.6377" x="786.0488" y="163.7813"/><text fill="#000000" font-family="sans-serif" font-size="13" font-weight="bold" lengthAdjust="spacing" textLength="38.2192" x="840.7581" y="175.8481">Mock</text><rect fill="#E6F0FF" height="884.3125" style="stroke:#181818;stroke-width:0.5;" width="164.1465" x="935.6865" y="163.7813"/><text fill="#000000" font-family="sans-serif" font-size="13" font-weight="bold" lengthAdjust="spacing" textLength="139.1851" x="948.1672" y="175.8481">System Under Test</text><g><title>ScopedClockOverride</title><rect fill="#FFFFFF" height="673.0547" style="stroke:#181818;stroke-width:1;" width="10" x="448.394" y="363.0391"/></g><g><title>VehicleClock</title><rect fill="#FFFFFF" height="79.3984" style="stroke:#181818;stroke-width:1;" width="10" x="661.8643" y="392.1719"/></g><g><title>VehicleClock</title><rect fill="#FFFFFF" height="64.2656" style="stroke:#181818;stroke-width:1;" width="10" x="661.8643" y="645.3672"/></g><g><title>VehicleClock</title><rect fill="#FFFFFF" height="87.3984" style="stroke:#181818;stroke-width:1;" width="10" x="661.8643" y="738.7656"/></g><g><title>VehicleClock</title><rect fill="#FFFFFF" height="79.3984" style="stroke:#181818;stroke-width:1;" width="10" x="661.8643" y="956.6953"/></g><g><title>VehicleClockMock</title><rect fill="#FFFFFF" height="731.3203" style="stroke:#181818;stroke-width:1;" width="10" x="854.8677" y="304.7734"/></g><g><title>VehicleClockMock</title><rect fill="#FFFFFF" height="29.1328" style="stroke:#181818;stroke-width:1;" width="10" x="859.8677" y="767.8984"/></g><g><title>MyService</title><rect fill="#FFFFFF" height="239.0625" style="stroke:#181818;stroke-width:1;" width="10" x="1012.7598" y="616.2344"/></g><g><title>TEST()</title><rect fill="transparent" height="823.5859" width="8" x="30.8799" y="230.5078"/><line style="stroke:#181818;stroke-width:0.5;stroke-dasharray:5.0,5.0;" x1="34" x2="34" y1="230.5078" y2="1054.0938"/></g><g><title>ScopedClockOverride</title><rect fill="transparent" height="823.5859" width="8" x="449.394" y="230.5078"/><line style="stroke:#181818;stroke-width:0.5;stroke-dasharray:5.0,5.0;" x1="453.1987" x2="453.1987" y1="230.5078" y2="1054.0938"/></g><g><title>VehicleClock</title><rect fill="transparent" height="823.5859" width="8" x="662.8643" y="230.5078"/><line style="stroke:#181818;stroke-width:0.5;stroke-dasharray:5.0,5.0;" x1="666.27" x2="666.27" y1="230.5078" y2="1054.0938"/></g><g><title>VehicleClockMock</title><rect fill="transparent" height="823.5859" width="8" x="855.8677" y="230.5078"/><line style="stroke:#181818;stroke-width:0.5;stroke-dasharray:5.0,5.0;" x1="859.0488" x2="859.0488" y1="230.5078" y2="1054.0938"/></g><g><title>MyService</title><rect fill="transparent" height="823.5859" width="8" x="1013.7598" y="230.5078"/><line style="stroke:#181818;stroke-width:0.5;stroke-dasharray:5.0,5.0;" x1="1017.6865" x2="1017.6865" y1="230.5078" y2="1054.0938"/></g><rect fill="#FFA07A" height="30.2969" rx="2.5" ry="2.5" style="stroke:#181818;stroke-width:0.5;" width="59.7598" x="5" y="199.2109"/><text fill="#000000" font-family="sans-serif" font-size="14" lengthAdjust="spacing" textLength="45.7598" x="12" y="219.2061">TEST()</text><rect fill="#90EE90" height="46.5938" rx="2.5" ry="2.5" style="stroke:#181818;stroke-width:0.5;" width="164.3906" x="371.1987" y="182.9141"/><text fill="#000000" font-family="sans-serif" font-size="14" lengthAdjust="spacing" textLength="150.3906" x="378.1987" y="202.9092">ScopedClockOverride</text><text fill="#000000" font-family="sans-serif" font-size="14" lengthAdjust="spacing" textLength="109.3066" x="398.7407" y="219.2061">&lt;VehicleTime&gt;</text><rect fill="#90EE90" height="30.2969" rx="2.5" ry="2.5" style="stroke:#181818;stroke-width:0.5;" width="103.1885" x="615.27" y="199.2109"/><text fill="#000000" font-family="sans-serif" font-size="14" lengthAdjust="spacing" textLength="89.1885" x="622.27" y="219.2061">VehicleClock</text><rect fill="#EEE8AA" height="30.2969" rx="2.5" ry="2.5" style="stroke:#181818;stroke-width:0.5;" width="139.6377" x="790.0488" y="199.2109"/><text fill="#000000" font-family="sans-serif" font-size="14" lengthAdjust="spacing" textLength="125.6377" x="797.0488" y="219.2061">VehicleClockMock</text><rect fill="#ADD8E6" height="46.5938" rx="2.5" ry="2.5" style="stroke:#181818;stroke-width:0.5;" width="156.1465" x="939.6865" y="182.9141"/><text fill="#000000" font-family="sans-serif" font-size="14" lengthAdjust="spacing" textLength="72.1055" x="981.707" y="202.9092">MyService</text><text fill="#000000" font-family="sans-serif" font-size="14" lengthAdjust="spacing" textLength="142.1465" x="946.6865" y="219.2061">(calls GetInstance())</text><g><title>ScopedClockOverride</title><rect fill="#FFFFFF" height="673.0547" style="stroke:#181818;stroke-width:1;" width="10" x="448.394" y="363.0391"/></g><g><title>VehicleClock</title><rect fill="#FFFFFF" height="79.3984" style="stroke:#181818;stroke-width:1;" width="10" x="661.8643" y="392.1719"/></g><g><title>VehicleClock</title><rect fill="#FFFFFF" height="64.2656" style="stroke:#181818;stroke-width:1;" width="10" x="661.8643" y="645.3672"/></g><g><title>VehicleClock</title><rect fill="#FFFFFF" height="87.3984" style="stroke:#181818;stroke-width:1;" width="10" x="661.8643" y="738.7656"/></g><g><title>VehicleClock</title><rect fill="#FFFFFF" height="79.3984" style="stroke:#181818;stroke-width:1;" width="10" x="661.8643" y="956.6953"/></g><g><title>VehicleClockMock</title><rect fill="#FFFFFF" height="731.3203" style="stroke:#181818;stroke-width:1;" width="10" x="854.8677" y="304.7734"/></g><g><title>VehicleClockMock</title><rect fill="#FFFFFF" height="29.1328" style="stroke:#181818;stroke-width:1;" width="10" x="859.8677" y="767.8984"/></g><g><title>MyService</title><rect fill="#FFFFFF" height="239.0625" style="stroke:#181818;stroke-width:1;" width="10" x="1012.7598" y="616.2344"/></g><rect fill="#EEEEEE" height="3" style="stroke:#EEEEEE;stroke-width:1;" width="1100.833" x="0" y="261.0742"/><line style="stroke:#000000;stroke-width:1;" x1="0" x2="1100.833" y1="261.0742" y2="261.0742"/><line style="stroke:#000000;stroke-width:1;" x1="0" x2="1100.833" y1="264.0742" y2="264.0742"/><rect fill="#EEEEEE" height="23.1328" style="stroke:#000000;stroke-width:2;" width="355.4849" x="372.6741" y="250.5078"/><text fill="#000000" font-family="sans-serif" font-size="13" font-weight="bold" lengthAdjust="spacing" textLength="336.959" x="378.6741" y="266.5747">Test setup: override clock backend with mock</text><polygon fill="#181818" points="842.8677,300.7734,852.8677,304.7734,842.8677,308.7734,846.8677,304.7734" style="stroke:#181818;stroke-width:1;"/><line style="stroke:#181818;stroke-width:1;" x1="34.8799" x2="848.8677" y1="304.7734" y2="304.7734"/><text fill="#000080" font-family="sans-serif" font-size="13" font-weight="bold" lengthAdjust="spacing" textLength="29.9736" x="41.8799" y="299.7075">[01]</text><text fill="#000000" font-family="sans-serif" font-size="13" lengthAdjust="spacing" textLength="235.8218" x="75.8535" y="299.7075">make_shared&lt;VehicleClockMock&gt;()</text><polygon fill="#181818" points="45.8799,329.9063,35.8799,333.9063,45.8799,337.9063,41.8799,333.9063" style="stroke:#181818;stroke-width:1;"/><line style="stroke:#181818;stroke-width:1;stroke-dasharray:2.0,2.0;" x1="39.8799" x2="853.8677" y1="333.9063" y2="333.9063"/><text fill="#000080" font-family="sans-serif" font-size="13" font-weight="bold" lengthAdjust="spacing" textLength="29.9736" x="51.8799" y="328.8403">[02]</text><text fill="#000000" font-family="sans-serif" font-size="13" lengthAdjust="spacing" textLength="205.1118" x="85.8535" y="328.8403">shared_ptr&lt;VehicleTimeMock&gt;</text><polygon fill="#181818" points="436.394,359.0391,446.394,363.0391,436.394,367.0391,440.394,363.0391" style="stroke:#181818;stroke-width:1;"/><line style="stroke:#181818;stroke-width:1;" x1="34.8799" x2="442.394" y1="363.0391" y2="363.0391"/><text fill="#000080" font-family="sans-serif" font-size="13" font-weight="bold" lengthAdjust="spacing" textLength="29.9736" x="41.8799" y="357.9731">[03]</text><text fill="#000000" font-family="sans-serif" font-size="13" lengthAdjust="spacing" textLength="360.5405" x="75.8535" y="357.9731">test_utils::ScopedClockOverride&lt;VehicleTime&gt;{mock}</text><polygon fill="#181818" points="649.8643,388.1719,659.8643,392.1719,649.8643,396.1719,653.8643,392.1719" style="stroke:#181818;stroke-width:1;"/><line style="stroke:#181818;stroke-width:1;" x1="458.394" x2="655.8643" y1="392.1719" y2="392.1719"/><text fill="#000080" font-family="sans-serif" font-size="13" font-weight="bold" lengthAdjust="spacing" textLength="29.9736" x="465.394" y="387.106">[04]</text><text fill="#000000" font-family="sans-serif" font-size="13" lengthAdjust="spacing" textLength="150.4966" x="499.3677" y="387.106">OverrideForTest(mock)</text><path d="M676,405.1719 L676,445.1719 L909,445.1719 L909,415.1719 L899,405.1719 L676,405.1719 " fill="#FEFFDD" style="stroke:#181818;stroke-width:0.5;"/><path d="M899,405.1719 L899,415.1719 L909,415.1719 L899,405.1719 " fill="#FEFFDD" style="stroke:#181818;stroke-width:0.5;"/><text fill="#000000" font-family="sans-serif" font-size="13" lengthAdjust="spacing" textLength="154.9717" x="682" y="422.2388">static override_ = mock</text><text fill="#000000" font-family="sans-serif" font-size="13" lengthAdjust="spacing" textLength="212.3608" x="682" y="437.3716">next GetInstance() returns mock</text><polygon fill="#181818" points="469.394,467.5703,459.394,471.5703,469.394,475.5703,465.394,471.5703" style="stroke:#181818;stroke-width:1;"/><line style="stroke:#181818;stroke-width:1;stroke-dasharray:2.0,2.0;" x1="463.394" x2="665.8643" y1="471.5703" y2="471.5703"/><text fill="#000080" font-family="sans-serif" font-size="13" font-weight="bold" lengthAdjust="spacing" textLength="29.9736" x="475.394" y="466.5044">[05]</text><text fill="#000000" font-family="sans-serif" font-size="13" lengthAdjust="spacing" textLength="4.1323" x="509.3677" y="466.5044">&#160;</text><line style="stroke:#181818;stroke-width:1;" x1="34.8799" x2="76.8799" y1="515.8359" y2="515.8359"/><line style="stroke:#181818;stroke-width:1;" x1="76.8799" x2="76.8799" y1="515.8359" y2="528.8359"/><line style="stroke:#181818;stroke-width:1;" x1="35.8799" x2="76.8799" y1="528.8359" y2="528.8359"/><polygon fill="#181818" points="45.8799,524.8359,35.8799,528.8359,45.8799,532.8359,41.8799,528.8359" style="stroke:#181818;stroke-width:1;"/><text fill="#000080" font-family="sans-serif" font-size="13" font-weight="bold" lengthAdjust="spacing" textLength="29.9736" x="41.8799" y="503.2036">[06]</text><text fill="#000000" font-family="sans-serif" font-size="13" lengthAdjust="spacing" textLength="187.8018" x="75.8535" y="495.6372">EXPECT_CALL(*mock, Now())</text><text fill="#000000" font-family="sans-serif" font-size="13" lengthAdjust="spacing" textLength="184.9707" x="84.1182" y="510.77">.WillOnce(Return(snapshot))</text><rect fill="#EEEEEE" height="3" style="stroke:#EEEEEE;stroke-width:1;" width="1100.833" x="0" y="557.4023"/><line style="stroke:#000000;stroke-width:1;" x1="0" x2="1100.833" y1="557.4023" y2="557.4023"/><line style="stroke:#000000;stroke-width:1;" x1="0" x2="1100.833" y1="560.4023" y2="560.4023"/><rect fill="#EEEEEE" height="23.1328" style="stroke:#000000;stroke-width:2;" width="164.084" x="468.3745" y="546.8359"/><text fill="#000000" font-family="sans-serif" font-size="13" font-weight="bold" lengthAdjust="spacing" textLength="145.5581" x="474.3745" y="562.9028">Test case execution</text><polygon fill="#181818" points="1000.7598,612.2344,1010.7598,616.2344,1000.7598,620.2344,1004.7598,616.2344" style="stroke:#181818;stroke-width:1;"/><line style="stroke:#181818;stroke-width:1;" x1="34.8799" x2="1006.7598" y1="616.2344" y2="616.2344"/><text fill="#000080" font-family="sans-serif" font-size="13" font-weight="bold" lengthAdjust="spacing" textLength="29.9736" x="41.8799" y="603.6021">[07]</text><text fill="#000000" font-family="sans-serif" font-size="13" lengthAdjust="spacing" textLength="84.2905" x="75.8535" y="596.0356">MySvc svc{}</text><text fill="#000000" font-family="sans-serif" font-size="13" lengthAdjust="spacing" textLength="124.1602" x="75.8535" y="611.1685">svc.DoSomething()</text><polygon fill="#181818" points="682.8643,641.3672,672.8643,645.3672,682.8643,649.3672,678.8643,645.3672" style="stroke:#181818;stroke-width:1;"/><line style="stroke:#181818;stroke-width:1;" x1="676.8643" x2="1011.7598" y1="645.3672" y2="645.3672"/><text fill="#000080" font-family="sans-serif" font-size="13" font-weight="bold" lengthAdjust="spacing" textLength="29.9736" x="688.8643" y="640.3013">[08]</text><text fill="#000000" font-family="sans-serif" font-size="13" lengthAdjust="spacing" textLength="180.1846" x="722.8379" y="640.3013">VehicleClock::GetInstance()</text><path d="M676,658.3672 L676,683.3672 L901,683.3672 L901,668.3672 L891,658.3672 L676,658.3672 " fill="#FEFFDD" style="stroke:#181818;stroke-width:0.5;"/><path d="M891,658.3672 L891,668.3672 L901,668.3672 L891,658.3672 " fill="#FEFFDD" style="stroke:#181818;stroke-width:0.5;"/><text fill="#000000" font-family="sans-serif" font-size="13" lengthAdjust="spacing" textLength="204.8325" x="682" y="675.4341">override_ is set &#8594; returns mock</text><polygon fill="#181818" points="1000.7598,705.6328,1010.7598,709.6328,1000.7598,713.6328,1004.7598,709.6328" style="stroke:#181818;stroke-width:1;"/><line style="stroke:#181818;stroke-width:1;stroke-dasharray:2.0,2.0;" x1="666.8643" x2="1006.7598" y1="709.6328" y2="709.6328"/><text fill="#000080" font-family="sans-serif" font-size="13" font-weight="bold" lengthAdjust="spacing" textLength="29.9736" x="673.8643" y="704.5669">[09]</text><text fill="#000000" font-family="sans-serif" font-size="13" lengthAdjust="spacing" textLength="240.9253" x="707.8379" y="704.5669">Clock&lt;VehicleTime&gt; wrapping mock</text><polygon fill="#181818" points="682.8643,734.7656,672.8643,738.7656,682.8643,742.7656,678.8643,738.7656" style="stroke:#181818;stroke-width:1;"/><line style="stroke:#181818;stroke-width:1;" x1="676.8643" x2="1011.7598" y1="738.7656" y2="738.7656"/><text fill="#000080" font-family="sans-serif" font-size="13" font-weight="bold" lengthAdjust="spacing" textLength="29.9736" x="688.8643" y="733.6997">[10]</text><text fill="#000000" font-family="sans-serif" font-size="13" lengthAdjust="spacing" textLength="38.4541" x="722.8379" y="733.6997">Now()</text><polygon fill="#181818" points="847.8677,763.8984,857.8677,767.8984,847.8677,771.8984,851.8677,767.8984" style="stroke:#181818;stroke-width:1;"/><line style="stroke:#181818;stroke-width:1;" x1="671.8643" x2="853.8677" y1="767.8984" y2="767.8984"/><text fill="#000080" font-family="sans-serif" font-size="13" font-weight="bold" lengthAdjust="spacing" textLength="29.9736" x="678.8643" y="762.8325">[11]</text><text fill="#000000" font-family="sans-serif" font-size="13" lengthAdjust="spacing" textLength="38.4541" x="712.8379" y="762.8325">Now()</text><polygon fill="#181818" points="682.8643,793.0313,672.8643,797.0313,682.8643,801.0313,678.8643,797.0313" style="stroke:#181818;stroke-width:1;"/><line style="stroke:#181818;stroke-width:1;stroke-dasharray:2.0,2.0;" x1="676.8643" x2="853.8677" y1="797.0313" y2="797.0313"/><text fill="#000080" font-family="sans-serif" font-size="13" font-weight="bold" lengthAdjust="spacing" textLength="29.9736" x="688.8643" y="791.9653">[12]</text><text fill="#000000" font-family="sans-serif" font-size="13" lengthAdjust="spacing" textLength="125.0298" x="722.8379" y="791.9653">ClockSnapshot{...}</text><polygon fill="#181818" points="1000.7598,822.1641,1010.7598,826.1641,1000.7598,830.1641,1004.7598,826.1641" style="stroke:#181818;stroke-width:1;"/><line style="stroke:#181818;stroke-width:1;stroke-dasharray:2.0,2.0;" x1="666.8643" x2="1006.7598" y1="826.1641" y2="826.1641"/><text fill="#000080" font-family="sans-serif" font-size="13" font-weight="bold" lengthAdjust="spacing" textLength="29.9736" x="673.8643" y="821.0981">[13]</text><text fill="#000000" font-family="sans-serif" font-size="13" lengthAdjust="spacing" textLength="59.2935" x="707.8379" y="821.0981">snapshot</text><polygon fill="#181818" points="45.8799,851.2969,35.8799,855.2969,45.8799,859.2969,41.8799,855.2969" style="stroke:#181818;stroke-width:1;"/><line style="stroke:#181818;stroke-width:1;stroke-dasharray:2.0,2.0;" x1="39.8799" x2="1016.7598" y1="855.2969" y2="855.2969"/><text fill="#000080" font-family="sans-serif" font-size="13" font-weight="bold" lengthAdjust="spacing" textLength="29.9736" x="51.8799" y="850.231">[14]</text><text fill="#000000" font-family="sans-serif" font-size="13" lengthAdjust="spacing" textLength="4.1323" x="85.8535" y="850.231">&#160;</text><rect fill="#EEEEEE" height="3" style="stroke:#EEEEEE;stroke-width:1;" width="1100.833" x="0" y="883.8633"/><line style="stroke:#000000;stroke-width:1;" x1="0" x2="1100.833" y1="883.8633" y2="883.8633"/><line style="stroke:#000000;stroke-width:1;" x1="0" x2="1100.833" y1="886.8633" y2="886.8633"/><rect fill="#EEEEEE" height="23.1328" style="stroke:#000000;stroke-width:2;" width="508.2222" x="296.3054" y="873.2969"/><text fill="#000000" font-family="sans-serif" font-size="13" font-weight="bold" lengthAdjust="spacing" textLength="489.6963" x="302.3054" y="889.3638">Test teardown: guard goes out of scope, backend override is reset</text><polygon fill="#181818" points="436.394,923.5625,446.394,927.5625,436.394,931.5625,440.394,927.5625" style="stroke:#181818;stroke-width:1;"/><line style="stroke:#181818;stroke-width:1;" x1="34.8799" x2="442.394" y1="927.5625" y2="927.5625"/><text fill="#000080" font-family="sans-serif" font-size="13" font-weight="bold" lengthAdjust="spacing" textLength="29.9736" x="41.8799" y="922.4966">[15]</text><text fill="#000000" font-family="sans-serif" font-size="13" lengthAdjust="spacing" textLength="77.3906" x="75.8535" y="922.4966">(destructor)</text><polygon fill="#181818" points="649.8643,952.6953,659.8643,956.6953,649.8643,960.6953,653.8643,956.6953" style="stroke:#181818;stroke-width:1;"/><line style="stroke:#181818;stroke-width:1;" x1="458.394" x2="655.8643" y1="956.6953" y2="956.6953"/><text fill="#000080" font-family="sans-serif" font-size="13" font-weight="bold" lengthAdjust="spacing" textLength="29.9736" x="465.394" y="951.6294">[16]</text><text fill="#000000" font-family="sans-serif" font-size="13" lengthAdjust="spacing" textLength="103.5176" x="499.3677" y="951.6294">ResetOverride()</text><path d="M676,969.6953 L676,1009.6953 L886,1009.6953 L886,979.6953 L876,969.6953 L676,969.6953 " fill="#FEFFDD" style="stroke:#181818;stroke-width:0.5;"/><path d="M876,969.6953 L876,979.6953 L886,979.6953 L876,969.6953 " fill="#FEFFDD" style="stroke:#181818;stroke-width:0.5;"/><text fill="#000000" font-family="sans-serif" font-size="13" lengthAdjust="spacing" textLength="162.0747" x="682" y="986.7622">static override_ = nullptr</text><text fill="#000000" font-family="sans-serif" font-size="13" lengthAdjust="spacing" textLength="189.5283" x="682" y="1001.895">production backend resumes</text><polygon fill="#181818" points="464.394,1032.0938,454.394,1036.0938,464.394,1040.0938,460.394,1036.0938" style="stroke:#181818;stroke-width:1;"/><line style="stroke:#181818;stroke-width:1;stroke-dasharray:2.0,2.0;" x1="458.394" x2="665.8643" y1="1036.0938" y2="1036.0938"/><text fill="#000080" font-family="sans-serif" font-size="13" font-weight="bold" lengthAdjust="spacing" textLength="29.9736" x="470.394" y="1031.0278">[17]</text><text fill="#000000" font-family="sans-serif" font-size="13" lengthAdjust="spacing" textLength="4.1323" x="504.3677" y="1031.0278">&#160;</text><rect fill="transparent" height="95.4844" id="_legend" rx="7.5" ry="7.5" style="stroke:#000000;stroke-width:1;" width="341.3652" x="12" y="54.2969"/><text fill="#000000" font-family="sans-serif" font-size="14" font-weight="bold" lengthAdjust="spacing" textLength="41.2139" x="21.874" y="74.292">Color</text><text fill="#000000" font-family="sans-serif" font-size="14" font-weight="bold" lengthAdjust="spacing" textLength="90.5488" x="141.0723" y="74.292">Description</text><rect fill="#FFA07A" height="16.2969" style="stroke:transparent;stroke-width:1;" width="119.1982" x="17" y="77.5938"/><text fill="#000000" font-family="sans-serif" font-size="14" lengthAdjust="spacing" textLength="35.6016" x="17" y="90.5889">&#160;&#160;&#160;&#160;&#160;&#160;&#160;&#160;</text><text fill="#000000" font-family="sans-serif" font-size="14" lengthAdjust="spacing" textLength="68.1611" x="140.6484" y="90.5889">Test code</text><rect fill="#90EE90" height="16.2969" style="stroke:transparent;stroke-width:1;" width="119.1982" x="17" y="93.8906"/><text fill="#000000" font-family="sans-serif" font-size="14" lengthAdjust="spacing" textLength="40.0518" x="17" y="106.8857">&#160;&#160;&#160;&#160;&#160;&#160;&#160;&#160;&#160;</text><text fill="#000000" font-family="sans-serif" font-size="14" lengthAdjust="spacing" textLength="158.833" x="140.6484" y="106.8857">score::time framework</text><rect fill="#EEE8AA" height="16.2969" style="stroke:transparent;stroke-width:1;" width="119.1982" x="17" y="110.1875"/><text fill="#000000" font-family="sans-serif" font-size="14" lengthAdjust="spacing" textLength="26.7012" x="17" y="123.1826">&#160;&#160;&#160;&#160;&#160;&#160;</text><text fill="#000000" font-family="sans-serif" font-size="14" lengthAdjust="spacing" textLength="163.2148" x="140.6484" y="123.1826">Mock backend (GMock)</text><rect fill="#ADD8E6" height="16.2969" style="stroke:transparent;stroke-width:1;" width="119.1982" x="17" y="126.4844"/><text fill="#000000" font-family="sans-serif" font-size="14" lengthAdjust="spacing" textLength="44.502" x="17" y="139.4795">&#160;&#160;&#160;&#160;&#160;&#160;&#160;&#160;&#160;&#160;</text><text fill="#000000" font-family="sans-serif" font-size="14" lengthAdjust="spacing" textLength="159.4482" x="140.6484" y="139.4795">Application Under Test</text><line style="stroke:#000000;stroke-width:1;" x1="17" x2="348.3652" y1="61.2969" y2="61.2969"/><line style="stroke:#000000;stroke-width:1;" x1="17" x2="348.3652" y1="77.5938" y2="77.5938"/><line style="stroke:#000000;stroke-width:1;" x1="17" x2="348.3652" y1="93.8906" y2="93.8906"/><line style="stroke:#000000;stroke-width:1;" x1="17" x2="348.3652" y1="110.1875" y2="110.1875"/><line style="stroke:#000000;stroke-width:1;" x1="17" x2="348.3652" y1="126.4844" y2="126.4844"/><line style="stroke:#000000;stroke-width:1;" x1="17" x2="348.3652" y1="142.7813" y2="142.7813"/><line style="stroke:#000000;stroke-width:1;" x1="17" x2="17" y1="61.2969" y2="142.7813"/><line style="stroke:#000000;stroke-width:1;" x1="136.1982" x2="136.1982" y1="61.2969" y2="142.7813"/><line style="stroke:#000000;stroke-width:1;" x1="348.3652" x2="348.3652" y1="61.2969" y2="142.7813"/><!--SRC=[fLHDRnit4BtlhnZ8brKH2-wbXuKa875Seu3T19Rw0SI1G7Dd9K9SSa5o9HkEWPpw0uh-mloI3adjQbTIq0QX3f98lZSpxytG2ISHvZ_2by__m1oj4sgPmOph2lDBgVdwtGQD4Jb26ZRFt-XQvT3i3fF4heMgc64bF32-NXf_VgcbDh1T2OV9oeCBhTs3VanOxRIgomSqC1WNMZdW_kf4iStJTFmm_N1nyN6G91ANI56Sha1YuHAWzMa2aRQ_QFijMcv4vOHMSBG-HV3ux4OiLsx6PAdLj3qC9LCEbEAfrGTV6yGzbi2MQuDPvaH95P82kDLcVGn-poHUQvcZkjFvj07VahX1CbzfUkt_3hyM-OsiSTevXDTL9GLdeUJVL4voXa9QC7563PE4P8U1Fnt0MS7eSn6eoJ8dkAWOUJ2ONytcwN00p8BpF5snF1Tuxo9JfsPFU54KfmXFDD2z6l-EAy4bpWax3S6MDJCvTDGzPjfX0bN0SF-hX-adU1ikdXN5wSowVBSDPnaeUpuTiCwUhCEoepM5m9zy-SSXRfzcQ3Q2KyafPr9Qk4RtYxAEAOxfCEfiwqPcR-u-scGIhRJewYe3tOnVBBlfbwrmgvZrP98amRFpQTp8e6HhNDWLCvYF3ykTfiE4SISsp66udmJGEQ43ImOHkAYSwVeLiFj8qRWiO1Qr4z9csGdFUuu_-qWl- -Y18ubCH1aBpDgdvMTjl12fHtLo3jSIfUcdyUg1BdPxtWVIc7neLLl091RfpnG-khuJO4XaewB_mGBFcyHCpfioanmFehSox2Ix-lFzrULySVdwvYRzmNEzWb_rbfo-fmTfz8UGyfsFTnUYfLQnogwq6mxtRdDc4V0HUHr6kckgRvGCgASs7Eo6Fx_SA_eQlTKpNQ9RqNlTjPHkqvDSkwwYtHx8ifu2_rVNlQ32-jQ4Bt_z_P_gnSn3s5uZmDQmggB48_9OteFyWvQ7cUx2j4r_SAdVsWrJo6Msq_zvD1gzTAEN7Tus_SQjhwMvwuBkSV2WSTOXjP3UgcmtCqkD5dGTzBL-ObwrGztEEcbiqAlSxODcvDASDapDdJR3u-cvyxXcXDBlcHjLIqcFG7pUZCufec_D9bbAi2xHViFKT3QERWJf_mK0]--></g></svg>