<svg xmlns="http://www.w3.org/2000/svg" xmlns:xlink="http://www.w3.org/1999/xlink" contentStyleType="text/css" data-diagram-type="SEQUENCE" height="675px" preserveAspectRatio="none" style="width:1314px;height:675px;background:#FFFFFF;" version="1.1" viewBox="0 0 1314 675" width="1314px" zoomAndPan="magnify"><title>ST1 &#8212; SteadyClock: Time Polling</title><defs/><g><text fill="#000000" font-family="sans-serif" font-size="14" font-weight="bold" lengthAdjust="spacing" textLength="258.3301" x="526.4187" y="27.9951">ST1 &#8212; SteadyClock: Time Polling</text><rect fill="#E6F0FF" height="498.5859" style="stroke:#181818;stroke-width:0.5;" width="100.2236" x="1" y="163.7813"/><text fill="#000000" font-family="sans-serif" font-size="13" font-weight="bold" lengthAdjust="spacing" textLength="82.9194" x="9.6521" y="175.8481">Application</text><rect fill="#F0FFF0" height="498.5859" style="stroke:#181818;stroke-width:0.5;" width="449.4546" x="406.394" y="163.7813"/><text fill="#000000" font-family="sans-serif" font-size="13" font-weight="bold" lengthAdjust="spacing" textLength="83.0337" x="589.6045" y="175.8481">score::time</text><rect fill="#FFF8F0" height="498.5859" style="stroke:#181818;stroke-width:0.5;" width="176.0137" x="912.6997" y="163.7813"/><text fill="#000000" font-family="sans-serif" font-size="13" font-weight="bold" lengthAdjust="spacing" textLength="118.3584" x="941.5273" y="175.8481">OS / std::chrono</text><g><title>SteadyClock</title><rect fill="#FFFFFF" height="71.2656" style="stroke:#181818;stroke-width:1;" width="10" x="455.7817" y="261.6406"/></g><g><title>SteadyClock</title><rect fill="#FFFFFF" height="195.9297" style="stroke:#181818;stroke-width:1;" width="10" x="455.7817" y="412.3047"/></g><g><title>SteadyClockBackend</title><rect fill="#FFFFFF" height="137.6641" style="stroke:#181818;stroke-width:1;" width="10" x="766.2803" y="441.4375"/></g><g><title>steady_clock</title><rect fill="#FFFFFF" height="79.3984" style="stroke:#181818;stroke-width:1;" width="10" x="995.7065" y="470.5703"/></g><g><title>Application</title><rect fill="transparent" height="437.8594" width="8" x="47.1118" y="230.5078"/><line style="stroke:#181818;stroke-width:0.5;stroke-dasharray:5.0,5.0;" x1="51" x2="51" y1="230.5078" y2="668.3672"/></g><g><title>SteadyClock</title><rect fill="transparent" height="437.8594" width="8" x="456.7817" y="230.5078"/><line style="stroke:#181818;stroke-width:0.5;stroke-dasharray:5.0,5.0;" x1="460.394" x2="460.394" y1="230.5078" y2="668.3672"/></g><g><title>SteadyClockBackend</title><rect fill="transparent" height="437.8594" width="8" x="767.2803" y="230.5078"/><line style="stroke:#181818;stroke-width:0.5;stroke-dasharray:5.0,5.0;" x1="770.7119" x2="770.7119" y1="230.5078" y2="668.3672"/></g><g><title>steady_clock</title><rect fill="transparent" height="437.8594" width="8" x="996.7065" y="230.5078"/><line style="stroke:#181818;stroke-width:0.5;stroke-dasharray:5.0,5.0;" x1="1000.6997" x2="1000.6997" y1="230.5078" y2="668.3672"/></g><rect fill="#FFA07A" height="46.5938" rx="2.5" ry="2.5" style="stroke:#181818;stroke-width:0.5;" width="92.2236" x="5" y="182.9141"/><text fill="#000000" font-family="sans-serif" font-size="14" lengthAdjust="spacing" textLength="78.2236" x="12" y="202.9092">Application</text><text fill="#000000" font-family="sans-serif" font-size="14" lengthAdjust="spacing" textLength="33.7627" x="34.2305" y="219.2061">code</text><rect fill="#90EE90" height="30.2969" rx="2.5" ry="2.5" style="stroke:#181818;stroke-width:0.5;" width="100.7754" x="410.394" y="199.2109"/><text fill="#000000" font-family="sans-serif" font-size="14" lengthAdjust="spacing" textLength="86.7754" x="417.394" y="219.2061">SteadyClock</text><rect fill="#F08080" height="30.2969" rx="2.5" ry="2.5" style="stroke:#181818;stroke-width:0.5;" width="161.1367" x="690.7119" y="199.2109"/><text fill="#000000" font-family="sans-serif" font-size="14" lengthAdjust="spacing" textLength="147.1367" x="697.7119" y="219.2061">SteadyClockBackend</text><rect fill="#FFDEAD" height="46.5938" rx="2.5" ry="2.5" style="stroke:#181818;stroke-width:0.5;" width="168.0137" x="916.6997" y="182.9141"/><text fill="#000000" font-family="sans-serif" font-size="14" lengthAdjust="spacing" textLength="90.1045" x="955.6543" y="202.9092">steady_clock</text><text fill="#000000" font-family="sans-serif" font-size="14" lengthAdjust="spacing" textLength="154.0137" x="923.6997" y="219.2061">(CLOCK_MONOTONIC)</text><g><title>SteadyClock</title><rect fill="#FFFFFF" height="71.2656" style="stroke:#181818;stroke-width:1;" width="10" x="455.7817" y="261.6406"/></g><g><title>SteadyClock</title><rect fill="#FFFFFF" height="195.9297" style="stroke:#181818;stroke-width:1;" width="10" x="455.7817" y="412.3047"/></g><g><title>SteadyClockBackend</title><rect fill="#FFFFFF" height="137.6641" style="stroke:#181818;stroke-width:1;" width="10" x="766.2803" y="441.4375"/></g><g><title>steady_clock</title><rect fill="#FFFFFF" height="79.3984" style="stroke:#181818;stroke-width:1;" width="10" x="995.7065" y="470.5703"/></g><polygon fill="#181818" points="443.7817,257.6406,453.7817,261.6406,443.7817,265.6406,447.7817,261.6406" style="stroke:#181818;stroke-width:1;"/><line style="stroke:#181818;stroke-width:1;" x1="51.1118" x2="449.7817" y1="261.6406" y2="261.6406"/><text fill="#000080" font-family="sans-serif" font-size="13" font-weight="bold" lengthAdjust="spacing" textLength="29.9736" x="58.1118" y="256.5747">[01]</text><text fill="#000000" font-family="sans-serif" font-size="13" lengthAdjust="spacing" textLength="177.9438" x="92.0854" y="256.5747">SteadyClock::GetInstance()</text><line style="stroke:#181818;stroke-width:1;" x1="465.7817" x2="507.7817" y1="290.7734" y2="290.7734"/><line style="stroke:#181818;stroke-width:1;" x1="507.7817" x2="507.7817" y1="290.7734" y2="303.7734"/><line style="stroke:#181818;stroke-width:1;" x1="466.7817" x2="507.7817" y1="303.7734" y2="303.7734"/><polygon fill="#181818" points="476.7817,299.7734,466.7817,303.7734,476.7817,307.7734,472.7817,303.7734" style="stroke:#181818;stroke-width:1;"/><text fill="#000080" font-family="sans-serif" font-size="13" font-weight="bold" lengthAdjust="spacing" textLength="29.9736" x="472.7817" y="285.7075">[02]</text><text fill="#000000" font-family="sans-serif" font-size="13" lengthAdjust="spacing" textLength="147.5322" x="506.7554" y="285.7075">check cache / override</text><polygon fill="#181818" points="62.1118,328.9063,52.1118,332.9063,62.1118,336.9063,58.1118,332.9063" style="stroke:#181818;stroke-width:1;"/><line style="stroke:#181818;stroke-width:1;stroke-dasharray:2.0,2.0;" x1="56.1118" x2="459.7817" y1="332.9063" y2="332.9063"/><text fill="#000080" font-family="sans-serif" font-size="13" font-weight="bold" lengthAdjust="spacing" textLength="29.9736" x="68.1118" y="327.8403">[03]</text><text fill="#000000" font-family="sans-serif" font-size="13" lengthAdjust="spacing" textLength="189.2109" x="102.0854" y="327.8403">Clock&lt;steady_clock&gt; handle</text><path d="M56,345.9063 L56,385.9063 L266,385.9063 L266,355.9063 L256,345.9063 L56,345.9063 " fill="#FEFFDD" style="stroke:#181818;stroke-width:0.5;"/><path d="M256,345.9063 L256,355.9063 L266,355.9063 L256,345.9063 " fill="#FEFFDD" style="stroke:#181818;stroke-width:0.5;"/><text fill="#000000" font-family="sans-serif" font-size="13" lengthAdjust="spacing" textLength="129.0415" x="62" y="362.9731">No Init() required &#8212;</text><text fill="#000000" font-family="sans-serif" font-size="13" lengthAdjust="spacing" textLength="189.3887" x="62" y="378.106">SteadyClock is always ready.</text><polygon fill="#181818" points="443.7817,408.3047,453.7817,412.3047,443.7817,416.3047,447.7817,412.3047" style="stroke:#181818;stroke-width:1;"/><line style="stroke:#181818;stroke-width:1;" x1="51.1118" x2="449.7817" y1="412.3047" y2="412.3047"/><text fill="#000080" font-family="sans-serif" font-size="13" font-weight="bold" lengthAdjust="spacing" textLength="29.9736" x="58.1118" y="407.2388">[04]</text><text fill="#000000" font-family="sans-serif" font-size="13" lengthAdjust="spacing" textLength="38.4541" x="92.0854" y="407.2388">Now()</text><polygon fill="#181818" points="754.2803,437.4375,764.2803,441.4375,754.2803,445.4375,758.2803,441.4375" style="stroke:#181818;stroke-width:1;"/><line style="stroke:#181818;stroke-width:1;" x1="465.7817" x2="760.2803" y1="441.4375" y2="441.4375"/><text fill="#000080" font-family="sans-serif" font-size="13" font-weight="bold" lengthAdjust="spacing" textLength="29.9736" x="472.7817" y="436.3716">[05]</text><text fill="#000000" font-family="sans-serif" font-size="13" lengthAdjust="spacing" textLength="38.4541" x="506.7554" y="436.3716">Now()</text><polygon fill="#181818" points="983.7065,466.5703,993.7065,470.5703,983.7065,474.5703,987.7065,470.5703" style="stroke:#181818;stroke-width:1;"/><line style="stroke:#181818;stroke-width:1;" x1="776.2803" x2="989.7065" y1="470.5703" y2="470.5703"/><text fill="#000080" font-family="sans-serif" font-size="13" font-weight="bold" lengthAdjust="spacing" textLength="29.9736" x="783.2803" y="465.5044">[06]</text><text fill="#000000" font-family="sans-serif" font-size="13" lengthAdjust="spacing" textLength="129.397" x="817.2539" y="465.5044">steady_clock::now()</text><path d="M1010,483.5703 L1010,523.5703 L1307,523.5703 L1307,493.5703 L1297,483.5703 L1010,483.5703 " fill="#FEFFDD" style="stroke:#181818;stroke-width:0.5;"/><path d="M1297,483.5703 L1297,493.5703 L1307,493.5703 L1297,483.5703 " fill="#FEFFDD" style="stroke:#181818;stroke-width:0.5;"/><text fill="#000000" font-family="sans-serif" font-size="13" lengthAdjust="spacing" textLength="227.1255" x="1016" y="500.6372">CLOCK_MONOTONIC &#8212; monotonic,</text><text fill="#000000" font-family="sans-serif" font-size="13" lengthAdjust="spacing" textLength="276.1675" x="1016" y="515.77">may be NTP-slewed, never goes backward</text><polygon fill="#181818" points="787.2803,545.9688,777.2803,549.9688,787.2803,553.9688,783.2803,549.9688" style="stroke:#181818;stroke-width:1;"/><line style="stroke:#181818;stroke-width:1;stroke-dasharray:2.0,2.0;" x1="781.2803" x2="999.7065" y1="549.9688" y2="549.9688"/><text fill="#000080" font-family="sans-serif" font-size="13" font-weight="bold" lengthAdjust="spacing" textLength="29.9736" x="793.2803" y="544.9028">[07]</text><text fill="#000000" font-family="sans-serif" font-size="13" lengthAdjust="spacing" textLength="161.4526" x="827.2539" y="544.9028">steady_clock::time_point</text><polygon fill="#181818" points="476.7817,575.1016,466.7817,579.1016,476.7817,583.1016,472.7817,579.1016" style="stroke:#181818;stroke-width:1;"/><line style="stroke:#181818;stroke-width:1;stroke-dasharray:2.0,2.0;" x1="470.7817" x2="770.2803" y1="579.1016" y2="579.1016"/><text fill="#000080" font-family="sans-serif" font-size="13" font-weight="bold" lengthAdjust="spacing" textLength="29.9736" x="482.7817" y="574.0356">[08]</text><text fill="#000000" font-family="sans-serif" font-size="13" lengthAdjust="spacing" textLength="242.5249" x="516.7554" y="574.0356">ClockSnapshot{timepoint, NoStatus}</text><polygon fill="#181818" points="62.1118,604.2344,52.1118,608.2344,62.1118,612.2344,58.1118,608.2344" style="stroke:#181818;stroke-width:1;"/><line style="stroke:#181818;stroke-width:1;stroke-dasharray:2.0,2.0;" x1="56.1118" x2="459.7817" y1="608.2344" y2="608.2344"/><text fill="#000080" font-family="sans-serif" font-size="13" font-weight="bold" lengthAdjust="spacing" textLength="29.9736" x="68.1118" y="603.1685">[09]</text><text fill="#000000" font-family="sans-serif" font-size="13" lengthAdjust="spacing" textLength="346.6963" x="102.0854" y="603.1685">ClockSnapshot&lt;steady_clock::time_point, NoStatus&gt;</text><line style="stroke:#181818;stroke-width:1;" x1="51.1118" x2="93.1118" y1="637.3672" y2="637.3672"/><line style="stroke:#181818;stroke-width:1;" x1="93.1118" x2="93.1118" y1="637.3672" y2="650.3672"/><line style="stroke:#181818;stroke-width:1;" x1="52.1118" x2="93.1118" y1="650.3672" y2="650.3672"/><polygon fill="#181818" points="62.1118,646.3672,52.1118,650.3672,62.1118,654.3672,58.1118,650.3672" style="stroke:#181818;stroke-width:1;"/><text fill="#000080" font-family="sans-serif" font-size="13" font-weight="bold" lengthAdjust="spacing" textLength="29.9736" x="58.1118" y="632.3013">[10]</text><text fill="#000000" font-family="sans-serif" font-size="13" lengthAdjust="spacing" textLength="138.5249" x="92.0854" y="632.3013">snapshot.TimePoint()</text><rect fill="transparent" height="95.4844" id="_legend" rx="7.5" ry="7.5" style="stroke:#000000;stroke-width:1;" width="320.1191" x="12" y="54.2969"/><text fill="#000000" font-family="sans-serif" font-size="14" font-weight="bold" lengthAdjust="spacing" textLength="41.2139" x="21.874" y="74.292">Color</text><text fill="#000000" font-family="sans-serif" font-size="14" font-weight="bold" lengthAdjust="spacing" textLength="90.5488" x="141.0723" y="74.292">Description</text><rect fill="#FFA07A" height="16.2969" style="stroke:transparent;stroke-width:1;" width="119.1982" x="17" y="77.5938"/><text fill="#000000" font-family="sans-serif" font-size="14" lengthAdjust="spacing" textLength="35.6016" x="17" y="90.5889">&#160;&#160;&#160;&#160;&#160;&#160;&#160;&#160;</text><text fill="#000000" font-family="sans-serif" font-size="14" lengthAdjust="spacing" textLength="116.4365" x="140.6484" y="90.5889">Application code</text><rect fill="#90EE90" height="16.2969" style="stroke:transparent;stroke-width:1;" width="119.1982" x="17" y="93.8906"/><text fill="#000000" font-family="sans-serif" font-size="14" lengthAdjust="spacing" textLength="40.0518" x="17" y="106.8857">&#160;&#160;&#160;&#160;&#160;&#160;&#160;&#160;&#160;</text><text fill="#000000" font-family="sans-serif" font-size="14" lengthAdjust="spacing" textLength="158.833" x="140.6484" y="106.8857">score::time framework</text><rect fill="#F08080" height="16.2969" style="stroke:transparent;stroke-width:1;" width="119.1982" x="17" y="110.1875"/><text fill="#000000" font-family="sans-serif" font-size="14" lengthAdjust="spacing" textLength="40.0518" x="17" y="123.1826">&#160;&#160;&#160;&#160;&#160;&#160;&#160;&#160;&#160;</text><text fill="#000000" font-family="sans-serif" font-size="14" lengthAdjust="spacing" textLength="150.8691" x="140.6484" y="123.1826">SteadyClock backend</text><rect fill="#FFDEAD" height="16.2969" style="stroke:transparent;stroke-width:1;" width="119.1982" x="17" y="126.4844"/><text fill="#000000" font-family="sans-serif" font-size="14" lengthAdjust="spacing" textLength="35.6016" x="17" y="139.4795">&#160;&#160;&#160;&#160;&#160;&#160;&#160;&#160;</text><text fill="#000000" font-family="sans-serif" font-size="14" lengthAdjust="spacing" textLength="112.957" x="140.6484" y="139.4795">OS / std::chrono</text><line style="stroke:#000000;stroke-width:1;" x1="17" x2="327.1191" y1="61.2969" y2="61.2969"/><line style="stroke:#000000;stroke-width:1;" x1="17" x2="327.1191" y1="77.5938" y2="77.5938"/><line style="stroke:#000000;stroke-width:1;" x1="17" x2="327.1191" y1="93.8906" y2="93.8906"/><line style="stroke:#000000;stroke-width:1;" x1="17" x2="327.1191" y1="110.1875" y2="110.1875"/><line style="stroke:#000000;stroke-width:1;" x1="17" x2="327.1191" y1="126.4844" y2="126.4844"/><line style="stroke:#000000;stroke-width:1;" x1="17" x2="327.1191" y1="142.7813" y2="142.7813"/><line style="stroke:#000000;stroke-width:1;" x1="17" x2="17" y1="61.2969" y2="142.7813"/><line style="stroke:#000000;stroke-width:1;" x1="136.1982" x2="136.1982" y1="61.2969" y2="142.7813"/><line style="stroke:#000000;stroke-width:1;" x1="327.1191" x2="327.1191" y1="61.2969" y2="142.7813"/><!--SRC=[VLJ1QXin4BthAmRdaa2IkfTI5iVGkX12KpjWGmzD2R9srgjwhTbAibtJ5leH_S9-IKTQEvOtJlQoYpJlpNjljFBQLmZZoMluz-SlZ3tAV3EeICqpcEW5mXrLbJOp8TnScrfQkO2fLFEPfQN91rIHXNMfFOfIvmW5aP_I3o6NdinoCKKBdLv1neCAfLT6hZRzthJ_fTlzsX6YmXcQ73pLK67X1V3pwmeQsiE7bp-WKrRNNfDfRpR8ticjdfL-BAi5cVxZ9hohwqeh6O6AMEPpo6kBk0SoqYcoc6K-956mTroJdHz33iZAAaKcISR0Wizspw5SoM_qESINg1sDuHKudsUPAYqPEb3BD4reGd3Eq4ciTU04tnJTeeZqF2glbQubPvzMtPkGG0Ua0rdNa2OMo25Chw5El3Dr82wwJwaJdv5KHST9d2z2tZV9HEGkfIJGbg9sCa5MKRmz9il57WzHpRqv7ToE1XyVFes6eybeU3CuYmt9GJg2VRCGp4L_QoKx-2coQ_Gtndbf59wU2QcyNacFJQre40bKbSXl9VdDqcc5rl9liglZmj0gWyZTIpNtePHXr2B7LWzXYBzjo0Ye20JH_P3WncX_UWOMlo-rnJpyq74hFOgQnrwjvSPn6IzUHjE1yOdh8QrVCBWRrfEwxORO5N0jvvn1QYxBp268NCiLBmJbhR75AueFAl7bejLvB5d83KmHXfEx2rVX6lDpCCWvmuomELDhQVEzJHPpSQ3_K5WuxGyrQUFJv5dEevyaeXZfsCZQbUH_1cX4ddCcOo_zqlrEINR971t-ZgNtd9mzQV_8cTZEhY5qMwxBS87V1J1d_Hy0]--></g></svg>