<svg xmlns="http://www.w3.org/2000/svg" xmlns:xlink="http://www.w3.org/1999/xlink" contentStyleType="text/css" data-diagram-type="SEQUENCE" height="856px" preserveAspectRatio="none" style="width:1491px;height:856px;background:#FFFFFF;" version="1.1" viewBox="0 0 1491 856" width="1491px" zoomAndPan="magnify"><title>HT1 &#8212; HighResSteadyTime: Time Polling</title><defs/><g><text fill="#000000" font-family="sans-serif" font-size="14" font-weight="bold" lengthAdjust="spacing" textLength="321.207" x="586.3857" y="27.9951">HT1 &#8212; HighResSteadyTime: Time Polling</text><rect fill="#E6F0FF" height="680.0547" style="stroke:#181818;stroke-width:0.5;" width="100.2236" x="1" y="163.7813"/><text fill="#000000" font-family="sans-serif" font-size="13" font-weight="bold" lengthAdjust="spacing" textLength="82.9194" x="9.6521" y="175.8481">Application</text><rect fill="#F0FFF0" height="680.0547" style="stroke:#181818;stroke-width:0.5;" width="507.2661" x="421.3188" y="163.7813"/><text fill="#000000" font-family="sans-serif" font-size="13" font-weight="bold" lengthAdjust="spacing" textLength="83.0337" x="633.4351" y="175.8481">score::time</text><rect fill="#FFF8F0" height="680.0547" style="stroke:#181818;stroke-width:0.5;" width="196.3027" x="1102.4146" y="163.7813"/><text fill="#000000" font-family="sans-serif" font-size="13" font-weight="bold" lengthAdjust="spacing" textLength="190.3027" x="1105.4146" y="175.8481">OS API (platform-specific)</text><g><title>HighResSteadyClock</title><rect fill="#FFFFFF" height="71.2656" style="stroke:#181818;stroke-width:1;" width="10" x="499.6123" y="261.6406"/></g><g><title>HighResSteadyClock</title><rect fill="#FFFFFF" height="377.3984" style="stroke:#181818;stroke-width:1;" width="10" x="499.6123" y="412.3047"/></g><g><title>HighResSteadyClockBackend</title><rect fill="#FFFFFF" height="319.1328" style="stroke:#181818;stroke-width:1;" width="10" x="810.1108" y="441.4375"/></g><g><title>OS API</title><rect fill="#FFFFFF" height="79.3984" style="stroke:#181818;stroke-width:1;" width="10" x="1195.5659" y="494.7031"/></g><g><title>OS API</title><rect fill="#FFFFFF" height="64.2656" style="stroke:#181818;stroke-width:1;" width="10" x="1195.5659" y="618.0391"/></g><rect fill="transparent" height="233.8672" style="stroke:#000000;stroke-width:1.5;" width="789.3418" x="695.6367" y="456.4375"/><g><title>Application</title><rect fill="transparent" height="619.3281" width="8" x="47.1118" y="230.5078"/><line style="stroke:#181818;stroke-width:0.5;stroke-dasharray:5.0,5.0;" x1="51" x2="51" y1="230.5078" y2="849.8359"/></g><g><title>HighResSteadyClock</title><rect fill="transparent" height="619.3281" width="8" x="500.6123" y="230.5078"/><line style="stroke:#181818;stroke-width:0.5;stroke-dasharray:5.0,5.0;" x1="504.3188" x2="504.3188" y1="230.5078" y2="849.8359"/></g><g><title>HighResSteadyClockBackend</title><rect fill="transparent" height="619.3281" width="8" x="811.1108" y="230.5078"/><line style="stroke:#181818;stroke-width:0.5;stroke-dasharray:5.0,5.0;" x1="814.6367" x2="814.6367" y1="230.5078" y2="849.8359"/></g><g><title>OS API</title><rect fill="transparent" height="619.3281" width="8" x="1196.5659" y="230.5078"/><line style="stroke:#181818;stroke-width:0.5;stroke-dasharray:5.0,5.0;" x1="1200.3135" x2="1200.3135" y1="230.5078" y2="849.8359"/></g><rect fill="#FFA07A" height="46.5938" rx="2.5" ry="2.5" style="stroke:#181818;stroke-width:0.5;" width="92.2236" x="5" y="182.9141"/><text fill="#000000" font-family="sans-serif" font-size="14" lengthAdjust="spacing" textLength="78.2236" x="12" y="202.9092">Application</text><text fill="#000000" font-family="sans-serif" font-size="14" lengthAdjust="spacing" textLength="33.7627" x="34.2305" y="219.2061">code</text><rect fill="#90EE90" height="30.2969" rx="2.5" ry="2.5" style="stroke:#181818;stroke-width:0.5;" width="158.5869" x="425.3188" y="199.2109"/><text fill="#000000" font-family="sans-serif" font-size="14" lengthAdjust="spacing" textLength="144.5869" x="432.3188" y="219.2061">HighResSteadyClock</text><rect fill="#F08080" height="30.2969" rx="2.5" ry="2.5" style="stroke:#181818;stroke-width:0.5;" width="218.9482" x="705.6367" y="199.2109"/><text fill="#000000" font-family="sans-serif" font-size="14" lengthAdjust="spacing" textLength="204.9482" x="712.6367" y="219.2061">HighResSteadyClockBackend</text><rect fill="#FFDEAD" height="30.2969" rx="2.5" ry="2.5" style="stroke:#181818;stroke-width:0.5;" width="60.5049" x="1170.3135" y="199.2109"/><text fill="#000000" font-family="sans-serif" font-size="14" lengthAdjust="spacing" textLength="46.5049" x="1177.3135" y="219.2061">OS API</text><g><title>HighResSteadyClock</title><rect fill="#FFFFFF" height="71.2656" style="stroke:#181818;stroke-width:1;" width="10" x="499.6123" y="261.6406"/></g><g><title>HighResSteadyClock</title><rect fill="#FFFFFF" height="377.3984" style="stroke:#181818;stroke-width:1;" width="10" x="499.6123" y="412.3047"/></g><g><title>HighResSteadyClockBackend</title><rect fill="#FFFFFF" height="319.1328" style="stroke:#181818;stroke-width:1;" width="10" x="810.1108" y="441.4375"/></g><g><title>OS API</title><rect fill="#FFFFFF" height="79.3984" style="stroke:#181818;stroke-width:1;" width="10" x="1195.5659" y="494.7031"/></g><g><title>OS API</title><rect fill="#FFFFFF" height="64.2656" style="stroke:#181818;stroke-width:1;" width="10" x="1195.5659" y="618.0391"/></g><polygon fill="#181818" points="487.6123,257.6406,497.6123,261.6406,487.6123,265.6406,491.6123,261.6406" style="stroke:#181818;stroke-width:1;"/><line style="stroke:#181818;stroke-width:1;" x1="51.1118" x2="493.6123" y1="261.6406" y2="261.6406"/><text fill="#000080" font-family="sans-serif" font-size="13" font-weight="bold" lengthAdjust="spacing" textLength="29.9736" x="58.1118" y="256.5747">[01]</text><text fill="#000000" font-family="sans-serif" font-size="13" lengthAdjust="spacing" textLength="231.626" x="92.0854" y="256.5747">HighResSteadyClock::GetInstance()</text><line style="stroke:#181818;stroke-width:1;" x1="509.6123" x2="551.6123" y1="290.7734" y2="290.7734"/><line style="stroke:#181818;stroke-width:1;" x1="551.6123" x2="551.6123" y1="290.7734" y2="303.7734"/><line style="stroke:#181818;stroke-width:1;" x1="510.6123" x2="551.6123" y1="303.7734" y2="303.7734"/><polygon fill="#181818" points="520.6123,299.7734,510.6123,303.7734,520.6123,307.7734,516.6123,303.7734" style="stroke:#181818;stroke-width:1;"/><text fill="#000080" font-family="sans-serif" font-size="13" font-weight="bold" lengthAdjust="spacing" textLength="29.9736" x="516.6123" y="285.7075">[02]</text><text fill="#000000" font-family="sans-serif" font-size="13" lengthAdjust="spacing" textLength="147.5322" x="550.5859" y="285.7075">check cache / override</text><polygon fill="#181818" points="62.1118,328.9063,52.1118,332.9063,62.1118,336.9063,58.1118,332.9063" style="stroke:#181818;stroke-width:1;"/><line style="stroke:#181818;stroke-width:1;stroke-dasharray:2.0,2.0;" x1="56.1118" x2="503.6123" y1="332.9063" y2="332.9063"/><text fill="#000080" font-family="sans-serif" font-size="13" font-weight="bold" lengthAdjust="spacing" textLength="29.9736" x="68.1118" y="327.8403">[03]</text><text fill="#000000" font-family="sans-serif" font-size="13" lengthAdjust="spacing" textLength="236.6978" x="102.0854" y="327.8403">Clock&lt;HighResSteadyTime&gt; handle</text><path d="M56,345.9063 L56,385.9063 L316,385.9063 L316,355.9063 L306,345.9063 L56,345.9063 " fill="#FEFFDD" style="stroke:#181818;stroke-width:0.5;"/><path d="M306,345.9063 L306,355.9063 L316,355.9063 L306,345.9063 " fill="#FEFFDD" style="stroke:#181818;stroke-width:0.5;"/><text fill="#000000" font-family="sans-serif" font-size="13" lengthAdjust="spacing" textLength="129.0415" x="62" y="362.9731">No Init() required &#8212;</text><text fill="#000000" font-family="sans-serif" font-size="13" lengthAdjust="spacing" textLength="239.9668" x="62" y="378.106">HighResSteadyTime is always ready.</text><polygon fill="#181818" points="487.6123,408.3047,497.6123,412.3047,487.6123,416.3047,491.6123,412.3047" style="stroke:#181818;stroke-width:1;"/><line style="stroke:#181818;stroke-width:1;" x1="51.1118" x2="493.6123" y1="412.3047" y2="412.3047"/><text fill="#000080" font-family="sans-serif" font-size="13" font-weight="bold" lengthAdjust="spacing" textLength="29.9736" x="58.1118" y="407.2388">[04]</text><text fill="#000000" font-family="sans-serif" font-size="13" lengthAdjust="spacing" textLength="38.4541" x="92.0854" y="407.2388">Now()</text><polygon fill="#181818" points="798.1108,437.4375,808.1108,441.4375,798.1108,445.4375,802.1108,441.4375" style="stroke:#181818;stroke-width:1;"/><line style="stroke:#181818;stroke-width:1;" x1="509.6123" x2="804.1108" y1="441.4375" y2="441.4375"/><text fill="#000080" font-family="sans-serif" font-size="13" font-weight="bold" lengthAdjust="spacing" textLength="29.9736" x="516.6123" y="436.3716">[05]</text><text fill="#000000" font-family="sans-serif" font-size="13" lengthAdjust="spacing" textLength="38.4541" x="550.5859" y="436.3716">Now()</text><path d="M695.6367,456.4375 L760.0796,456.4375 L760.0796,463.5703 L750.0796,473.5703 L695.6367,473.5703 L695.6367,456.4375 " fill="#EEEEEE" style="stroke:#000000;stroke-width:1.5;"/><rect fill="transparent" height="233.8672" style="stroke:#000000;stroke-width:1.5;" width="789.3418" x="695.6367" y="456.4375"/><text fill="#000000" font-family="sans-serif" font-size="13" font-weight="bold" lengthAdjust="spacing" textLength="19.4429" x="710.6367" y="469.5044">alt</text><text fill="#000000" font-family="sans-serif" font-size="11" font-weight="bold" lengthAdjust="spacing" textLength="37.0928" x="775.0796" y="468.6479">[QNX]</text><polygon fill="#181818" points="1183.5659,490.7031,1193.5659,494.7031,1183.5659,498.7031,1187.5659,494.7031" style="stroke:#181818;stroke-width:1;"/><line style="stroke:#181818;stroke-width:1;" x1="820.1108" x2="1189.5659" y1="494.7031" y2="494.7031"/><text fill="#000080" font-family="sans-serif" font-size="13" font-weight="bold" lengthAdjust="spacing" textLength="29.9736" x="827.1108" y="489.6372">[06]</text><text fill="#000000" font-family="sans-serif" font-size="13" lengthAdjust="spacing" textLength="87.7627" x="861.0845" y="489.6372">ClockCycles()</text><path d="M1210,507.7031 L1210,547.7031 L1474,547.7031 L1474,517.7031 L1464,507.7031 L1210,507.7031 " fill="#FEFFDD" style="stroke:#181818;stroke-width:0.5;"/><path d="M1464,507.7031 L1464,517.7031 L1474,517.7031 L1464,507.7031 " fill="#FEFFDD" style="stroke:#181818;stroke-width:0.5;"/><text fill="#000000" font-family="sans-serif" font-size="13" lengthAdjust="spacing" textLength="243.9785" x="1216" y="524.77">reads hardware performance counter</text><text fill="#000000" font-family="sans-serif" font-size="13" lengthAdjust="spacing" textLength="143.1904" x="1216" y="539.9028">(raw CPU cycle count)</text><polygon fill="#181818" points="831.1108,570.1016,821.1108,574.1016,831.1108,578.1016,827.1108,574.1016" style="stroke:#181818;stroke-width:1;"/><line style="stroke:#181818;stroke-width:1;stroke-dasharray:2.0,2.0;" x1="825.1108" x2="1199.5659" y1="574.1016" y2="574.1016"/><text fill="#000080" font-family="sans-serif" font-size="13" font-weight="bold" lengthAdjust="spacing" textLength="29.9736" x="837.1108" y="569.0356">[07]</text><text fill="#000000" font-family="sans-serif" font-size="13" lengthAdjust="spacing" textLength="144.3774" x="871.0845" y="569.0356">cycle_count (uint64_t)</text><line style="stroke:#000000;stroke-width:1;stroke-dasharray:2.0,2.0;" x1="695.6367" x2="1484.9785" y1="583.1016" y2="583.1016"/><text fill="#000000" font-family="sans-serif" font-size="11" font-weight="bold" lengthAdjust="spacing" textLength="43.5918" x="700.6367" y="593.312">[Linux]</text><polygon fill="#181818" points="1183.5659,614.0391,1193.5659,618.0391,1183.5659,622.0391,1187.5659,618.0391" style="stroke:#181818;stroke-width:1;"/><line style="stroke:#181818;stroke-width:1;" x1="820.1108" x2="1189.5659" y1="618.0391" y2="618.0391"/><text fill="#000080" font-family="sans-serif" font-size="13" font-weight="bold" lengthAdjust="spacing" textLength="29.9736" x="827.1108" y="612.9731">[08]</text><text fill="#000000" font-family="sans-serif" font-size="13" lengthAdjust="spacing" textLength="185.2817" x="861.0845" y="612.9731">high_resolution_clock::now()</text><path d="M1210,631.0391 L1210,656.0391 L1449,656.0391 L1449,641.0391 L1439,631.0391 L1210,631.0391 " fill="#FEFFDD" style="stroke:#181818;stroke-width:0.5;"/><path d="M1439,631.0391 L1439,641.0391 L1449,641.0391 L1439,631.0391 " fill="#FEFFDD" style="stroke:#181818;stroke-width:0.5;"/><text fill="#000000" font-family="sans-serif" font-size="13" lengthAdjust="spacing" textLength="218.1309" x="1216" y="648.106">delegates to CLOCK_MONOTONIC</text><polygon fill="#181818" points="831.1108,678.3047,821.1108,682.3047,831.1108,686.3047,827.1108,682.3047" style="stroke:#181818;stroke-width:1;"/><line style="stroke:#181818;stroke-width:1;stroke-dasharray:2.0,2.0;" x1="825.1108" x2="1199.5659" y1="682.3047" y2="682.3047"/><text fill="#000080" font-family="sans-serif" font-size="13" font-weight="bold" lengthAdjust="spacing" textLength="29.9736" x="837.1108" y="677.2388">[09]</text><text fill="#000000" font-family="sans-serif" font-size="13" lengthAdjust="spacing" textLength="69.0244" x="871.0845" y="677.2388">time_point</text><line style="stroke:#181818;stroke-width:1;" x1="820.1108" x2="862.1108" y1="718.4375" y2="718.4375"/><line style="stroke:#181818;stroke-width:1;" x1="862.1108" x2="862.1108" y1="718.4375" y2="731.4375"/><line style="stroke:#181818;stroke-width:1;" x1="821.1108" x2="862.1108" y1="731.4375" y2="731.4375"/><polygon fill="#181818" points="831.1108,727.4375,821.1108,731.4375,831.1108,735.4375,827.1108,731.4375" style="stroke:#181818;stroke-width:1;"/><text fill="#000080" font-family="sans-serif" font-size="13" font-weight="bold" lengthAdjust="spacing" textLength="29.9736" x="827.1108" y="713.3716">[10]</text><text fill="#000000" font-family="sans-serif" font-size="13" lengthAdjust="spacing" textLength="253.5825" x="861.0845" y="713.3716">cast to HighResSteadyTime::Timepoint</text><polygon fill="#181818" points="520.6123,756.5703,510.6123,760.5703,520.6123,764.5703,516.6123,760.5703" style="stroke:#181818;stroke-width:1;"/><line style="stroke:#181818;stroke-width:1;stroke-dasharray:2.0,2.0;" x1="514.6123" x2="814.1108" y1="760.5703" y2="760.5703"/><text fill="#000080" font-family="sans-serif" font-size="13" font-weight="bold" lengthAdjust="spacing" textLength="29.9736" x="526.6123" y="755.5044">[11]</text><text fill="#000000" font-family="sans-serif" font-size="13" lengthAdjust="spacing" textLength="242.5249" x="560.5859" y="755.5044">ClockSnapshot{timepoint, NoStatus}</text><polygon fill="#181818" points="62.1118,785.7031,52.1118,789.7031,62.1118,793.7031,58.1118,789.7031" style="stroke:#181818;stroke-width:1;"/><line style="stroke:#181818;stroke-width:1;stroke-dasharray:2.0,2.0;" x1="56.1118" x2="503.6123" y1="789.7031" y2="789.7031"/><text fill="#000080" font-family="sans-serif" font-size="13" font-weight="bold" lengthAdjust="spacing" textLength="29.9736" x="68.1118" y="784.6372">[12]</text><text fill="#000000" font-family="sans-serif" font-size="13" lengthAdjust="spacing" textLength="390.5269" x="102.0854" y="784.6372">ClockSnapshot&lt;HighResSteadyTime::Timepoint, NoStatus&gt;</text><line style="stroke:#181818;stroke-width:1;" x1="51.1118" x2="93.1118" y1="818.8359" y2="818.8359"/><line style="stroke:#181818;stroke-width:1;" x1="93.1118" x2="93.1118" y1="818.8359" y2="831.8359"/><line style="stroke:#181818;stroke-width:1;" x1="52.1118" x2="93.1118" y1="831.8359" y2="831.8359"/><polygon fill="#181818" points="62.1118,827.8359,52.1118,831.8359,62.1118,835.8359,58.1118,831.8359" style="stroke:#181818;stroke-width:1;"/><text fill="#000080" font-family="sans-serif" font-size="13" font-weight="bold" lengthAdjust="spacing" textLength="29.9736" x="58.1118" y="813.77">[13]</text><text fill="#000000" font-family="sans-serif" font-size="13" lengthAdjust="spacing" textLength="138.5249" x="92.0854" y="813.77">snapshot.TimePoint()</text><rect fill="transparent" height="95.4844" id="_legend" rx="7.5" ry="7.5" style="stroke:#000000;stroke-width:1;" width="387.9385" x="12" y="54.2969"/><text fill="#000000" font-family="sans-serif" font-size="14" font-weight="bold" lengthAdjust="spacing" textLength="41.2139" x="21.874" y="74.292">Color</text><text fill="#000000" font-family="sans-serif" font-size="14" font-weight="bold" lengthAdjust="spacing" textLength="90.5488" x="141.0723" y="74.292">Description</text><rect fill="#FFA07A" height="16.2969" style="stroke:transparent;stroke-width:1;" width="119.1982" x="17" y="77.5938"/><text fill="#000000" font-family="sans-serif" font-size="14" lengthAdjust="spacing" textLength="35.6016" x="17" y="90.5889">&#160;&#160;&#160;&#160;&#160;&#160;&#160;&#160;</text><text fill="#000000" font-family="sans-serif" font-size="14" lengthAdjust="spacing" textLength="116.4365" x="140.6484" y="90.5889">Application code</text><rect fill="#90EE90" height="16.2969" style="stroke:transparent;stroke-width:1;" width="119.1982" x="17" y="93.8906"/><text fill="#000000" font-family="sans-serif" font-size="14" lengthAdjust="spacing" textLength="40.0518" x="17" y="106.8857">&#160;&#160;&#160;&#160;&#160;&#160;&#160;&#160;&#160;</text><text fill="#000000" font-family="sans-serif" font-size="14" lengthAdjust="spacing" textLength="158.833" x="140.6484" y="106.8857">score::time framework</text><rect fill="#F08080" height="16.2969" style="stroke:transparent;stroke-width:1;" width="119.1982" x="17" y="110.1875"/><text fill="#000000" font-family="sans-serif" font-size="14" lengthAdjust="spacing" textLength="40.0518" x="17" y="123.1826">&#160;&#160;&#160;&#160;&#160;&#160;&#160;&#160;&#160;</text><text fill="#000000" font-family="sans-serif" font-size="14" lengthAdjust="spacing" textLength="205.3379" x="140.6484" y="123.1826">HighResSteadyTime backend</text><rect fill="#FFDEAD" height="16.2969" style="stroke:transparent;stroke-width:1;" width="119.1982" x="17" y="126.4844"/><text fill="#000000" font-family="sans-serif" font-size="14" lengthAdjust="spacing" textLength="35.6016" x="17" y="139.4795">&#160;&#160;&#160;&#160;&#160;&#160;&#160;&#160;</text><text fill="#000000" font-family="sans-serif" font-size="14" lengthAdjust="spacing" textLength="179.5596" x="140.6484" y="139.4795">OS API (platform-specific)</text><line style="stroke:#000000;stroke-width:1;" x1="17" x2="394.9385" y1="61.2969" y2="61.2969"/><line style="stroke:#000000;stroke-width:1;" x1="17" x2="394.9385" y1="77.5938" y2="77.5938"/><line style="stroke:#000000;stroke-width:1;" x1="17" x2="394.9385" y1="93.8906" y2="93.8906"/><line style="stroke:#000000;stroke-width:1;" x1="17" x2="394.9385" y1="110.1875" y2="110.1875"/><line style="stroke:#000000;stroke-width:1;" x1="17" x2="394.9385" y1="126.4844" y2="126.4844"/><line style="stroke:#000000;stroke-width:1;" x1="17" x2="394.9385" y1="142.7813" y2="142.7813"/><line style="stroke:#000000;stroke-width:1;" x1="17" x2="17" y1="61.2969" y2="142.7813"/><line style="stroke:#000000;stroke-width:1;" x1="136.1982" x2="136.1982" y1="61.2969" y2="142.7813"/><line style="stroke:#000000;stroke-width:1;" x1="394.9385" x2="394.9385" y1="61.2969" y2="142.7813"/><!--SRC=[bLNRRjD047ttLupIbrIY9KYeGbOQgHYfZIX9Ief00XHjrkDaoMRNxAwJHe34H_25V0cpwroSEgsA7tpREMVdd9cndN0IuUhs1Vpz_GUkn6Jw7ktG8KjNjsAECVWp3BIKGasYoCw4ofbXSnWpFfiONQWqqL8RM4w5msWgKeHCQpVMTn4hd5R5V8m66krCAmVSXvuhjbXrskFEvrRhQoEA94vGfU1q3X8p5m4TFy-XfDq_wFKRjDo8t0cjxY-MoFRHDQbmGoRdMdMsYt2Hvr9m5e1SKveF8IyDuWv8ICkrmJXstecCjEDIczaXPA8DarLapSzWcrTxOFCUMx1l-gFtiP9sVmWNWouqSybSfitynER8HIRuCI69gNGlYiXmQ5GqDk08px9MbWLwgfaJNEICYb2D-gAy5GrW5bYUGzKwJmw-Z2LrnGIYziHPgqwz9pYHciy2D_TtKB7tASZNfLM1O6DRnUTx-JtiaqytoruTIhS4XHsqXMe5TkpUbvFEMa8CzJpZ-19TLrd75CVcSSIu4mlci8H49R32mAT8Lyxe2iz1Bz0OcffD70Nw7MC8tErQ1tLWodpLenJlRHGfJVV66mGwyon1S4z3LmdNF0Q3tmjXCFMZ7fRgxIce3-IIhIm5qxlJO8FdhVdGqyj7j6xgLOjRBn2TT73J-nJos4GJaCgmbfwik4HBM1-nnMiRdlUbhb_wmwTjoIAJBfb1oD7uPl2LeQ4lb4Ep3MqQjeHay06utwbSBdVRYlOFbD79dg8GFWhXq2o4ScSlHsjWfIQK4qgBS2rKSNTGvPJI7ncqMXP-54UyR2OL3FilqIdILu02BNr48Rdk9sz7x_gz_cs_rqsU8CZFz2ZNfEIGYF1nsQLUyO5PvpUi_pHYVou9jyXAwuJo3XNBxLIx7suJ-unwPUYOA-olQdDlEkRWV6nOseybiIFk79YQTL-Nf7RDT-h10m-cMlm3]--></g></svg>