<svg xmlns="http://www.w3.org/2000/svg" xmlns:xlink="http://www.w3.org/1999/xlink" contentStyleType="text/css" data-diagram-type="SEQUENCE" height="1491px" preserveAspectRatio="none" style="width:1642px;height:1491px;background:#FFFFFF;" version="1.1" viewBox="0 0 1642 1491" width="1642px" zoomAndPan="magnify"><title>VT3 &#8212; VehicleTime: Async PTP Protocol Data Subscription</title><defs/><g><text fill="#000000" font-family="sans-serif" font-size="14" font-weight="bold" lengthAdjust="spacing" textLength="459.1152" x="587.7751" y="27.9951">VT3 &#8212; VehicleTime: Async PTP Protocol Data Subscription</text><rect fill="#E6F0FF" height="1281.6406" style="stroke:#181818;stroke-width:0.5;" width="101.2012" x="1" y="196.375"/><text fill="#000000" font-family="sans-serif" font-size="13" font-weight="bold" lengthAdjust="spacing" textLength="82.9194" x="10.1409" y="208.4419">Application</text><rect fill="#F0FFF0" height="1281.6406" style="stroke:#181818;stroke-width:0.5;" width="497.1094" x="433.2461" y="196.375"/><text fill="#000000" font-family="sans-serif" font-size="13" font-weight="bold" lengthAdjust="spacing" textLength="83.0337" x="640.2839" y="208.4419">score::time</text><rect fill="#FFF8F0" height="1281.6406" style="stroke:#181818;stroke-width:0.5;" width="151.7993" x="1015.3765" y="196.375"/><text fill="#000000" font-family="sans-serif" font-size="13" font-weight="bold" lengthAdjust="spacing" textLength="145.7993" x="1018.3765" y="208.4419">score::TimeDaemon</text><rect fill="#FFFFF0" height="1281.6406" style="stroke:#181818;stroke-width:0.5;" width="135.5654" x="1277.8442" y="196.375"/><text fill="#000000" font-family="sans-serif" font-size="13" font-weight="bold" lengthAdjust="spacing" textLength="125.5693" x="1282.8423" y="208.4419">score::TimeSlave</text><rect fill="#F5F5F5" height="1281.6406" style="stroke:#181818;stroke-width:0.5;" width="104.5029" x="1530.1626" y="196.375"/><text fill="#000000" font-family="sans-serif" font-size="13" font-weight="bold" lengthAdjust="spacing" textLength="61.9087" x="1551.4597" y="208.4419">Network</text><g><title>Application</title><rect fill="#FFFFFF" height="30" style="stroke:#181818;stroke-width:1;" width="10" x="46.6006" y="796.3594"/></g><g><title>Application</title><rect fill="#FFFFFF" height="30" style="stroke:#181818;stroke-width:1;" width="10" x="46.6006" y="1109.5547"/></g><g><title>VehicleClock</title><rect fill="#FFFFFF" height="87.3984" style="stroke:#181818;stroke-width:1;" width="10" x="483.8403" y="337.3672"/></g><g><title>VehicleClock</title><rect fill="#FFFFFF" height="87.3984" style="stroke:#181818;stroke-width:1;" width="10" x="483.8403" y="453.8984"/></g><g><title>VehicleClock</title><rect fill="#FFFFFF" height="87.3984" style="stroke:#181818;stroke-width:1;" width="10" x="483.8403" y="1262.0859"/></g><g><title>VehicleClock</title><rect fill="#FFFFFF" height="87.3984" style="stroke:#181818;stroke-width:1;" width="10" x="483.8403" y="1378.6172"/></g><g><title>VehicleClockBackend</title><rect fill="#FFFFFF" height="29.1328" style="stroke:#181818;stroke-width:1;" width="10" x="839.5806" y="366.5"/></g><g><title>VehicleClockBackend</title><rect fill="#FFFFFF" height="29.1328" style="stroke:#181818;stroke-width:1;" width="10" x="839.5806" y="483.0313"/></g><g><title>VehicleClockBackend</title><rect fill="#FFFFFF" height="89.1328" style="stroke:#181818;stroke-width:1;" width="10" x="839.5806" y="737.2266"/></g><g><title>VehicleClockBackend</title><rect fill="#FFFFFF" height="89.1328" style="stroke:#181818;stroke-width:1;" width="10" x="839.5806" y="1050.4219"/></g><g><title>VehicleClockBackend</title><rect fill="#FFFFFF" height="29.1328" style="stroke:#181818;stroke-width:1;" width="10" x="839.5806" y="1291.2188"/></g><g><title>VehicleClockBackend</title><rect fill="#FFFFFF" height="29.1328" style="stroke:#181818;stroke-width:1;" width="10" x="839.5806" y="1407.75"/></g><g><title>TimeDaemon</title><rect fill="#FFFFFF" height="59.1328" style="stroke:#181818;stroke-width:1;" width="10" x="1086.2761" y="708.0938"/></g><g><title>TimeDaemon</title><rect fill="#FFFFFF" height="59.1328" style="stroke:#181818;stroke-width:1;" width="10" x="1086.2761" y="1021.2891"/></g><g><title>PTP TimeSlave</title><rect fill="#FFFFFF" height="153.6641" style="stroke:#181818;stroke-width:1;" width="10" x="1340.627" y="613.5625"/></g><g><title>PTP TimeSlave</title><rect fill="#FFFFFF" height="108.3984" style="stroke:#181818;stroke-width:1;" width="10" x="1340.627" y="972.0234"/></g><g><title>Application</title><rect fill="transparent" height="1220.9141" width="8" x="47.6006" y="263.1016"/><line style="stroke:#181818;stroke-width:0.5;stroke-dasharray:5.0,5.0;" x1="51" x2="51" y1="263.1016" y2="1484.0156"/></g><g><title>VehicleClock</title><rect fill="transparent" height="1220.9141" width="8" x="484.8403" y="263.1016"/><line style="stroke:#181818;stroke-width:0.5;stroke-dasharray:5.0,5.0;" x1="488.2461" x2="488.2461" y1="263.1016" y2="1484.0156"/></g><g><title>VehicleClockBackend</title><rect fill="transparent" height="1220.9141" width="8" x="840.5806" y="263.1016"/><line style="stroke:#181818;stroke-width:0.5;stroke-dasharray:5.0,5.0;" x1="843.8057" x2="843.8057" y1="263.1016" y2="1484.0156"/></g><g><title>TimeDaemon</title><rect fill="transparent" height="1220.9141" width="8" x="1087.2761" y="263.1016"/><line style="stroke:#181818;stroke-width:0.5;stroke-dasharray:5.0,5.0;" x1="1090.4055" x2="1090.4055" y1="263.1016" y2="1484.0156"/></g><g><title>PTP TimeSlave</title><rect fill="transparent" height="1220.9141" width="8" x="1341.627" y="263.1016"/><line style="stroke:#181818;stroke-width:0.5;stroke-dasharray:5.0,5.0;" x1="1344.8442" x2="1344.8442" y1="263.1016" y2="1484.0156"/></g><g><title>PTP</title><rect fill="transparent" height="1220.9141" width="8" x="1578.4141" y="263.1016"/><line style="stroke:#181818;stroke-width:0.5;stroke-dasharray:5.0,5.0;" x1="1582.1626" x2="1582.1626" y1="263.1016" y2="1484.0156"/></g><rect fill="#FFA07A" height="46.5938" rx="2.5" ry="2.5" style="stroke:#181818;stroke-width:0.5;" width="93.2012" x="5" y="215.5078"/><text fill="#000000" font-family="sans-serif" font-size="14" lengthAdjust="spacing" textLength="78.2236" x="12.4888" y="235.5029">Application</text><text fill="#000000" font-family="sans-serif" font-size="14" lengthAdjust="spacing" textLength="79.2012" x="12" y="251.7998">component</text><rect fill="#90EE90" height="30.2969" rx="2.5" ry="2.5" style="stroke:#181818;stroke-width:0.5;" width="103.1885" x="437.2461" y="231.8047"/><text fill="#000000" font-family="sans-serif" font-size="14" lengthAdjust="spacing" textLength="89.1885" x="444.2461" y="251.7998">VehicleClock</text><rect fill="#F08080" height="30.2969" rx="2.5" ry="2.5" style="stroke:#181818;stroke-width:0.5;" width="163.5498" x="762.8057" y="231.8047"/><text fill="#000000" font-family="sans-serif" font-size="14" lengthAdjust="spacing" textLength="149.5498" x="769.8057" y="251.7998">VehicleClockBackend</text><rect fill="#FFDEAD" height="30.2969" rx="2.5" ry="2.5" style="stroke:#181818;stroke-width:0.5;" width="107.7412" x="1037.4055" y="231.8047"/><text fill="#000000" font-family="sans-serif" font-size="14" lengthAdjust="spacing" textLength="93.7412" x="1044.4055" y="251.7998">TimeDaemon</text><rect fill="#EEE8AA" height="46.5938" rx="2.5" ry="2.5" style="stroke:#181818;stroke-width:0.5;" width="127.5654" x="1281.8442" y="215.5078"/><text fill="#000000" font-family="sans-serif" font-size="14" lengthAdjust="spacing" textLength="102.833" x="1294.2104" y="235.5029">PTP TimeSlave</text><text fill="#000000" font-family="sans-serif" font-size="14" lengthAdjust="spacing" textLength="113.5654" x="1288.8442" y="251.7998">(qgptp daemon)</text><rect fill="#D3D3D3" height="46.5938" rx="2.5" ry="2.5" style="stroke:#181818;stroke-width:0.5;" width="96.5029" x="1534.1626" y="215.5078"/><text fill="#000000" font-family="sans-serif" font-size="14" lengthAdjust="spacing" textLength="25.4365" x="1569.6958" y="235.5029">PTP</text><text fill="#000000" font-family="sans-serif" font-size="14" lengthAdjust="spacing" textLength="82.5029" x="1541.1626" y="251.7998">TimeMaster</text><g><title>Application</title><rect fill="#FFFFFF" height="30" style="stroke:#181818;stroke-width:1;" width="10" x="46.6006" y="796.3594"/></g><g><title>Application</title><rect fill="#FFFFFF" height="30" style="stroke:#181818;stroke-width:1;" width="10" x="46.6006" y="1109.5547"/></g><g><title>VehicleClock</title><rect fill="#FFFFFF" height="87.3984" style="stroke:#181818;stroke-width:1;" width="10" x="483.8403" y="337.3672"/></g><g><title>VehicleClock</title><rect fill="#FFFFFF" height="87.3984" style="stroke:#181818;stroke-width:1;" width="10" x="483.8403" y="453.8984"/></g><g><title>VehicleClock</title><rect fill="#FFFFFF" height="87.3984" style="stroke:#181818;stroke-width:1;" width="10" x="483.8403" y="1262.0859"/></g><g><title>VehicleClock</title><rect fill="#FFFFFF" height="87.3984" style="stroke:#181818;stroke-width:1;" width="10" x="483.8403" y="1378.6172"/></g><g><title>VehicleClockBackend</title><rect fill="#FFFFFF" height="29.1328" style="stroke:#181818;stroke-width:1;" width="10" x="839.5806" y="366.5"/></g><g><title>VehicleClockBackend</title><rect fill="#FFFFFF" height="29.1328" style="stroke:#181818;stroke-width:1;" width="10" x="839.5806" y="483.0313"/></g><g><title>VehicleClockBackend</title><rect fill="#FFFFFF" height="89.1328" style="stroke:#181818;stroke-width:1;" width="10" x="839.5806" y="737.2266"/></g><g><title>VehicleClockBackend</title><rect fill="#FFFFFF" height="89.1328" style="stroke:#181818;stroke-width:1;" width="10" x="839.5806" y="1050.4219"/></g><g><title>VehicleClockBackend</title><rect fill="#FFFFFF" height="29.1328" style="stroke:#181818;stroke-width:1;" width="10" x="839.5806" y="1291.2188"/></g><g><title>VehicleClockBackend</title><rect fill="#FFFFFF" height="29.1328" style="stroke:#181818;stroke-width:1;" width="10" x="839.5806" y="1407.75"/></g><g><title>TimeDaemon</title><rect fill="#FFFFFF" height="59.1328" style="stroke:#181818;stroke-width:1;" width="10" x="1086.2761" y="708.0938"/></g><g><title>TimeDaemon</title><rect fill="#FFFFFF" height="59.1328" style="stroke:#181818;stroke-width:1;" width="10" x="1086.2761" y="1021.2891"/></g><g><title>PTP TimeSlave</title><rect fill="#FFFFFF" height="153.6641" style="stroke:#181818;stroke-width:1;" width="10" x="1340.627" y="613.5625"/></g><g><title>PTP TimeSlave</title><rect fill="#FFFFFF" height="108.3984" style="stroke:#181818;stroke-width:1;" width="10" x="1340.627" y="972.0234"/></g><rect fill="#EEEEEE" height="3" style="stroke:#EEEEEE;stroke-width:1;" width="1635.6655" x="0" y="293.668"/><line style="stroke:#000000;stroke-width:1;" x1="0" x2="1635.6655" y1="293.668" y2="293.668"/><line style="stroke:#000000;stroke-width:1;" x1="0" x2="1635.6655" y1="296.668" y2="296.668"/><rect fill="#EEEEEE" height="23.1328" style="stroke:#000000;stroke-width:2;" width="240.0337" x="697.8159" y="283.1016"/><text fill="#000000" font-family="sans-serif" font-size="13" font-weight="bold" lengthAdjust="spacing" textLength="221.5078" x="703.8159" y="299.1685">Register callbacks once at init</text><polygon fill="#181818" points="471.8403,333.3672,481.8403,337.3672,471.8403,341.3672,475.8403,337.3672" style="stroke:#181818;stroke-width:1;"/><line style="stroke:#181818;stroke-width:1;" x1="51.6006" x2="477.8403" y1="337.3672" y2="337.3672"/><text fill="#000080" font-family="sans-serif" font-size="13" font-weight="bold" lengthAdjust="spacing" textLength="29.9736" x="58.6006" y="332.3013">[01]</text><text fill="#000000" font-family="sans-serif" font-size="13" lengthAdjust="spacing" textLength="342.8052" x="92.5742" y="332.3013">Subscribe&lt;TimeSlaveSyncData&lt;VehicleTime&gt;&gt;(cb)</text><polygon fill="#181818" points="827.5806,362.5,837.5806,366.5,827.5806,370.5,831.5806,366.5" style="stroke:#181818;stroke-width:1;"/><line style="stroke:#181818;stroke-width:1;" x1="493.8403" x2="833.5806" y1="366.5" y2="366.5"/><text fill="#000080" font-family="sans-serif" font-size="13" font-weight="bold" lengthAdjust="spacing" textLength="29.9736" x="500.8403" y="361.4341">[02]</text><text fill="#000000" font-family="sans-serif" font-size="13" lengthAdjust="spacing" textLength="291.8906" x="534.814" y="361.4341">SetTimeSlaveSyncDataReceivedCallback(cb)</text><polygon fill="#181818" points="504.8403,391.6328,494.8403,395.6328,504.8403,399.6328,500.8403,395.6328" style="stroke:#181818;stroke-width:1;"/><line style="stroke:#181818;stroke-width:1;stroke-dasharray:2.0,2.0;" x1="498.8403" x2="843.5806" y1="395.6328" y2="395.6328"/><text fill="#000080" font-family="sans-serif" font-size="13" font-weight="bold" lengthAdjust="spacing" textLength="29.9736" x="510.8403" y="390.5669">[03]</text><text fill="#000000" font-family="sans-serif" font-size="13" lengthAdjust="spacing" textLength="4.1323" x="544.814" y="390.5669">&#160;</text><polygon fill="#181818" points="62.6006,420.7656,52.6006,424.7656,62.6006,428.7656,58.6006,424.7656" style="stroke:#181818;stroke-width:1;"/><line style="stroke:#181818;stroke-width:1;stroke-dasharray:2.0,2.0;" x1="56.6006" x2="487.8403" y1="424.7656" y2="424.7656"/><text fill="#000080" font-family="sans-serif" font-size="13" font-weight="bold" lengthAdjust="spacing" textLength="29.9736" x="68.6006" y="419.6997">[04]</text><text fill="#000000" font-family="sans-serif" font-size="13" lengthAdjust="spacing" textLength="4.1323" x="102.5742" y="419.6997">&#160;</text><polygon fill="#181818" points="471.8403,449.8984,481.8403,453.8984,471.8403,457.8984,475.8403,453.8984" style="stroke:#181818;stroke-width:1;"/><line style="stroke:#181818;stroke-width:1;" x1="51.6006" x2="477.8403" y1="453.8984" y2="453.8984"/><text fill="#000080" font-family="sans-serif" font-size="13" font-weight="bold" lengthAdjust="spacing" textLength="29.9736" x="58.6006" y="448.8325">[05]</text><text fill="#000000" font-family="sans-serif" font-size="13" lengthAdjust="spacing" textLength="378.3901" x="92.5742" y="448.8325">Subscribe&lt;PDelayMeasurementData&lt;VehicleTime&gt;&gt;(cb)</text><polygon fill="#181818" points="827.5806,479.0313,837.5806,483.0313,827.5806,487.0313,831.5806,483.0313" style="stroke:#181818;stroke-width:1;"/><line style="stroke:#181818;stroke-width:1;" x1="493.8403" x2="833.5806" y1="483.0313" y2="483.0313"/><text fill="#000080" font-family="sans-serif" font-size="13" font-weight="bold" lengthAdjust="spacing" textLength="29.9736" x="500.8403" y="477.9653">[06]</text><text fill="#000000" font-family="sans-serif" font-size="13" lengthAdjust="spacing" textLength="290.9067" x="534.814" y="477.9653">SetPDelayMeasurementFinishedCallback(cb)</text><polygon fill="#181818" points="504.8403,508.1641,494.8403,512.1641,504.8403,516.1641,500.8403,512.1641" style="stroke:#181818;stroke-width:1;"/><line style="stroke:#181818;stroke-width:1;stroke-dasharray:2.0,2.0;" x1="498.8403" x2="843.5806" y1="512.1641" y2="512.1641"/><text fill="#000080" font-family="sans-serif" font-size="13" font-weight="bold" lengthAdjust="spacing" textLength="29.9736" x="510.8403" y="507.0981">[07]</text><text fill="#000000" font-family="sans-serif" font-size="13" lengthAdjust="spacing" textLength="4.1323" x="544.814" y="507.0981">&#160;</text><polygon fill="#181818" points="62.6006,537.2969,52.6006,541.2969,62.6006,545.2969,58.6006,541.2969" style="stroke:#181818;stroke-width:1;"/><line style="stroke:#181818;stroke-width:1;stroke-dasharray:2.0,2.0;" x1="56.6006" x2="487.8403" y1="541.2969" y2="541.2969"/><text fill="#000080" font-family="sans-serif" font-size="13" font-weight="bold" lengthAdjust="spacing" textLength="29.9736" x="68.6006" y="536.231">[08]</text><text fill="#000000" font-family="sans-serif" font-size="13" lengthAdjust="spacing" textLength="4.1323" x="102.5742" y="536.231">&#160;</text><rect fill="#EEEEEE" height="3" style="stroke:#EEEEEE;stroke-width:1;" width="1635.6655" x="0" y="569.8633"/><line style="stroke:#000000;stroke-width:1;" x1="0" x2="1635.6655" y1="569.8633" y2="569.8633"/><line style="stroke:#000000;stroke-width:1;" x1="0" x2="1635.6655" y1="572.8633" y2="572.8633"/><rect fill="#EEEEEE" height="23.1328" style="stroke:#000000;stroke-width:2;" width="339.4063" x="648.1296" y="559.2969"/><text fill="#000000" font-family="sans-serif" font-size="13" font-weight="bold" lengthAdjust="spacing" textLength="320.8804" x="654.1296" y="575.3638">Event: PTP Sync (called on backend thread)</text><polygon fill="#181818" points="1361.627,609.5625,1351.627,613.5625,1361.627,617.5625,1357.627,613.5625" style="stroke:#181818;stroke-width:1;"/><line style="stroke:#181818;stroke-width:1;" x1="1355.627" x2="1581.4141" y1="613.5625" y2="613.5625"/><text fill="#000080" font-family="sans-serif" font-size="13" font-weight="bold" lengthAdjust="spacing" textLength="29.9736" x="1367.627" y="608.4966">[09]</text><text fill="#000000" font-family="sans-serif" font-size="13" lengthAdjust="spacing" textLength="178.8135" x="1401.6006" y="608.4966">Sync / Follow_Up messages</text><path d="M1355,626.5625 L1355,666.5625 L1611,666.5625 L1611,636.5625 L1601,626.5625 L1355,626.5625 " fill="#FEFFDD" style="stroke:#181818;stroke-width:0.5;"/><path d="M1601,626.5625 L1601,636.5625 L1611,636.5625 L1601,626.5625 " fill="#FEFFDD" style="stroke:#181818;stroke-width:0.5;"/><text fill="#000000" font-family="sans-serif" font-size="13" lengthAdjust="spacing" textLength="205.6895" x="1361" y="643.6294">TimeSlave computes offset and</text><text fill="#000000" font-family="sans-serif" font-size="13" lengthAdjust="spacing" textLength="235.8408" x="1361" y="658.7622">rate correction from Sync messages</text><polygon fill="#181818" points="1107.2761,704.0938,1097.2761,708.0938,1107.2761,712.0938,1103.2761,708.0938" style="stroke:#181818;stroke-width:1;"/><line style="stroke:#181818;stroke-width:1;" x1="1101.2761" x2="1339.627" y1="708.0938" y2="708.0938"/><text fill="#000080" font-family="sans-serif" font-size="13" font-weight="bold" lengthAdjust="spacing" textLength="29.9736" x="1113.2761" y="695.4614">[10]</text><text fill="#000000" font-family="sans-serif" font-size="13" lengthAdjust="spacing" textLength="130.1079" x="1147.2498" y="687.895">TimeSlaveSyncData</text><text fill="#000000" font-family="sans-serif" font-size="13" lengthAdjust="spacing" textLength="173.3481" x="1147.2498" y="703.0278">{offset, rate, timestamps}</text><polygon fill="#181818" points="860.5806,733.2266,850.5806,737.2266,860.5806,741.2266,856.5806,737.2266" style="stroke:#181818;stroke-width:1;"/><line style="stroke:#181818;stroke-width:1;" x1="854.5806" x2="1085.2761" y1="737.2266" y2="737.2266"/><text fill="#000080" font-family="sans-serif" font-size="13" font-weight="bold" lengthAdjust="spacing" textLength="29.9736" x="866.5806" y="732.1606">[11]</text><text fill="#000000" font-family="sans-serif" font-size="13" lengthAdjust="spacing" textLength="130.1079" x="900.5542" y="732.1606">TimeSlaveSyncData</text><polygon fill="#181818" points="67.6006,792.3594,57.6006,796.3594,67.6006,800.3594,63.6006,796.3594" style="stroke:#181818;stroke-width:1;"/><line style="stroke:#181818;stroke-width:1;" x1="61.6006" x2="838.5806" y1="796.3594" y2="796.3594"/><text fill="#000080" font-family="sans-serif" font-size="13" font-weight="bold" lengthAdjust="spacing" textLength="29.9736" x="73.6006" y="791.2935">[12]</text><text fill="#000000" font-family="sans-serif" font-size="13" lengthAdjust="spacing" textLength="257.1499" x="107.5742" y="791.2935">cb(TimeSlaveSyncData&lt;VehicleTime&gt;)</text><path d="M56,839.3594 L56,879.3594 L266,879.3594 L266,849.3594 L256,839.3594 L56,839.3594 " fill="#FEFFDD" style="stroke:#181818;stroke-width:0.5;"/><path d="M256,839.3594 L256,849.3594 L266,849.3594 L256,839.3594 " fill="#FEFFDD" style="stroke:#181818;stroke-width:0.5;"/><text fill="#000000" font-family="sans-serif" font-size="13" lengthAdjust="spacing" textLength="182.5903" x="62" y="856.4263">called on backend thread &#8212;</text><text fill="#000000" font-family="sans-serif" font-size="13" lengthAdjust="spacing" textLength="189.5537" x="62" y="871.5591">callback must be thread-safe</text><rect fill="#EEEEEE" height="3" style="stroke:#EEEEEE;stroke-width:1;" width="1635.6655" x="0" y="905.1914"/><line style="stroke:#000000;stroke-width:1;" x1="0" x2="1635.6655" y1="905.1914" y2="905.1914"/><line style="stroke:#000000;stroke-width:1;" x1="0" x2="1635.6655" y1="908.1914" y2="908.1914"/><rect fill="#EEEEEE" height="23.1328" style="stroke:#000000;stroke-width:2;" width="456.6665" x="589.4995" y="894.625"/><text fill="#000000" font-family="sans-serif" font-size="13" font-weight="bold" lengthAdjust="spacing" textLength="438.1406" x="595.4995" y="910.6919">Event: Peer-delay measurement (called on backend thread)</text><line style="stroke:#181818;stroke-width:1;" x1="1345.627" x2="1392.627" y1="959.0234" y2="959.0234"/><line style="stroke:#181818;stroke-width:1;" x1="1392.627" x2="1392.627" y1="959.0234" y2="972.0234"/><line style="stroke:#181818;stroke-width:1;" x1="1351.627" x2="1392.627" y1="972.0234" y2="972.0234"/><polygon fill="#181818" points="1361.627,968.0234,1351.627,972.0234,1361.627,976.0234,1357.627,972.0234" style="stroke:#181818;stroke-width:1;"/><text fill="#000080" font-family="sans-serif" font-size="13" font-weight="bold" lengthAdjust="spacing" textLength="29.9736" x="1357.627" y="946.3911">[13]</text><text fill="#000000" font-family="sans-serif" font-size="13" lengthAdjust="spacing" textLength="169.7046" x="1391.6006" y="938.8247">Pdelay_Req / Pdelay_Resp</text><text fill="#000000" font-family="sans-serif" font-size="13" lengthAdjust="spacing" textLength="128.9717" x="1391.6006" y="953.9575">exchange with peer</text><polygon fill="#181818" points="1107.2761,1017.2891,1097.2761,1021.2891,1107.2761,1025.2891,1103.2761,1021.2891" style="stroke:#181818;stroke-width:1;"/><line style="stroke:#181818;stroke-width:1;" x1="1101.2761" x2="1339.627" y1="1021.2891" y2="1021.2891"/><text fill="#000080" font-family="sans-serif" font-size="13" font-weight="bold" lengthAdjust="spacing" textLength="29.9736" x="1113.2761" y="1008.6567">[14]</text><text fill="#000000" font-family="sans-serif" font-size="13" lengthAdjust="spacing" textLength="165.6929" x="1147.2498" y="1001.0903">PDelayMeasurementData</text><text fill="#000000" font-family="sans-serif" font-size="13" lengthAdjust="spacing" textLength="173.3164" x="1147.2498" y="1016.2231">{peer_delay, timestamps}</text><polygon fill="#181818" points="860.5806,1046.4219,850.5806,1050.4219,860.5806,1054.4219,856.5806,1050.4219" style="stroke:#181818;stroke-width:1;"/><line style="stroke:#181818;stroke-width:1;" x1="854.5806" x2="1085.2761" y1="1050.4219" y2="1050.4219"/><text fill="#000080" font-family="sans-serif" font-size="13" font-weight="bold" lengthAdjust="spacing" textLength="29.9736" x="866.5806" y="1045.356">[15]</text><text fill="#000000" font-family="sans-serif" font-size="13" lengthAdjust="spacing" textLength="165.6929" x="900.5542" y="1045.356">PDelayMeasurementData</text><polygon fill="#181818" points="67.6006,1105.5547,57.6006,1109.5547,67.6006,1113.5547,63.6006,1109.5547" style="stroke:#181818;stroke-width:1;"/><line style="stroke:#181818;stroke-width:1;" x1="61.6006" x2="838.5806" y1="1109.5547" y2="1109.5547"/><text fill="#000080" font-family="sans-serif" font-size="13" font-weight="bold" lengthAdjust="spacing" textLength="29.9736" x="73.6006" y="1104.4888">[16]</text><text fill="#000000" font-family="sans-serif" font-size="13" lengthAdjust="spacing" textLength="292.7349" x="107.5742" y="1104.4888">cb(PDelayMeasurementData&lt;VehicleTime&gt;)</text><path d="M56,1152.5547 L56,1192.5547 L266,1192.5547 L266,1162.5547 L256,1152.5547 L56,1152.5547 " fill="#FEFFDD" style="stroke:#181818;stroke-width:0.5;"/><path d="M256,1152.5547 L256,1162.5547 L266,1162.5547 L256,1152.5547 " fill="#FEFFDD" style="stroke:#181818;stroke-width:0.5;"/><text fill="#000000" font-family="sans-serif" font-size="13" lengthAdjust="spacing" textLength="182.5903" x="62" y="1169.6216">called on backend thread &#8212;</text><text fill="#000000" font-family="sans-serif" font-size="13" lengthAdjust="spacing" textLength="189.5537" x="62" y="1184.7544">callback must be thread-safe</text><rect fill="#EEEEEE" height="3" style="stroke:#EEEEEE;stroke-width:1;" width="1635.6655" x="0" y="1218.3867"/><line style="stroke:#000000;stroke-width:1;" x1="0" x2="1635.6655" y1="1218.3867" y2="1218.3867"/><line style="stroke:#000000;stroke-width:1;" x1="0" x2="1635.6655" y1="1221.3867" y2="1221.3867"/><rect fill="#EEEEEE" height="23.1328" style="stroke:#000000;stroke-width:2;" width="286.1875" x="674.739" y="1207.8203"/><text fill="#000000" font-family="sans-serif" font-size="13" font-weight="bold" lengthAdjust="spacing" textLength="267.6616" x="680.739" y="1223.8872">Unsubscribe when no longer needed</text><polygon fill="#181818" points="471.8403,1258.0859,481.8403,1262.0859,471.8403,1266.0859,475.8403,1262.0859" style="stroke:#181818;stroke-width:1;"/><line style="stroke:#181818;stroke-width:1;" x1="51.6006" x2="477.8403" y1="1262.0859" y2="1262.0859"/><text fill="#000080" font-family="sans-serif" font-size="13" font-weight="bold" lengthAdjust="spacing" textLength="29.9736" x="58.6006" y="1257.02">[17]</text><text fill="#000000" font-family="sans-serif" font-size="13" lengthAdjust="spacing" textLength="343.6812" x="92.5742" y="1257.02">Unsubscribe&lt;TimeSlaveSyncData&lt;VehicleTime&gt;&gt;()</text><polygon fill="#181818" points="827.5806,1287.2188,837.5806,1291.2188,827.5806,1295.2188,831.5806,1291.2188" style="stroke:#181818;stroke-width:1;"/><line style="stroke:#181818;stroke-width:1;" x1="493.8403" x2="833.5806" y1="1291.2188" y2="1291.2188"/><text fill="#000080" font-family="sans-serif" font-size="13" font-weight="bold" lengthAdjust="spacing" textLength="29.9736" x="500.8403" y="1286.1528">[18]</text><text fill="#000000" font-family="sans-serif" font-size="13" lengthAdjust="spacing" textLength="292.7666" x="534.814" y="1286.1528">UnsetTimeSlaveSyncDataReceivedCallback()</text><polygon fill="#181818" points="504.8403,1316.3516,494.8403,1320.3516,504.8403,1324.3516,500.8403,1320.3516" style="stroke:#181818;stroke-width:1;"/><line style="stroke:#181818;stroke-width:1;stroke-dasharray:2.0,2.0;" x1="498.8403" x2="843.5806" y1="1320.3516" y2="1320.3516"/><text fill="#000080" font-family="sans-serif" font-size="13" font-weight="bold" lengthAdjust="spacing" textLength="29.9736" x="510.8403" y="1315.2856">[19]</text><text fill="#000000" font-family="sans-serif" font-size="13" lengthAdjust="spacing" textLength="4.1323" x="544.814" y="1315.2856">&#160;</text><polygon fill="#181818" points="62.6006,1345.4844,52.6006,1349.4844,62.6006,1353.4844,58.6006,1349.4844" style="stroke:#181818;stroke-width:1;"/><line style="stroke:#181818;stroke-width:1;stroke-dasharray:2.0,2.0;" x1="56.6006" x2="487.8403" y1="1349.4844" y2="1349.4844"/><text fill="#000080" font-family="sans-serif" font-size="13" font-weight="bold" lengthAdjust="spacing" textLength="29.9736" x="68.6006" y="1344.4185">[20]</text><text fill="#000000" font-family="sans-serif" font-size="13" lengthAdjust="spacing" textLength="4.1323" x="102.5742" y="1344.4185">&#160;</text><polygon fill="#181818" points="471.8403,1374.6172,481.8403,1378.6172,471.8403,1382.6172,475.8403,1378.6172" style="stroke:#181818;stroke-width:1;"/><line style="stroke:#181818;stroke-width:1;" x1="51.6006" x2="477.8403" y1="1378.6172" y2="1378.6172"/><text fill="#000080" font-family="sans-serif" font-size="13" font-weight="bold" lengthAdjust="spacing" textLength="29.9736" x="58.6006" y="1373.5513">[21]</text><text fill="#000000" font-family="sans-serif" font-size="13" lengthAdjust="spacing" textLength="379.2661" x="92.5742" y="1373.5513">Unsubscribe&lt;PDelayMeasurementData&lt;VehicleTime&gt;&gt;()</text><polygon fill="#181818" points="827.5806,1403.75,837.5806,1407.75,827.5806,1411.75,831.5806,1407.75" style="stroke:#181818;stroke-width:1;"/><line style="stroke:#181818;stroke-width:1;" x1="493.8403" x2="833.5806" y1="1407.75" y2="1407.75"/><text fill="#000080" font-family="sans-serif" font-size="13" font-weight="bold" lengthAdjust="spacing" textLength="29.9736" x="500.8403" y="1402.6841">[22]</text><text fill="#000000" font-family="sans-serif" font-size="13" lengthAdjust="spacing" textLength="291.7827" x="534.814" y="1402.6841">UnsetPDelayMeasurementFinishedCallback()</text><polygon fill="#181818" points="504.8403,1432.8828,494.8403,1436.8828,504.8403,1440.8828,500.8403,1436.8828" style="stroke:#181818;stroke-width:1;"/><line style="stroke:#181818;stroke-width:1;stroke-dasharray:2.0,2.0;" x1="498.8403" x2="843.5806" y1="1436.8828" y2="1436.8828"/><text fill="#000080" font-family="sans-serif" font-size="13" font-weight="bold" lengthAdjust="spacing" textLength="29.9736" x="510.8403" y="1431.8169">[23]</text><text fill="#000000" font-family="sans-serif" font-size="13" lengthAdjust="spacing" textLength="4.1323" x="544.814" y="1431.8169">&#160;</text><polygon fill="#181818" points="62.6006,1462.0156,52.6006,1466.0156,62.6006,1470.0156,58.6006,1466.0156" style="stroke:#181818;stroke-width:1;"/><line style="stroke:#181818;stroke-width:1;stroke-dasharray:2.0,2.0;" x1="56.6006" x2="487.8403" y1="1466.0156" y2="1466.0156"/><text fill="#000080" font-family="sans-serif" font-size="13" font-weight="bold" lengthAdjust="spacing" textLength="29.9736" x="68.6006" y="1460.9497">[24]</text><text fill="#000000" font-family="sans-serif" font-size="13" lengthAdjust="spacing" textLength="4.1323" x="102.5742" y="1460.9497">&#160;</text><rect fill="transparent" height="128.0781" id="_legend" rx="7.5" ry="7.5" style="stroke:#000000;stroke-width:1;" width="314.8008" x="12" y="54.2969"/><text fill="#000000" font-family="sans-serif" font-size="14" font-weight="bold" lengthAdjust="spacing" textLength="41.2139" x="21.874" y="74.292">Color</text><text fill="#000000" font-family="sans-serif" font-size="14" font-weight="bold" lengthAdjust="spacing" textLength="90.5488" x="141.0723" y="74.292">Description</text><rect fill="#FFA07A" height="16.2969" style="stroke:transparent;stroke-width:1;" width="119.1982" x="17" y="77.5938"/><text fill="#000000" font-family="sans-serif" font-size="14" lengthAdjust="spacing" textLength="35.6016" x="17" y="90.5889">&#160;&#160;&#160;&#160;&#160;&#160;&#160;&#160;</text><text fill="#000000" font-family="sans-serif" font-size="14" lengthAdjust="spacing" textLength="116.4365" x="140.6484" y="90.5889">Application code</text><rect fill="#90EE90" height="16.2969" style="stroke:transparent;stroke-width:1;" width="119.1982" x="17" y="93.8906"/><text fill="#000000" font-family="sans-serif" font-size="14" lengthAdjust="spacing" textLength="40.0518" x="17" y="106.8857">&#160;&#160;&#160;&#160;&#160;&#160;&#160;&#160;&#160;</text><text fill="#000000" font-family="sans-serif" font-size="14" lengthAdjust="spacing" textLength="158.833" x="140.6484" y="106.8857">score::time framework</text><rect fill="#F08080" height="16.2969" style="stroke:transparent;stroke-width:1;" width="119.1982" x="17" y="110.1875"/><text fill="#000000" font-family="sans-serif" font-size="14" lengthAdjust="spacing" textLength="40.0518" x="17" y="123.1826">&#160;&#160;&#160;&#160;&#160;&#160;&#160;&#160;&#160;</text><text fill="#000000" font-family="sans-serif" font-size="14" lengthAdjust="spacing" textLength="149.9395" x="140.6484" y="123.1826">VehicleTime backend</text><rect fill="#FFDEAD" height="16.2969" style="stroke:transparent;stroke-width:1;" width="119.1982" x="17" y="126.4844"/><text fill="#000000" font-family="sans-serif" font-size="14" lengthAdjust="spacing" textLength="35.6016" x="17" y="139.4795">&#160;&#160;&#160;&#160;&#160;&#160;&#160;&#160;</text><text fill="#000000" font-family="sans-serif" font-size="14" lengthAdjust="spacing" textLength="141.1006" x="140.6484" y="139.4795">score::TimeDaemon</text><rect fill="#EEE8AA" height="16.2969" style="stroke:transparent;stroke-width:1;" width="119.1982" x="17" y="142.7813"/><text fill="#000000" font-family="sans-serif" font-size="14" lengthAdjust="spacing" textLength="26.7012" x="17" y="155.7764">&#160;&#160;&#160;&#160;&#160;&#160;</text><text fill="#000000" font-family="sans-serif" font-size="14" lengthAdjust="spacing" textLength="120.3057" x="140.6484" y="155.7764">score::TimeSlave</text><rect fill="#D3D3D3" height="16.2969" style="stroke:transparent;stroke-width:1;" width="119.1982" x="17" y="159.0781"/><text fill="#000000" font-family="sans-serif" font-size="14" lengthAdjust="spacing" textLength="44.502" x="17" y="172.0732">&#160;&#160;&#160;&#160;&#160;&#160;&#160;&#160;&#160;&#160;</text><text fill="#000000" font-family="sans-serif" font-size="14" lengthAdjust="spacing" textLength="149.7686" x="140.6484" y="172.0732">Network / PTP Master</text><line style="stroke:#000000;stroke-width:1;" x1="17" x2="321.8008" y1="61.2969" y2="61.2969"/><line style="stroke:#000000;stroke-width:1;" x1="17" x2="321.8008" y1="77.5938" y2="77.5938"/><line style="stroke:#000000;stroke-width:1;" x1="17" x2="321.8008" y1="93.8906" y2="93.8906"/><line style="stroke:#000000;stroke-width:1;" x1="17" x2="321.8008" y1="110.1875" y2="110.1875"/><line style="stroke:#000000;stroke-width:1;" x1="17" x2="321.8008" y1="126.4844" y2="126.4844"/><line style="stroke:#000000;stroke-width:1;" x1="17" x2="321.8008" y1="142.7813" y2="142.7813"/><line style="stroke:#000000;stroke-width:1;" x1="17" x2="321.8008" y1="159.0781" y2="159.0781"/><line style="stroke:#000000;stroke-width:1;" x1="17" x2="321.8008" y1="175.375" y2="175.375"/><line style="stroke:#000000;stroke-width:1;" x1="17" x2="17" y1="61.2969" y2="175.375"/><line style="stroke:#000000;stroke-width:1;" x1="136.1982" x2="136.1982" y1="61.2969" y2="175.375"/><line style="stroke:#000000;stroke-width:1;" x1="321.8008" x2="321.8008" y1="61.2969" y2="175.375"/><!--SRC=[pLRRRXit47tdLmoK5nk84GD1YqAG5aZj9YzD8DXE-b0L1iMTbJRcaXkIacEq0V8H_S9-IMUu5r7MsXOGDAZq86avvypbd9rLA8D6-73r4lxv-ZTym5MfD5wL5OxXbRyp2cPNCvWv6woo6ivba72vNdZboZgKrWZXRqfJIoShM4XritHsRV8pgws3srKPKApA7A6mDYpiPo7NmPfrjK07eqbXJG35eLCZDtVPP97zVdhwnqW8ZKiqEGHRWyOY2A3NNrDeQ7TVTFaS-tBkdJN0oRDVo-KgN4fTMPFrX_2ghdMfPCGfIrK-07pZ4BSu0dfb7Ox7WQO41NMEjzRT303Fh9Cw1IRZZTFY9kzbV2StygFzZKUNxMLauBd4Accq1ywanZTMvsWkR9uD02-rt3pIexpBaaDuXo5szI8QuAtq0Lq7fB8RXOGWKM6K3784p_37uhGe8Zlv8fIgh2K9dKRDZR9LRGsQC0BfGTOrf29n1c2_DFp9l8cVsOlJVVvsk6VQgfl8glWR91e-Zlcv4IH2Et4I7OThsYh2bHN5JqELfK547eWtaVbXugXOmplOCIlJnytDqQTb7Mh8OwRZ9fM7NMFSIzQgp3b-uFTWZhdX98q58clLk67hd2thT0eNk2pZkP9Qyo0zMACGP83Ib06cKo5Oy9EiLMZSRPG5JlfsBcdtyBQP9FTCbXsfnR6GAfGR6R21YuQ4s3hHY0_37j45AYmtc9-rLUrIjLZHSPnqrOaSzuBQZ1H2VQG13UBXxcRdgENTMvH-xR0YztzBXtjahscyVlLTEYIPVzbGod7S3ZnYE6AvCIUj-pB3og7CZwFYhMU8aJmvRY0luBNLsjvUlw-XGk_b4lssuE25iVJfs6LW2xx0zjpkCbuYwu3ahwBm641IvHpXOgNMELHnkHVELat6FWkNn-o2gk6QUAPxbfcRFnlcvv7oEV06ya5MjV-Ir9aBWk-eiyUqBqCoqx3xosybYkCdFhKuUlp6I7HcmNRdnbTuB0y9n4_-Fe2Fe5hx00jipq-yB70xiQJMU-ReUaljWUXESZOgpRvtwbDcQKLXeymY-Fe2F_6ZgFlXwxd1psebpHBXjWmhg2dHZdSIOGTlEnANCTUHyd1f1xc-NTwdDyF_J-BtndURZVxheI4iQ4kAE328ETKniEeJq9FB_f15I7o7BFlljEhJxWvPzWTt-FIo_uyw_1S0]--></g></svg>