<svg xmlns="http://www.w3.org/2000/svg" xmlns:xlink="http://www.w3.org/1999/xlink" contentStyleType="text/css" data-diagram-type="SEQUENCE" height="690px" preserveAspectRatio="none" style="width:1312px;height:690px;background:#FFFFFF;" version="1.1" viewBox="0 0 1312 690" width="1312px" zoomAndPan="magnify"><title>SC1 &#8212; SystemClock: Time Polling</title><defs/><g><text fill="#000000" font-family="sans-serif" font-size="14" font-weight="bold" lengthAdjust="spacing" textLength="262.5068" x="523.2505" y="27.9951">SC1 &#8212; SystemClock: Time Polling</text><rect fill="#E6F0FF" height="513.7188" style="stroke:#181818;stroke-width:0.5;" width="100.2236" x="1" y="163.7813"/><text fill="#000000" font-family="sans-serif" font-size="13" font-weight="bold" lengthAdjust="spacing" textLength="82.9194" x="9.6521" y="175.8481">Application</text><rect fill="#F0FFF0" height="513.7188" style="stroke:#181818;stroke-width:0.5;" width="452.9204" x="407.8794" y="163.7813"/><text fill="#000000" font-family="sans-serif" font-size="13" font-weight="bold" lengthAdjust="spacing" textLength="83.0337" x="592.8228" y="175.8481">score::time</text><rect fill="#FFF8F0" height="513.7188" style="stroke:#181818;stroke-width:0.5;" width="157.0303" x="928.6279" y="163.7813"/><text fill="#000000" font-family="sans-serif" font-size="13" font-weight="bold" lengthAdjust="spacing" textLength="118.3584" x="947.9639" y="175.8481">OS / std::chrono</text><g><title>SystemClock</title><rect fill="#FFFFFF" height="71.2656" style="stroke:#181818;stroke-width:1;" width="10" x="459" y="261.6406"/></g><g><title>SystemClock</title><rect fill="#FFFFFF" height="211.0625" style="stroke:#181818;stroke-width:1;" width="10" x="459" y="412.3047"/></g><g><title>SystemClockBackend</title><rect fill="#FFFFFF" height="152.7969" style="stroke:#181818;stroke-width:1;" width="10" x="769.4985" y="441.4375"/></g><g><title>system_clock</title><rect fill="#FFFFFF" height="94.5313" style="stroke:#181818;stroke-width:1;" width="10" x="1002.1431" y="470.5703"/></g><g><title>Application</title><rect fill="transparent" height="452.9922" width="8" x="47.1118" y="230.5078"/><line style="stroke:#181818;stroke-width:0.5;stroke-dasharray:5.0,5.0;" x1="51" x2="51" y1="230.5078" y2="683.5"/></g><g><title>SystemClock</title><rect fill="transparent" height="452.9922" width="8" x="460" y="230.5078"/><line style="stroke:#181818;stroke-width:0.5;stroke-dasharray:5.0,5.0;" x1="463.8794" x2="463.8794" y1="230.5078" y2="683.5"/></g><g><title>SystemClockBackend</title><rect fill="transparent" height="452.9922" width="8" x="770.4985" y="230.5078"/><line style="stroke:#181818;stroke-width:0.5;stroke-dasharray:5.0,5.0;" x1="774.1973" x2="774.1973" y1="230.5078" y2="683.5"/></g><g><title>system_clock</title><rect fill="transparent" height="452.9922" width="8" x="1003.1431" y="230.5078"/><line style="stroke:#181818;stroke-width:0.5;stroke-dasharray:5.0,5.0;" x1="1006.6279" x2="1006.6279" y1="230.5078" y2="683.5"/></g><rect fill="#FFA07A" height="46.5938" rx="2.5" ry="2.5" style="stroke:#181818;stroke-width:0.5;" width="92.2236" x="5" y="182.9141"/><text fill="#000000" font-family="sans-serif" font-size="14" lengthAdjust="spacing" textLength="78.2236" x="12" y="202.9092">Application</text><text fill="#000000" font-family="sans-serif" font-size="14" lengthAdjust="spacing" textLength="33.7627" x="34.2305" y="219.2061">code</text><rect fill="#90EE90" height="30.2969" rx="2.5" ry="2.5" style="stroke:#181818;stroke-width:0.5;" width="104.2412" x="411.8794" y="199.2109"/><text fill="#000000" font-family="sans-serif" font-size="14" lengthAdjust="spacing" textLength="90.2412" x="418.8794" y="219.2061">SystemClock</text><rect fill="#F08080" height="30.2969" rx="2.5" ry="2.5" style="stroke:#181818;stroke-width:0.5;" width="164.6025" x="692.1973" y="199.2109"/><text fill="#000000" font-family="sans-serif" font-size="14" lengthAdjust="spacing" textLength="150.6025" x="699.1973" y="219.2061">SystemClockBackend</text><rect fill="#FFDEAD" height="46.5938" rx="2.5" ry="2.5" style="stroke:#181818;stroke-width:0.5;" width="149.0303" x="932.6279" y="182.9141"/><text fill="#000000" font-family="sans-serif" font-size="14" lengthAdjust="spacing" textLength="93.5703" x="960.3579" y="202.9092">system_clock</text><text fill="#000000" font-family="sans-serif" font-size="14" lengthAdjust="spacing" textLength="135.0303" x="939.6279" y="219.2061">(CLOCK_REALTIME)</text><g><title>SystemClock</title><rect fill="#FFFFFF" height="71.2656" style="stroke:#181818;stroke-width:1;" width="10" x="459" y="261.6406"/></g><g><title>SystemClock</title><rect fill="#FFFFFF" height="211.0625" style="stroke:#181818;stroke-width:1;" width="10" x="459" y="412.3047"/></g><g><title>SystemClockBackend</title><rect fill="#FFFFFF" height="152.7969" style="stroke:#181818;stroke-width:1;" width="10" x="769.4985" y="441.4375"/></g><g><title>system_clock</title><rect fill="#FFFFFF" height="94.5313" style="stroke:#181818;stroke-width:1;" width="10" x="1002.1431" y="470.5703"/></g><polygon fill="#181818" points="447,257.6406,457,261.6406,447,265.6406,451,261.6406" style="stroke:#181818;stroke-width:1;"/><line style="stroke:#181818;stroke-width:1;" x1="51.1118" x2="453" y1="261.6406" y2="261.6406"/><text fill="#000080" font-family="sans-serif" font-size="13" font-weight="bold" lengthAdjust="spacing" textLength="29.9736" x="58.1118" y="256.5747">[01]</text><text fill="#000000" font-family="sans-serif" font-size="13" lengthAdjust="spacing" textLength="181.1621" x="92.0854" y="256.5747">SystemClock::GetInstance()</text><line style="stroke:#181818;stroke-width:1;" x1="469" x2="511" y1="290.7734" y2="290.7734"/><line style="stroke:#181818;stroke-width:1;" x1="511" x2="511" y1="290.7734" y2="303.7734"/><line style="stroke:#181818;stroke-width:1;" x1="470" x2="511" y1="303.7734" y2="303.7734"/><polygon fill="#181818" points="480,299.7734,470,303.7734,480,307.7734,476,303.7734" style="stroke:#181818;stroke-width:1;"/><text fill="#000080" font-family="sans-serif" font-size="13" font-weight="bold" lengthAdjust="spacing" textLength="29.9736" x="476" y="285.7075">[02]</text><text fill="#000000" font-family="sans-serif" font-size="13" lengthAdjust="spacing" textLength="147.5322" x="509.9736" y="285.7075">check cache / override</text><polygon fill="#181818" points="62.1118,328.9063,52.1118,332.9063,62.1118,336.9063,58.1118,332.9063" style="stroke:#181818;stroke-width:1;"/><line style="stroke:#181818;stroke-width:1;stroke-dasharray:2.0,2.0;" x1="56.1118" x2="463" y1="332.9063" y2="332.9063"/><text fill="#000080" font-family="sans-serif" font-size="13" font-weight="bold" lengthAdjust="spacing" textLength="29.9736" x="68.1118" y="327.8403">[03]</text><text fill="#000000" font-family="sans-serif" font-size="13" lengthAdjust="spacing" textLength="192.4292" x="102.0854" y="327.8403">Clock&lt;system_clock&gt; handle</text><path d="M56,345.9063 L56,385.9063 L269,385.9063 L269,355.9063 L259,345.9063 L56,345.9063 " fill="#FEFFDD" style="stroke:#181818;stroke-width:0.5;"/><path d="M259,345.9063 L259,355.9063 L269,355.9063 L259,345.9063 " fill="#FEFFDD" style="stroke:#181818;stroke-width:0.5;"/><text fill="#000000" font-family="sans-serif" font-size="13" lengthAdjust="spacing" textLength="129.0415" x="62" y="362.9731">No Init() required &#8212;</text><text fill="#000000" font-family="sans-serif" font-size="13" lengthAdjust="spacing" textLength="192.6069" x="62" y="378.106">SystemClock is always ready.</text><polygon fill="#181818" points="447,408.3047,457,412.3047,447,416.3047,451,412.3047" style="stroke:#181818;stroke-width:1;"/><line style="stroke:#181818;stroke-width:1;" x1="51.1118" x2="453" y1="412.3047" y2="412.3047"/><text fill="#000080" font-family="sans-serif" font-size="13" font-weight="bold" lengthAdjust="spacing" textLength="29.9736" x="58.1118" y="407.2388">[04]</text><text fill="#000000" font-family="sans-serif" font-size="13" lengthAdjust="spacing" textLength="38.4541" x="92.0854" y="407.2388">Now()</text><polygon fill="#181818" points="757.4985,437.4375,767.4985,441.4375,757.4985,445.4375,761.4985,441.4375" style="stroke:#181818;stroke-width:1;"/><line style="stroke:#181818;stroke-width:1;" x1="469" x2="763.4985" y1="441.4375" y2="441.4375"/><text fill="#000080" font-family="sans-serif" font-size="13" font-weight="bold" lengthAdjust="spacing" textLength="29.9736" x="476" y="436.3716">[05]</text><text fill="#000000" font-family="sans-serif" font-size="13" lengthAdjust="spacing" textLength="38.4541" x="509.9736" y="436.3716">Now()</text><polygon fill="#181818" points="990.1431,466.5703,1000.1431,470.5703,990.1431,474.5703,994.1431,470.5703" style="stroke:#181818;stroke-width:1;"/><line style="stroke:#181818;stroke-width:1;" x1="779.4985" x2="996.1431" y1="470.5703" y2="470.5703"/><text fill="#000080" font-family="sans-serif" font-size="13" font-weight="bold" lengthAdjust="spacing" textLength="29.9736" x="786.4985" y="465.5044">[06]</text><text fill="#000000" font-family="sans-serif" font-size="13" lengthAdjust="spacing" textLength="132.6152" x="820.4722" y="465.5044">system_clock::now()</text><path d="M1017,483.5703 L1017,538.5703 L1305,538.5703 L1305,493.5703 L1295,483.5703 L1017,483.5703 " fill="#FEFFDD" style="stroke:#181818;stroke-width:0.5;"/><path d="M1295,483.5703 L1295,493.5703 L1305,493.5703 L1295,483.5703 " fill="#FEFFDD" style="stroke:#181818;stroke-width:0.5;"/><text fill="#000000" font-family="sans-serif" font-size="13" lengthAdjust="spacing" textLength="238.291" x="1023" y="500.6372">CLOCK_REALTIME &#8212; wall-clock time;</text><text fill="#000000" font-family="sans-serif" font-size="13" lengthAdjust="spacing" textLength="267.0078" x="1023" y="515.77">may be adjusted by privileged processes</text><text fill="#000000" font-family="sans-serif" font-size="13" lengthAdjust="spacing" textLength="164.271" x="1023" y="530.9028">(e.g. sdat, clock_settime)</text><polygon fill="#181818" points="790.4985,561.1016,780.4985,565.1016,790.4985,569.1016,786.4985,565.1016" style="stroke:#181818;stroke-width:1;"/><line style="stroke:#181818;stroke-width:1;stroke-dasharray:2.0,2.0;" x1="784.4985" x2="1006.1431" y1="565.1016" y2="565.1016"/><text fill="#000080" font-family="sans-serif" font-size="13" font-weight="bold" lengthAdjust="spacing" textLength="29.9736" x="796.4985" y="560.0356">[07]</text><text fill="#000000" font-family="sans-serif" font-size="13" lengthAdjust="spacing" textLength="164.6709" x="830.4722" y="560.0356">system_clock::time_point</text><polygon fill="#181818" points="480,590.2344,470,594.2344,480,598.2344,476,594.2344" style="stroke:#181818;stroke-width:1;"/><line style="stroke:#181818;stroke-width:1;stroke-dasharray:2.0,2.0;" x1="474" x2="773.4985" y1="594.2344" y2="594.2344"/><text fill="#000080" font-family="sans-serif" font-size="13" font-weight="bold" lengthAdjust="spacing" textLength="29.9736" x="486" y="589.1685">[08]</text><text fill="#000000" font-family="sans-serif" font-size="13" lengthAdjust="spacing" textLength="242.5249" x="519.9736" y="589.1685">ClockSnapshot{timepoint, NoStatus}</text><polygon fill="#181818" points="62.1118,619.3672,52.1118,623.3672,62.1118,627.3672,58.1118,623.3672" style="stroke:#181818;stroke-width:1;"/><line style="stroke:#181818;stroke-width:1;stroke-dasharray:2.0,2.0;" x1="56.1118" x2="463" y1="623.3672" y2="623.3672"/><text fill="#000080" font-family="sans-serif" font-size="13" font-weight="bold" lengthAdjust="spacing" textLength="29.9736" x="68.1118" y="618.3013">[09]</text><text fill="#000000" font-family="sans-serif" font-size="13" lengthAdjust="spacing" textLength="349.9146" x="102.0854" y="618.3013">ClockSnapshot&lt;system_clock::time_point, NoStatus&gt;</text><line style="stroke:#181818;stroke-width:1;" x1="51.1118" x2="93.1118" y1="652.5" y2="652.5"/><line style="stroke:#181818;stroke-width:1;" x1="93.1118" x2="93.1118" y1="652.5" y2="665.5"/><line style="stroke:#181818;stroke-width:1;" x1="52.1118" x2="93.1118" y1="665.5" y2="665.5"/><polygon fill="#181818" points="62.1118,661.5,52.1118,665.5,62.1118,669.5,58.1118,665.5" style="stroke:#181818;stroke-width:1;"/><text fill="#000080" font-family="sans-serif" font-size="13" font-weight="bold" lengthAdjust="spacing" textLength="29.9736" x="58.1118" y="647.4341">[10]</text><text fill="#000000" font-family="sans-serif" font-size="13" lengthAdjust="spacing" textLength="138.5249" x="92.0854" y="647.4341">snapshot.TimePoint()</text><rect fill="transparent" height="95.4844" id="_legend" rx="7.5" ry="7.5" style="stroke:#000000;stroke-width:1;" width="323.585" x="12" y="54.2969"/><text fill="#000000" font-family="sans-serif" font-size="14" font-weight="bold" lengthAdjust="spacing" textLength="41.2139" x="21.874" y="74.292">Color</text><text fill="#000000" font-family="sans-serif" font-size="14" font-weight="bold" lengthAdjust="spacing" textLength="90.5488" x="141.0723" y="74.292">Description</text><rect fill="#FFA07A" height="16.2969" style="stroke:transparent;stroke-width:1;" width="119.1982" x="17" y="77.5938"/><text fill="#000000" font-family="sans-serif" font-size="14" lengthAdjust="spacing" textLength="35.6016" x="17" y="90.5889">&#160;&#160;&#160;&#160;&#160;&#160;&#160;&#160;</text><text fill="#000000" font-family="sans-serif" font-size="14" lengthAdjust="spacing" textLength="116.4365" x="140.6484" y="90.5889">Application code</text><rect fill="#90EE90" height="16.2969" style="stroke:transparent;stroke-width:1;" width="119.1982" x="17" y="93.8906"/><text fill="#000000" font-family="sans-serif" font-size="14" lengthAdjust="spacing" textLength="40.0518" x="17" y="106.8857">&#160;&#160;&#160;&#160;&#160;&#160;&#160;&#160;&#160;</text><text fill="#000000" font-family="sans-serif" font-size="14" lengthAdjust="spacing" textLength="158.833" x="140.6484" y="106.8857">score::time framework</text><rect fill="#F08080" height="16.2969" style="stroke:transparent;stroke-width:1;" width="119.1982" x="17" y="110.1875"/><text fill="#000000" font-family="sans-serif" font-size="14" lengthAdjust="spacing" textLength="40.0518" x="17" y="123.1826">&#160;&#160;&#160;&#160;&#160;&#160;&#160;&#160;&#160;</text><text fill="#000000" font-family="sans-serif" font-size="14" lengthAdjust="spacing" textLength="154.335" x="140.6484" y="123.1826">SystemClock backend</text><rect fill="#FFDEAD" height="16.2969" style="stroke:transparent;stroke-width:1;" width="119.1982" x="17" y="126.4844"/><text fill="#000000" font-family="sans-serif" font-size="14" lengthAdjust="spacing" textLength="35.6016" x="17" y="139.4795">&#160;&#160;&#160;&#160;&#160;&#160;&#160;&#160;</text><text fill="#000000" font-family="sans-serif" font-size="14" lengthAdjust="spacing" textLength="112.957" x="140.6484" y="139.4795">OS / std::chrono</text><line style="stroke:#000000;stroke-width:1;" x1="17" x2="330.585" y1="61.2969" y2="61.2969"/><line style="stroke:#000000;stroke-width:1;" x1="17" x2="330.585" y1="77.5938" y2="77.5938"/><line style="stroke:#000000;stroke-width:1;" x1="17" x2="330.585" y1="93.8906" y2="93.8906"/><line style="stroke:#000000;stroke-width:1;" x1="17" x2="330.585" y1="110.1875" y2="110.1875"/><line style="stroke:#000000;stroke-width:1;" x1="17" x2="330.585" y1="126.4844" y2="126.4844"/><line style="stroke:#000000;stroke-width:1;" x1="17" x2="330.585" y1="142.7813" y2="142.7813"/><line style="stroke:#000000;stroke-width:1;" x1="17" x2="17" y1="61.2969" y2="142.7813"/><line style="stroke:#000000;stroke-width:1;" x1="136.1982" x2="136.1982" y1="61.2969" y2="142.7813"/><line style="stroke:#000000;stroke-width:1;" x1="330.585" x2="330.585" y1="61.2969" y2="142.7813"/><!--SRC=[VLJHRjem57tFLrpH5v1QnbwcAQD87QkgQbrRZKfxM2Tad1lY4dmpsy3GDcaViI_Sb-pQWU9GshmaYkyvzvnpRJlbIeJHy3Ny-_CNHclhS3uiISvIk5DpX5igIwMdIM9dIbV2Y3bCX9nD3IrqDgII3AmAvJ0fL8QG4xa9_KZ4mf5Up2TeeDNFIJkGllHKY-Lwq9yCllPwtrf9Kk8KTGQEAYWnTmdmy-iKQjhcmxy_e9L6LKwHtb-iaVsZApKjt4YKSzA3nqKugwfIIH60abZcSyWBWxW3Cj9ACfYcpYUHitTSaPaTGWx9Y396Hac6mBpF_PxNOYaUw8kFBr9xCu9NO5sMfh8mfAcXbcdgq9A4SuPMPAq5H_Wcx-LveETHEILL9JZxkEfU-mHQ82o8ge8uCKyEVderTUITgJrntdjA7VaCf38uZk9y4VA-JYOWjob5WUufsa_6oyhpjuTasT1Z7DJSw_RmwcRuSVpv_EpgxlBJUIVq8mln17QzV2udWusJj74cqWjqbzeweIMsEucGJYs5mxesgH4HL1R8RodupSffYSRmATdMSQ5lbKBWxiUI1r08F-aamxqUYIR-DZuYeDmJ1FFN19TQkNO737vVA8EPFyzXATw9YgTUhiJQSfd8rjrWsZC-SNrDgnSCRcVrf6wpa6mBk9PpJY4sbwQw2IAxvuf_UENDgOKBQYNAygIMuJVckr0t5skO88ZiOS5TU8fhg8nQAdzICluaYTPYpTd6xhGBDXFkk3OrjkWyLMUN1Ii-QPXiglVLuugKTl5uMFEZwIZ7aFj8YyeMv7vwQ40USt0Z9zp2_ev9jl4Tt25RblvpSdQaWmCRPpFWcj1kkBh-ah_rO1x8Vm00]--></g></svg>