<svg xmlns="http://www.w3.org/2000/svg" xmlns:xlink="http://www.w3.org/1999/xlink" contentStyleType="text/css" data-diagram-type="SEQUENCE" height="918px" preserveAspectRatio="none" style="width:1287px;height:918px;background:#FFFFFF;" version="1.1" viewBox="0 0 1287 918" width="1287px" zoomAndPan="magnify"><title>VT1 &#8212; VehicleTime: Time Polling with Status Check</title><defs/><g><text fill="#000000" font-family="sans-serif" font-size="14" font-weight="bold" lengthAdjust="spacing" textLength="405.6104" x="437.0242" y="27.9951">VT1 &#8212; VehicleTime: Time Polling with Status Check</text><rect fill="#E6F0FF" height="725.0547" style="stroke:#181818;stroke-width:0.5;" width="100.2236" x="16" y="180.0781"/><text fill="#000000" font-family="sans-serif" font-size="13" font-weight="bold" lengthAdjust="spacing" textLength="82.9194" x="24.6521" y="192.145">Application</text><rect fill="#F0FFF0" height="725.0547" style="stroke:#181818;stroke-width:0.5;" width="513.9033" x="386.1387" y="180.0781"/><text fill="#000000" font-family="sans-serif" font-size="13" font-weight="bold" lengthAdjust="spacing" textLength="83.0337" x="601.5735" y="192.145">score::time</text><rect fill="#FFF8F0" height="725.0547" style="stroke:#181818;stroke-width:0.5;" width="151.7993" x="946.7402" y="180.0781"/><text fill="#000000" font-family="sans-serif" font-size="13" font-weight="bold" lengthAdjust="spacing" textLength="145.7993" x="949.7402" y="192.145">score::TimeDaemon</text><rect fill="#FFFFF0" height="725.0547" style="stroke:#181818;stroke-width:0.5;" width="135.5654" x="1129.1533" y="180.0781"/><text fill="#000000" font-family="sans-serif" font-size="13" font-weight="bold" lengthAdjust="spacing" textLength="125.5693" x="1134.1514" y="192.145">score::TimeSlave</text><g><title>VehicleClock</title><rect fill="#FFFFFF" height="71.2656" style="stroke:#181818;stroke-width:1;" width="10" x="436.7329" y="473.6016"/></g><g><title>VehicleClock</title><rect fill="#FFFFFF" height="145.6641" style="stroke:#181818;stroke-width:1;" width="10" x="436.7329" y="574"/></g><g><title>VehicleClockBackend</title><rect fill="#FFFFFF" height="87.3984" style="stroke:#181818;stroke-width:1;" width="10" x="809.2671" y="603.1328"/></g><g><title>TimeDaemon</title><rect fill="#FFFFFF" height="30" style="stroke:#181818;stroke-width:1;" width="10" x="1017.6399" y="321.0703"/></g><g><title>TimeDaemon</title><rect fill="#FFFFFF" height="29.1328" style="stroke:#181818;stroke-width:1;" width="10" x="1017.6399" y="632.2656"/></g><rect fill="transparent" height="159.4688" style="stroke:#000000;stroke-width:1.5;" width="306.7285" x="10" y="734.6641"/><g><title>Application</title><rect fill="transparent" height="664.3281" width="8" x="62.1118" y="246.8047"/><line style="stroke:#181818;stroke-width:0.5;stroke-dasharray:5.0,5.0;" x1="66" x2="66" y1="246.8047" y2="911.1328"/></g><g><title>VehicleClock</title><rect fill="transparent" height="664.3281" width="8" x="437.7329" y="246.8047"/><line style="stroke:#181818;stroke-width:0.5;stroke-dasharray:5.0,5.0;" x1="441.1387" x2="441.1387" y1="246.8047" y2="911.1328"/></g><g><title>VehicleClockBackend</title><rect fill="transparent" height="664.3281" width="8" x="810.2671" y="246.8047"/><line style="stroke:#181818;stroke-width:0.5;stroke-dasharray:5.0,5.0;" x1="813.4922" x2="813.4922" y1="246.8047" y2="911.1328"/></g><g><title>TimeDaemon</title><rect fill="transparent" height="664.3281" width="8" x="1018.6399" y="246.8047"/><line style="stroke:#181818;stroke-width:0.5;stroke-dasharray:5.0,5.0;" x1="1021.7693" x2="1021.7693" y1="246.8047" y2="911.1328"/></g><g><title>PTP TimeSlave</title><rect fill="transparent" height="664.3281" width="8" x="1192.936" y="246.8047"/><line style="stroke:#181818;stroke-width:0.5;stroke-dasharray:5.0,5.0;" x1="1196.1533" x2="1196.1533" y1="246.8047" y2="911.1328"/></g><rect fill="#FFA07A" height="46.5938" rx="2.5" ry="2.5" style="stroke:#181818;stroke-width:0.5;" width="92.2236" x="20" y="199.2109"/><text fill="#000000" font-family="sans-serif" font-size="14" lengthAdjust="spacing" textLength="78.2236" x="27" y="219.2061">Application</text><text fill="#000000" font-family="sans-serif" font-size="14" lengthAdjust="spacing" textLength="33.7627" x="49.2305" y="235.5029">code</text><rect fill="#90EE90" height="30.2969" rx="2.5" ry="2.5" style="stroke:#181818;stroke-width:0.5;" width="103.1885" x="390.1387" y="215.5078"/><text fill="#000000" font-family="sans-serif" font-size="14" lengthAdjust="spacing" textLength="89.1885" x="397.1387" y="235.5029">VehicleClock</text><rect fill="#F08080" height="30.2969" rx="2.5" ry="2.5" style="stroke:#181818;stroke-width:0.5;" width="163.5498" x="732.4922" y="215.5078"/><text fill="#000000" font-family="sans-serif" font-size="14" lengthAdjust="spacing" textLength="149.5498" x="739.4922" y="235.5029">VehicleClockBackend</text><rect fill="#FFDEAD" height="30.2969" rx="2.5" ry="2.5" style="stroke:#181818;stroke-width:0.5;" width="107.7412" x="968.7693" y="215.5078"/><text fill="#000000" font-family="sans-serif" font-size="14" lengthAdjust="spacing" textLength="93.7412" x="975.7693" y="235.5029">TimeDaemon</text><rect fill="#EEE8AA" height="46.5938" rx="2.5" ry="2.5" style="stroke:#181818;stroke-width:0.5;" width="127.5654" x="1133.1533" y="199.2109"/><text fill="#000000" font-family="sans-serif" font-size="14" lengthAdjust="spacing" textLength="102.833" x="1145.5195" y="219.2061">PTP TimeSlave</text><text fill="#000000" font-family="sans-serif" font-size="14" lengthAdjust="spacing" textLength="113.5654" x="1140.1533" y="235.5029">(qgptp daemon)</text><g><title>VehicleClock</title><rect fill="#FFFFFF" height="71.2656" style="stroke:#181818;stroke-width:1;" width="10" x="436.7329" y="473.6016"/></g><g><title>VehicleClock</title><rect fill="#FFFFFF" height="145.6641" style="stroke:#181818;stroke-width:1;" width="10" x="436.7329" y="574"/></g><g><title>VehicleClockBackend</title><rect fill="#FFFFFF" height="87.3984" style="stroke:#181818;stroke-width:1;" width="10" x="809.2671" y="603.1328"/></g><g><title>TimeDaemon</title><rect fill="#FFFFFF" height="30" style="stroke:#181818;stroke-width:1;" width="10" x="1017.6399" y="321.0703"/></g><g><title>TimeDaemon</title><rect fill="#FFFFFF" height="29.1328" style="stroke:#181818;stroke-width:1;" width="10" x="1017.6399" y="632.2656"/></g><rect fill="#EEEEEE" height="3" style="stroke:#EEEEEE;stroke-width:1;" width="1280.6587" x="0" y="277.3711"/><line style="stroke:#000000;stroke-width:1;" x1="0" x2="1280.6587" y1="277.3711" y2="277.3711"/><line style="stroke:#000000;stroke-width:1;" x1="0" x2="1280.6587" y1="280.3711" y2="280.3711"/><rect fill="#EEEEEE" height="23.1328" style="stroke:#000000;stroke-width:2;" width="383.002" x="448.8284" y="266.8047"/><text fill="#000000" font-family="sans-serif" font-size="13" font-weight="bold" lengthAdjust="spacing" textLength="364.4761" x="454.8284" y="282.8716">Background: PTP synchronization (asynchronous)</text><polygon fill="#181818" points="1038.6399,317.0703,1028.6399,321.0703,1038.6399,325.0703,1034.6399,321.0703" style="stroke:#181818;stroke-width:1;"/><line style="stroke:#181818;stroke-width:1;" x1="1032.6399" x2="1195.936" y1="321.0703" y2="321.0703"/><text fill="#000080" font-family="sans-serif" font-size="13" font-weight="bold" lengthAdjust="spacing" textLength="29.9736" x="1044.6399" y="316.0044">[01]</text><text fill="#000000" font-family="sans-serif" font-size="13" lengthAdjust="spacing" textLength="98.2935" x="1078.6135" y="316.0044">[IPC] sync data</text><path d="M1027,364.0703 L1027,404.0703 L1275,404.0703 L1275,374.0703 L1265,364.0703 L1027,364.0703 " fill="#FEFFDD" style="stroke:#181818;stroke-width:0.5;"/><path d="M1265,364.0703 L1265,374.0703 L1275,374.0703 L1265,364.0703 " fill="#FEFFDD" style="stroke:#181818;stroke-width:0.5;"/><text fill="#000000" font-family="sans-serif" font-size="13" lengthAdjust="spacing" textLength="227.6587" x="1033" y="381.1372">TimeDaemon receives sync events</text><text fill="#000000" font-family="sans-serif" font-size="13" lengthAdjust="spacing" textLength="185.0786" x="1033" y="396.27">from the TimeSlave daemon</text><rect fill="#EEEEEE" height="3" style="stroke:#EEEEEE;stroke-width:1;" width="1280.6587" x="0" y="429.9023"/><line style="stroke:#000000;stroke-width:1;" x1="0" x2="1280.6587" y1="429.9023" y2="429.9023"/><line style="stroke:#000000;stroke-width:1;" x1="0" x2="1280.6587" y1="432.9023" y2="432.9023"/><rect fill="#EEEEEE" height="23.1328" style="stroke:#000000;stroke-width:2;" width="250.0757" x="515.2915" y="419.3359"/><text fill="#000000" font-family="sans-serif" font-size="13" font-weight="bold" lengthAdjust="spacing" textLength="231.5498" x="521.2915" y="435.4028">Foreground: application polling</text><polygon fill="#181818" points="424.7329,469.6016,434.7329,473.6016,424.7329,477.6016,428.7329,473.6016" style="stroke:#181818;stroke-width:1;"/><line style="stroke:#181818;stroke-width:1;" x1="66.1118" x2="430.7329" y1="473.6016" y2="473.6016"/><text fill="#000080" font-family="sans-serif" font-size="13" font-weight="bold" lengthAdjust="spacing" textLength="29.9736" x="73.1118" y="468.5356">[02]</text><text fill="#000000" font-family="sans-serif" font-size="13" lengthAdjust="spacing" textLength="180.1846" x="107.0854" y="468.5356">VehicleClock::GetInstance()</text><line style="stroke:#181818;stroke-width:1;" x1="446.7329" x2="488.7329" y1="502.7344" y2="502.7344"/><line style="stroke:#181818;stroke-width:1;" x1="488.7329" x2="488.7329" y1="502.7344" y2="515.7344"/><line style="stroke:#181818;stroke-width:1;" x1="447.7329" x2="488.7329" y1="515.7344" y2="515.7344"/><polygon fill="#181818" points="457.7329,511.7344,447.7329,515.7344,457.7329,519.7344,453.7329,515.7344" style="stroke:#181818;stroke-width:1;"/><text fill="#000080" font-family="sans-serif" font-size="13" font-weight="bold" lengthAdjust="spacing" textLength="29.9736" x="453.7329" y="497.6685">[03]</text><text fill="#000000" font-family="sans-serif" font-size="13" lengthAdjust="spacing" textLength="147.5322" x="487.7065" y="497.6685">check cache / override</text><polygon fill="#181818" points="77.1118,540.8672,67.1118,544.8672,77.1118,548.8672,73.1118,544.8672" style="stroke:#181818;stroke-width:1;"/><line style="stroke:#181818;stroke-width:1;stroke-dasharray:2.0,2.0;" x1="71.1118" x2="440.7329" y1="544.8672" y2="544.8672"/><text fill="#000080" font-family="sans-serif" font-size="13" font-weight="bold" lengthAdjust="spacing" textLength="29.9736" x="83.1118" y="539.8013">[04]</text><text fill="#000000" font-family="sans-serif" font-size="13" lengthAdjust="spacing" textLength="185.2563" x="117.0854" y="539.8013">Clock&lt;VehicleTime&gt; handle</text><polygon fill="#181818" points="424.7329,570,434.7329,574,424.7329,578,428.7329,574" style="stroke:#181818;stroke-width:1;"/><line style="stroke:#181818;stroke-width:1;" x1="66.1118" x2="430.7329" y1="574" y2="574"/><text fill="#000080" font-family="sans-serif" font-size="13" font-weight="bold" lengthAdjust="spacing" textLength="29.9736" x="73.1118" y="568.9341">[05]</text><text fill="#000000" font-family="sans-serif" font-size="13" lengthAdjust="spacing" textLength="38.4541" x="107.0854" y="568.9341">Now()</text><polygon fill="#181818" points="797.2671,599.1328,807.2671,603.1328,797.2671,607.1328,801.2671,603.1328" style="stroke:#181818;stroke-width:1;"/><line style="stroke:#181818;stroke-width:1;" x1="446.7329" x2="803.2671" y1="603.1328" y2="603.1328"/><text fill="#000080" font-family="sans-serif" font-size="13" font-weight="bold" lengthAdjust="spacing" textLength="29.9736" x="453.7329" y="598.0669">[06]</text><text fill="#000000" font-family="sans-serif" font-size="13" lengthAdjust="spacing" textLength="38.4541" x="487.7065" y="598.0669">Now()</text><polygon fill="#181818" points="1005.6399,628.2656,1015.6399,632.2656,1005.6399,636.2656,1009.6399,632.2656" style="stroke:#181818;stroke-width:1;"/><line style="stroke:#181818;stroke-width:1;" x1="819.2671" x2="1011.6399" y1="632.2656" y2="632.2656"/><text fill="#000080" font-family="sans-serif" font-size="13" font-weight="bold" lengthAdjust="spacing" textLength="29.9736" x="826.2671" y="627.1997">[07]</text><text fill="#000000" font-family="sans-serif" font-size="13" lengthAdjust="spacing" textLength="123.7729" x="860.2407" y="627.1997">[IPC] get sync data</text><polygon fill="#181818" points="830.2671,657.3984,820.2671,661.3984,830.2671,665.3984,826.2671,661.3984" style="stroke:#181818;stroke-width:1;"/><line style="stroke:#181818;stroke-width:1;stroke-dasharray:2.0,2.0;" x1="824.2671" x2="1021.6399" y1="661.3984" y2="661.3984"/><text fill="#000080" font-family="sans-serif" font-size="13" font-weight="bold" lengthAdjust="spacing" textLength="29.9736" x="836.2671" y="656.3325">[08]</text><text fill="#000000" font-family="sans-serif" font-size="13" lengthAdjust="spacing" textLength="122.3701" x="870.2407" y="656.3325">sync data + status</text><polygon fill="#181818" points="457.7329,686.5313,447.7329,690.5313,457.7329,694.5313,453.7329,690.5313" style="stroke:#181818;stroke-width:1;"/><line style="stroke:#181818;stroke-width:1;stroke-dasharray:2.0,2.0;" x1="451.7329" x2="813.2671" y1="690.5313" y2="690.5313"/><text fill="#000080" font-family="sans-serif" font-size="13" font-weight="bold" lengthAdjust="spacing" textLength="29.9736" x="463.7329" y="685.4653">[09]</text><text fill="#000000" font-family="sans-serif" font-size="13" lengthAdjust="spacing" textLength="304.5605" x="497.7065" y="685.4653">ClockSnapshot{timepoint, VehicleTimeStatus}</text><polygon fill="#181818" points="77.1118,715.6641,67.1118,719.6641,77.1118,723.6641,73.1118,719.6641" style="stroke:#181818;stroke-width:1;"/><line style="stroke:#181818;stroke-width:1;stroke-dasharray:2.0,2.0;" x1="71.1118" x2="440.7329" y1="719.6641" y2="719.6641"/><text fill="#000080" font-family="sans-serif" font-size="13" font-weight="bold" lengthAdjust="spacing" textLength="29.9736" x="83.1118" y="714.5981">[10]</text><text fill="#000000" font-family="sans-serif" font-size="13" lengthAdjust="spacing" textLength="312.6475" x="117.0854" y="714.5981">ClockSnapshot&lt;Timepoint, VehicleTimeStatus&gt;</text><path d="M10,734.6641 L74.4429,734.6641 L74.4429,741.7969 L64.4429,751.7969 L10,751.7969 L10,734.6641 " fill="#EEEEEE" style="stroke:#000000;stroke-width:1.5;"/><rect fill="transparent" height="159.4688" style="stroke:#000000;stroke-width:1.5;" width="306.7285" x="10" y="734.6641"/><text fill="#000000" font-family="sans-serif" font-size="13" font-weight="bold" lengthAdjust="spacing" textLength="19.4429" x="25" y="747.731">alt</text><text fill="#000000" font-family="sans-serif" font-size="11" font-weight="bold" lengthAdjust="spacing" textLength="196.2705" x="89.4429" y="746.8745">[snapshot.Status().IsReliable()]</text><line style="stroke:#181818;stroke-width:1;" x1="66.1118" x2="108.1118" y1="772.9297" y2="772.9297"/><line style="stroke:#181818;stroke-width:1;" x1="108.1118" x2="108.1118" y1="772.9297" y2="785.9297"/><line style="stroke:#181818;stroke-width:1;" x1="67.1118" x2="108.1118" y1="785.9297" y2="785.9297"/><polygon fill="#181818" points="77.1118,781.9297,67.1118,785.9297,77.1118,789.9297,73.1118,785.9297" style="stroke:#181818;stroke-width:1;"/><text fill="#000080" font-family="sans-serif" font-size="13" font-weight="bold" lengthAdjust="spacing" textLength="29.9736" x="73.1118" y="767.8638">[11]</text><text fill="#000000" font-family="sans-serif" font-size="13" lengthAdjust="spacing" textLength="138.5249" x="107.0854" y="767.8638">snapshot.TimePoint()</text><path d="M71,798.9297 L71,823.9297 L246,823.9297 L246,808.9297 L236,798.9297 L71,798.9297 " fill="#FEFFDD" style="stroke:#181818;stroke-width:0.5;"/><path d="M236,798.9297 L236,808.9297 L246,808.9297 L236,798.9297 " fill="#FEFFDD" style="stroke:#181818;stroke-width:0.5;"/><text fill="#000000" font-family="sans-serif" font-size="13" lengthAdjust="spacing" textLength="154.7749" x="77" y="815.9966">use the timepoint value</text><line style="stroke:#000000;stroke-width:1;stroke-dasharray:2.0,2.0;" x1="10" x2="316.7285" y1="830.0625" y2="830.0625"/><text fill="#000000" font-family="sans-serif" font-size="11" font-weight="bold" lengthAdjust="spacing" textLength="116.7515" x="15" y="840.2729">[not synchronized]</text><path d="M71,848.8672 L71,888.8672 L306,888.8672 L306,858.8672 L296,848.8672 L71,848.8672 " fill="#FEFFDD" style="stroke:#181818;stroke-width:0.5;"/><path d="M296,848.8672 L296,858.8672 L306,858.8672 L296,848.8672 " fill="#FEFFDD" style="stroke:#181818;stroke-width:0.5;"/><text fill="#000000" font-family="sans-serif" font-size="13" lengthAdjust="spacing" textLength="201.811" x="77" y="865.9341">time is not synchronized yet &#8212;</text><text fill="#000000" font-family="sans-serif" font-size="13" lengthAdjust="spacing" textLength="214.7285" x="77" y="881.0669">handle this case (e.g. retry later)</text><rect fill="transparent" height="111.7813" id="_legend" rx="7.5" ry="7.5" style="stroke:#000000;stroke-width:1;" width="319.251" x="12" y="54.2969"/><text fill="#000000" font-family="sans-serif" font-size="14" font-weight="bold" lengthAdjust="spacing" textLength="41.2139" x="21.874" y="74.292">Color</text><text fill="#000000" font-family="sans-serif" font-size="14" font-weight="bold" lengthAdjust="spacing" textLength="90.5488" x="141.0723" y="74.292">Description</text><rect fill="#FFA07A" height="16.2969" style="stroke:transparent;stroke-width:1;" width="119.1982" x="17" y="77.5938"/><text fill="#000000" font-family="sans-serif" font-size="14" lengthAdjust="spacing" textLength="35.6016" x="17" y="90.5889">&#160;&#160;&#160;&#160;&#160;&#160;&#160;&#160;</text><text fill="#000000" font-family="sans-serif" font-size="14" lengthAdjust="spacing" textLength="181.0703" x="140.6484" y="90.5889">Application business logic</text><rect fill="#90EE90" height="16.2969" style="stroke:transparent;stroke-width:1;" width="119.1982" x="17" y="93.8906"/><text fill="#000000" font-family="sans-serif" font-size="14" lengthAdjust="spacing" textLength="40.0518" x="17" y="106.8857">&#160;&#160;&#160;&#160;&#160;&#160;&#160;&#160;&#160;</text><text fill="#000000" font-family="sans-serif" font-size="14" lengthAdjust="spacing" textLength="158.833" x="140.6484" y="106.8857">score::time framework</text><rect fill="#F08080" height="16.2969" style="stroke:transparent;stroke-width:1;" width="119.1982" x="17" y="110.1875"/><text fill="#000000" font-family="sans-serif" font-size="14" lengthAdjust="spacing" textLength="40.0518" x="17" y="123.1826">&#160;&#160;&#160;&#160;&#160;&#160;&#160;&#160;&#160;</text><text fill="#000000" font-family="sans-serif" font-size="14" lengthAdjust="spacing" textLength="149.9395" x="140.6484" y="123.1826">VehicleTime backend</text><rect fill="#FFDEAD" height="16.2969" style="stroke:transparent;stroke-width:1;" width="119.1982" x="17" y="126.4844"/><text fill="#000000" font-family="sans-serif" font-size="14" lengthAdjust="spacing" textLength="35.6016" x="17" y="139.4795">&#160;&#160;&#160;&#160;&#160;&#160;&#160;&#160;</text><text fill="#000000" font-family="sans-serif" font-size="14" lengthAdjust="spacing" textLength="141.1006" x="140.6484" y="139.4795">score::TimeDaemon</text><rect fill="#EEE8AA" height="16.2969" style="stroke:transparent;stroke-width:1;" width="119.1982" x="17" y="142.7813"/><text fill="#000000" font-family="sans-serif" font-size="14" lengthAdjust="spacing" textLength="26.7012" x="17" y="155.7764">&#160;&#160;&#160;&#160;&#160;&#160;</text><text fill="#000000" font-family="sans-serif" font-size="14" lengthAdjust="spacing" textLength="120.3057" x="140.6484" y="155.7764">score::TimeSlave</text><line style="stroke:#000000;stroke-width:1;" x1="17" x2="326.251" y1="61.2969" y2="61.2969"/><line style="stroke:#000000;stroke-width:1;" x1="17" x2="326.251" y1="77.5938" y2="77.5938"/><line style="stroke:#000000;stroke-width:1;" x1="17" x2="326.251" y1="93.8906" y2="93.8906"/><line style="stroke:#000000;stroke-width:1;" x1="17" x2="326.251" y1="110.1875" y2="110.1875"/><line style="stroke:#000000;stroke-width:1;" x1="17" x2="326.251" y1="126.4844" y2="126.4844"/><line style="stroke:#000000;stroke-width:1;" x1="17" x2="326.251" y1="142.7813" y2="142.7813"/><line style="stroke:#000000;stroke-width:1;" x1="17" x2="326.251" y1="159.0781" y2="159.0781"/><line style="stroke:#000000;stroke-width:1;" x1="17" x2="17" y1="61.2969" y2="159.0781"/><line style="stroke:#000000;stroke-width:1;" x1="136.1982" x2="136.1982" y1="61.2969" y2="159.0781"/><line style="stroke:#000000;stroke-width:1;" x1="326.251" x2="326.251" y1="61.2969" y2="159.0781"/><!--SRC=[XLNBRjim4BppAnREnKORrxqKXM0RQ1mq2504HXAaXoG7cbfPh6bI9McdwGFeH_GB-oLTKfPCEqwgWoI8CxExiqlAIwyGRgxVmj_VV-06IoaKNiibPX3kC3LAIJs71-bBkFBShnnCIXGBnjn2wefRleGP5ukvDIkTJumo5XvAwP6LCaSeZF4pyutnbJTwjPoXXSwmCDg32D2Hvkl7yN0slXqCxZkCAPoZpi6R2XGMdW5TFqTGo-vUzFaKdR2oyjBe_SMQEJpw9EUbl-9gQVIuNOGFLQMau94uMpcfqJbGPYx57lFC8cw9n7J2MCmo7xmfg7PyC7PnAER4MAvIPk9jD2pKkP_j1L_pB-Ppi6_y96PWdd9SfiMsp2bNU6PKZlhIvEC3p2l5rxZZ42LGsyqOTGWwYIaTEC9tnQ0eeZmrsKiXAqvTIr5tMfWSEy0TyAg2rEiW3g7ljNJY6aa7uMBmL7hZq4GPiOYg8hn1qecNEIUrgv7QE9mqut1EMrT3PaNn_b1cAOZ4FUachNfUE9fUwnwiU7ezXHPtfxjVvvMl88-HUdKe1xkztGORZU2atNWP12ttg4LfZPRVwzdkykQBMRaUZ4QCaU3nE5IGmUtvT78VEHJISyQ5bslkaLQPDlIqmJimHVWGSaycqA90kKPNqt6Dshk8AQnPWYznMzUcdfXua6Kvff527H_9iQOEdkpDQdFwXCJ3Y57czKnaa3O-oyxGdsldkHROxMqBYM1MKnAk20SO24vFU0DcZTRIMTNW21XYPH2rXyc-7KF9mwP9AwX3x6TtOHvUoACPpYUupG9h0BkTcgD_fbi4EjxHRM7m2bmyjVTSRoCaISTwhpIlN6dyZx1PAoErVvqUNVKlu5UgrYHzqBv6RdZzWjpuaA6AYjsG-pMis-kVkqjKaizKQ7COjutlTSGM7wId8TW6jJlD16RDCRXo6AUrhHRMNAqmhhS3YufGz9RiByp_8np_4D8zeS4ZTP7-jIsm7YbAWi22Kw0kzkTzsc3UFe8YHsnlBnlo-Xy0]--></g></svg>