<svg xmlns="http://www.w3.org/2000/svg" xmlns:xlink="http://www.w3.org/1999/xlink" contentStyleType="text/css" data-diagram-type="SEQUENCE" height="805px" preserveAspectRatio="none" style="width:943px;height:805px;background:#FFFFFF;" version="1.1" viewBox="0 0 943 805" width="943px" zoomAndPan="magnify"><title>T2 &#8212; Testing: ClockTestFactory (Constructor Injection)</title><defs/><g><text fill="#000000" font-family="sans-serif" font-size="14" font-weight="bold" lengthAdjust="spacing" textLength="433.0498" x="251.0339" y="27.9951">T2 &#8212; Testing: ClockTestFactory (Constructor Injection)</text><rect fill="#FAFAF0" height="629.1172" style="stroke:#181818;stroke-width:0.5;" width="67.7598" x="26" y="163.7813"/><text fill="#000000" font-family="sans-serif" font-size="13" font-weight="bold" lengthAdjust="spacing" textLength="31.6367" x="44.0615" y="175.8481">Test</text><rect fill="#F0FFF0" height="629.1172" style="stroke:#181818;stroke-width:0.5;" width="142.4082" x="348.8613" y="163.7813"/><text fill="#000000" font-family="sans-serif" font-size="13" font-weight="bold" lengthAdjust="spacing" textLength="83.0337" x="378.5486" y="175.8481">score::time</text><rect fill="#FFFFF0" height="629.1172" style="stroke:#181818;stroke-width:0.5;" width="147.6377" x="493.2695" y="163.7813"/><text fill="#000000" font-family="sans-serif" font-size="13" font-weight="bold" lengthAdjust="spacing" textLength="38.2192" x="547.9788" y="175.8481">Mock</text><rect fill="#E6F0FF" height="629.1172" style="stroke:#181818;stroke-width:0.5;" width="179.1445" x="642.9072" y="163.7813"/><text fill="#000000" font-family="sans-serif" font-size="13" font-weight="bold" lengthAdjust="spacing" textLength="139.1851" x="662.887" y="175.8481">System Under Test</text><g><title>ClockTestFactory</title><rect fill="#FFFFFF" height="29.1328" style="stroke:#181818;stroke-width:1;" width="10" x="415.0654" y="413.3047"/></g><g><title>VehicleClockMock</title><rect fill="#FFFFFF" height="425.8594" style="stroke:#181818;stroke-width:1;" width="10" x="562.0884" y="355.0391"/></g><g><title>MyService</title><rect fill="#FFFFFF" height="121.5313" style="stroke:#181818;stroke-width:1;" width="10" x="727.4795" y="587.1016"/></g><g><title>TEST()</title><rect fill="transparent" height="568.3906" width="8" x="55.8799" y="230.5078"/><line style="stroke:#181818;stroke-width:0.5;stroke-dasharray:5.0,5.0;" x1="59" x2="59" y1="230.5078" y2="798.8984"/></g><g><title>ClockTestFactory</title><rect fill="transparent" height="568.3906" width="8" x="416.0654" y="230.5078"/><line style="stroke:#181818;stroke-width:0.5;stroke-dasharray:5.0,5.0;" x1="419.8613" x2="419.8613" y1="230.5078" y2="798.8984"/></g><g><title>VehicleClockMock</title><rect fill="transparent" height="568.3906" width="8" x="563.0884" y="230.5078"/><line style="stroke:#181818;stroke-width:0.5;stroke-dasharray:5.0,5.0;" x1="566.2695" x2="566.2695" y1="230.5078" y2="798.8984"/></g><g><title>MyService</title><rect fill="transparent" height="568.3906" width="8" x="728.4795" y="230.5078"/><line style="stroke:#181818;stroke-width:0.5;stroke-dasharray:5.0,5.0;" x1="731.9072" x2="731.9072" y1="230.5078" y2="798.8984"/></g><rect fill="#FFA07A" height="30.2969" rx="2.5" ry="2.5" style="stroke:#181818;stroke-width:0.5;" width="59.7598" x="30" y="199.2109"/><text fill="#000000" font-family="sans-serif" font-size="14" lengthAdjust="spacing" textLength="45.7598" x="37" y="219.2061">TEST()</text><rect fill="#90EE90" height="46.5938" rx="2.5" ry="2.5" style="stroke:#181818;stroke-width:0.5;" width="134.4082" x="352.8613" y="182.9141"/><text fill="#000000" font-family="sans-serif" font-size="14" lengthAdjust="spacing" textLength="120.4082" x="359.8613" y="202.9092">ClockTestFactory</text><text fill="#000000" font-family="sans-serif" font-size="14" lengthAdjust="spacing" textLength="109.3066" x="365.4121" y="219.2061">&lt;VehicleTime&gt;</text><rect fill="#EEE8AA" height="30.2969" rx="2.5" ry="2.5" style="stroke:#181818;stroke-width:0.5;" width="139.6377" x="497.2695" y="199.2109"/><text fill="#000000" font-family="sans-serif" font-size="14" lengthAdjust="spacing" textLength="125.6377" x="504.2695" y="219.2061">VehicleClockMock</text><rect fill="#ADD8E6" height="46.5938" rx="2.5" ry="2.5" style="stroke:#181818;stroke-width:0.5;" width="171.1445" x="646.9072" y="182.9141"/><text fill="#000000" font-family="sans-serif" font-size="14" lengthAdjust="spacing" textLength="72.1055" x="696.4268" y="202.9092">MyService</text><text fill="#000000" font-family="sans-serif" font-size="14" lengthAdjust="spacing" textLength="157.1445" x="653.9072" y="219.2061">(accepts Clock&lt;Tag&gt;)</text><g><title>ClockTestFactory</title><rect fill="#FFFFFF" height="29.1328" style="stroke:#181818;stroke-width:1;" width="10" x="415.0654" y="413.3047"/></g><g><title>VehicleClockMock</title><rect fill="#FFFFFF" height="425.8594" style="stroke:#181818;stroke-width:1;" width="10" x="562.0884" y="355.0391"/></g><g><title>MyService</title><rect fill="#FFFFFF" height="121.5313" style="stroke:#181818;stroke-width:1;" width="10" x="727.4795" y="587.1016"/></g><path d="M5,245.5078 L5,285.5078 L788,285.5078 L788,255.5078 L778,245.5078 L5,245.5078 " fill="#FEFFDD" style="stroke:#181818;stroke-width:0.5;"/><path d="M778,245.5078 L778,255.5078 L788,255.5078 L778,245.5078 " fill="#FEFFDD" style="stroke:#181818;stroke-width:0.5;"/><text fill="#000000" font-family="sans-serif" font-size="13" lengthAdjust="spacing" textLength="592.1792" x="95.9363" y="262.5747">VehicleTime used as the example domain &#8212; the same pattern applies to any Clock&lt;Tag&gt;.</text><text fill="#000000" font-family="sans-serif" font-size="13" lengthAdjust="spacing" textLength="337.1748" x="95.9363" y="277.7075">No global state is modified &#8212; safe for parallel tests.</text><rect fill="#EEEEEE" height="3" style="stroke:#EEEEEE;stroke-width:1;" width="936.1177" x="0" y="311.3398"/><line style="stroke:#000000;stroke-width:1;" x1="0" x2="936.1177" y1="311.3398" y2="311.3398"/><line style="stroke:#000000;stroke-width:1;" x1="0" x2="936.1177" y1="314.3398" y2="314.3398"/><rect fill="#EEEEEE" height="23.1328" style="stroke:#000000;stroke-width:2;" width="96.0181" x="420.0498" y="300.7734"/><text fill="#000000" font-family="sans-serif" font-size="13" font-weight="bold" lengthAdjust="spacing" textLength="77.4922" x="426.0498" y="316.8403">Test setup</text><polygon fill="#181818" points="550.0884,351.0391,560.0884,355.0391,550.0884,359.0391,554.0884,355.0391" style="stroke:#181818;stroke-width:1;"/><line style="stroke:#181818;stroke-width:1;" x1="59.8799" x2="556.0884" y1="355.0391" y2="355.0391"/><text fill="#000080" font-family="sans-serif" font-size="13" font-weight="bold" lengthAdjust="spacing" textLength="29.9736" x="66.8799" y="349.9731">[01]</text><text fill="#000000" font-family="sans-serif" font-size="13" lengthAdjust="spacing" textLength="235.8218" x="100.8535" y="349.9731">make_shared&lt;VehicleClockMock&gt;()</text><polygon fill="#181818" points="70.8799,380.1719,60.8799,384.1719,70.8799,388.1719,66.8799,384.1719" style="stroke:#181818;stroke-width:1;"/><line style="stroke:#181818;stroke-width:1;stroke-dasharray:2.0,2.0;" x1="64.8799" x2="561.0884" y1="384.1719" y2="384.1719"/><text fill="#000080" font-family="sans-serif" font-size="13" font-weight="bold" lengthAdjust="spacing" textLength="29.9736" x="76.8799" y="379.106">[02]</text><text fill="#000000" font-family="sans-serif" font-size="13" lengthAdjust="spacing" textLength="208.2158" x="110.8535" y="379.106">shared_ptr&lt;VehicleClockMock&gt;</text><polygon fill="#181818" points="403.0654,409.3047,413.0654,413.3047,403.0654,417.3047,407.0654,413.3047" style="stroke:#181818;stroke-width:1;"/><line style="stroke:#181818;stroke-width:1;" x1="59.8799" x2="409.0654" y1="413.3047" y2="413.3047"/><text fill="#000080" font-family="sans-serif" font-size="13" font-weight="bold" lengthAdjust="spacing" textLength="29.9736" x="66.8799" y="408.2388">[03]</text><text fill="#000000" font-family="sans-serif" font-size="13" lengthAdjust="spacing" textLength="302.2119" x="100.8535" y="408.2388">ClockTestFactory&lt;VehicleTime&gt;::Make(mock)</text><polygon fill="#181818" points="70.8799,438.4375,60.8799,442.4375,70.8799,446.4375,66.8799,442.4375" style="stroke:#181818;stroke-width:1;"/><line style="stroke:#181818;stroke-width:1;stroke-dasharray:2.0,2.0;" x1="64.8799" x2="419.0654" y1="442.4375" y2="442.4375"/><text fill="#000080" font-family="sans-serif" font-size="13" font-weight="bold" lengthAdjust="spacing" textLength="29.9736" x="76.8799" y="437.3716">[04]</text><text fill="#000000" font-family="sans-serif" font-size="13" lengthAdjust="spacing" textLength="240.9253" x="110.8535" y="437.3716">Clock&lt;VehicleTime&gt; wrapping mock</text><line style="stroke:#181818;stroke-width:1;" x1="59.8799" x2="101.8799" y1="486.7031" y2="486.7031"/><line style="stroke:#181818;stroke-width:1;" x1="101.8799" x2="101.8799" y1="486.7031" y2="499.7031"/><line style="stroke:#181818;stroke-width:1;" x1="60.8799" x2="101.8799" y1="499.7031" y2="499.7031"/><polygon fill="#181818" points="70.8799,495.7031,60.8799,499.7031,70.8799,503.7031,66.8799,499.7031" style="stroke:#181818;stroke-width:1;"/><text fill="#000080" font-family="sans-serif" font-size="13" font-weight="bold" lengthAdjust="spacing" textLength="29.9736" x="66.8799" y="474.0708">[05]</text><text fill="#000000" font-family="sans-serif" font-size="13" lengthAdjust="spacing" textLength="187.8018" x="100.8535" y="466.5044">EXPECT_CALL(*mock, Now())</text><text fill="#000000" font-family="sans-serif" font-size="13" lengthAdjust="spacing" textLength="184.9707" x="109.1182" y="481.6372">.WillOnce(Return(snapshot))</text><rect fill="#EEEEEE" height="3" style="stroke:#EEEEEE;stroke-width:1;" width="936.1177" x="0" y="528.2695"/><line style="stroke:#000000;stroke-width:1;" x1="0" x2="936.1177" y1="528.2695" y2="528.2695"/><line style="stroke:#000000;stroke-width:1;" x1="0" x2="936.1177" y1="531.2695" y2="531.2695"/><rect fill="#EEEEEE" height="23.1328" style="stroke:#000000;stroke-width:2;" width="322.8071" x="306.6553" y="517.7031"/><text fill="#000000" font-family="sans-serif" font-size="13" font-weight="bold" lengthAdjust="spacing" textLength="304.2813" x="312.6553" y="533.77">Test execution &#8212; no global state touched</text><polygon fill="#181818" points="715.4795,583.1016,725.4795,587.1016,715.4795,591.1016,719.4795,587.1016" style="stroke:#181818;stroke-width:1;"/><line style="stroke:#181818;stroke-width:1;" x1="59.8799" x2="721.4795" y1="587.1016" y2="587.1016"/><text fill="#000080" font-family="sans-serif" font-size="13" font-weight="bold" lengthAdjust="spacing" textLength="29.9736" x="66.8799" y="574.4692">[06]</text><text fill="#000000" font-family="sans-serif" font-size="13" lengthAdjust="spacing" textLength="142.6318" x="100.8535" y="566.9028">MyService svc{clock}</text><text fill="#000000" font-family="sans-serif" font-size="13" lengthAdjust="spacing" textLength="124.1602" x="100.8535" y="582.0356">svc.DoSomething()</text><line style="stroke:#181818;stroke-width:1;" x1="737.4795" x2="779.4795" y1="616.2344" y2="616.2344"/><line style="stroke:#181818;stroke-width:1;" x1="779.4795" x2="779.4795" y1="616.2344" y2="629.2344"/><line style="stroke:#181818;stroke-width:1;" x1="738.4795" x2="779.4795" y1="629.2344" y2="629.2344"/><polygon fill="#181818" points="748.4795,625.2344,738.4795,629.2344,748.4795,633.2344,744.4795,629.2344" style="stroke:#181818;stroke-width:1;"/><text fill="#000080" font-family="sans-serif" font-size="13" font-weight="bold" lengthAdjust="spacing" textLength="29.9736" x="744.4795" y="611.1685">[07]</text><text fill="#000000" font-family="sans-serif" font-size="13" lengthAdjust="spacing" textLength="75.9751" x="778.4531" y="611.1685">clock.Now()</text><path d="M742,642.2344 L742,682.2344 L931,682.2344 L931,652.2344 L921,642.2344 L742,642.2344 " fill="#FEFFDD" style="stroke:#181818;stroke-width:0.5;"/><path d="M921,642.2344 L921,652.2344 L931,652.2344 L921,642.2344 " fill="#FEFFDD" style="stroke:#181818;stroke-width:0.5;"/><text fill="#000000" font-family="sans-serif" font-size="13" lengthAdjust="spacing" textLength="138.5566" x="748" y="659.3013">calls mock directly &#8212;</text><text fill="#000000" font-family="sans-serif" font-size="13" lengthAdjust="spacing" textLength="168.1177" x="748" y="674.4341">no GetInstance() involved</text><polygon fill="#181818" points="70.8799,704.6328,60.8799,708.6328,70.8799,712.6328,66.8799,708.6328" style="stroke:#181818;stroke-width:1;"/><line style="stroke:#181818;stroke-width:1;stroke-dasharray:2.0,2.0;" x1="64.8799" x2="731.4795" y1="708.6328" y2="708.6328"/><text fill="#000080" font-family="sans-serif" font-size="13" font-weight="bold" lengthAdjust="spacing" textLength="29.9736" x="76.8799" y="703.5669">[08]</text><text fill="#000000" font-family="sans-serif" font-size="13" lengthAdjust="spacing" textLength="4.1323" x="110.8535" y="703.5669">&#160;</text><rect fill="#EEEEEE" height="3" style="stroke:#EEEEEE;stroke-width:1;" width="936.1177" x="0" y="737.1992"/><line style="stroke:#000000;stroke-width:1;" x1="0" x2="936.1177" y1="737.1992" y2="737.1992"/><line style="stroke:#000000;stroke-width:1;" x1="0" x2="936.1177" y1="740.1992" y2="740.1992"/><rect fill="#EEEEEE" height="23.1328" style="stroke:#000000;stroke-width:2;" width="326.0571" x="305.0303" y="726.6328"/><text fill="#000000" font-family="sans-serif" font-size="13" font-weight="bold" lengthAdjust="spacing" textLength="307.5313" x="311.0303" y="742.6997">Teardown &#8212; shared_ptr goes out of scope</text><polygon fill="#181818" points="555.0884,776.8984,565.0884,780.8984,555.0884,784.8984,559.0884,780.8984" style="stroke:#181818;stroke-width:1;"/><line style="stroke:#181818;stroke-width:1;" x1="59.8799" x2="561.0884" y1="780.8984" y2="780.8984"/><text fill="#000080" font-family="sans-serif" font-size="13" font-weight="bold" lengthAdjust="spacing" textLength="29.9736" x="66.8799" y="775.8325">[09]</text><text fill="#000000" font-family="sans-serif" font-size="13" lengthAdjust="spacing" textLength="174.6938" x="100.8535" y="775.8325">(destructor via shared_ptr)</text><rect fill="transparent" height="95.4844" id="_legend" rx="7.5" ry="7.5" style="stroke:#000000;stroke-width:1;" width="341.3652" x="12" y="54.2969"/><text fill="#000000" font-family="sans-serif" font-size="14" font-weight="bold" lengthAdjust="spacing" textLength="41.2139" x="21.874" y="74.292">Color</text><text fill="#000000" font-family="sans-serif" font-size="14" font-weight="bold" lengthAdjust="spacing" textLength="90.5488" x="141.0723" y="74.292">Description</text><rect fill="#FFA07A" height="16.2969" style="stroke:transparent;stroke-width:1;" width="119.1982" x="17" y="77.5938"/><text fill="#000000" font-family="sans-serif" font-size="14" lengthAdjust="spacing" textLength="35.6016" x="17" y="90.5889">&#160;&#160;&#160;&#160;&#160;&#160;&#160;&#160;</text><text fill="#000000" font-family="sans-serif" font-size="14" lengthAdjust="spacing" textLength="68.1611" x="140.6484" y="90.5889">Test code</text><rect fill="#90EE90" height="16.2969" style="stroke:transparent;stroke-width:1;" width="119.1982" x="17" y="93.8906"/><text fill="#000000" font-family="sans-serif" font-size="14" lengthAdjust="spacing" textLength="40.0518" x="17" y="106.8857">&#160;&#160;&#160;&#160;&#160;&#160;&#160;&#160;&#160;</text><text fill="#000000" font-family="sans-serif" font-size="14" lengthAdjust="spacing" textLength="158.833" x="140.6484" y="106.8857">score::time framework</text><rect fill="#EEE8AA" height="16.2969" style="stroke:transparent;stroke-width:1;" width="119.1982" x="17" y="110.1875"/><text fill="#000000" font-family="sans-serif" font-size="14" lengthAdjust="spacing" textLength="26.7012" x="17" y="123.1826">&#160;&#160;&#160;&#160;&#160;&#160;</text><text fill="#000000" font-family="sans-serif" font-size="14" lengthAdjust="spacing" textLength="163.2148" x="140.6484" y="123.1826">Mock backend (GMock)</text><rect fill="#ADD8E6" height="16.2969" style="stroke:transparent;stroke-width:1;" width="119.1982" x="17" y="126.4844"/><text fill="#000000" font-family="sans-serif" font-size="14" lengthAdjust="spacing" textLength="44.502" x="17" y="139.4795">&#160;&#160;&#160;&#160;&#160;&#160;&#160;&#160;&#160;&#160;</text><text fill="#000000" font-family="sans-serif" font-size="14" lengthAdjust="spacing" textLength="159.4482" x="140.6484" y="139.4795">Application Under Test</text><line style="stroke:#000000;stroke-width:1;" x1="17" x2="348.3652" y1="61.2969" y2="61.2969"/><line style="stroke:#000000;stroke-width:1;" x1="17" x2="348.3652" y1="77.5938" y2="77.5938"/><line style="stroke:#000000;stroke-width:1;" x1="17" x2="348.3652" y1="93.8906" y2="93.8906"/><line style="stroke:#000000;stroke-width:1;" x1="17" x2="348.3652" y1="110.1875" y2="110.1875"/><line style="stroke:#000000;stroke-width:1;" x1="17" x2="348.3652" y1="126.4844" y2="126.4844"/><line style="stroke:#000000;stroke-width:1;" x1="17" x2="348.3652" y1="142.7813" y2="142.7813"/><line style="stroke:#000000;stroke-width:1;" x1="17" x2="17" y1="61.2969" y2="142.7813"/><line style="stroke:#000000;stroke-width:1;" x1="136.1982" x2="136.1982" y1="61.2969" y2="142.7813"/><line style="stroke:#000000;stroke-width:1;" x1="348.3652" x2="348.3652" y1="61.2969" y2="142.7813"/><!--SRC=[TLNRZjCm47tFLupAIuAWMl70GzL6WhAia7O1qNAHMBHodKbZwjYHxRHR0H8VmHVo9SmutJRRBkbBa_YSCtFcs0agQ8JvC_Zx-m_CqGTbbYEOQYjNVFTQo63T5jAfDJwubk_WZVcECYXhiYJnAsKQuKGD2o5NIsTRKqojfbMRIWLCAbKWbDQ6XRrDH1kiQUi5EXYCIsi2I5uwCMAzpSUB_ElPsRT1acXSeYaWs0OqbY41kdvEeAEzVz7ZL-YbKmtN0oVNpmuyVdIfbbMO2LrRa-zVneQf1YhneUi- -C8X7h04zj8w78s2ggb3SW0trgrEmU-5nWkh2pGVR97VWQ_8u6WPTvfUy6tsF-MNkiMyzn9UD8rMKiIMFvg2x8oDxC74sNcO96Gx3FZj01wLWdvdaPf65fHKZQ0P3ERditcQ3K1u2CpJDukvW6VNCVLwPiApido8y3W-rsRy2IibDSu9c4UbSfUidhb7Mkm9YvGFY-mOerQtb5XhjlM-vKUiiwqFMFTi8mbypfsSIbnjP-ZMIkArIOMKs0JVROtnN2pppZ7VtXd6Opg86HiGx9f4sDCdl2uAz8o0rcCHNQyGy5RK3Mt5mjP2cRWT-R6dN55H8Q0p87ZkIEij2BFjbJACr6yjBBLT20q-259Nx4UXIaKgpET5oNlHSPD2QzInD3-CHNEzIJAPT57o6De69fCaYObucdVEZg0MAxpnbN1OZ8ydaATPGbDLQnRdzKa4FILqP1b11xnfWZi57wJked5w3jsBqMXqHSMahD7JtO6JEvAUUkTNdm8sZZob8wyhjy0JcdrHEuxpB-_Ff_ERwOlBo_GnWvwGxPiqowxfz1b-Lbg_CnBJ3-IVCwatel6L3Lbsi1PlKRPnw_9CpD7CWcrbHVFgMyyH6y4-ZE3NyeVaNdvT6_e_V6LdjiPGKH_z2N3Y6BfdY9XXBBUBf-FOWYttuPGKYzqcAfIZGrvlkShuZYgzmF26FWE2Eyn0cRNLQomEyObgEw_wPZ9zrxzmXTrqdH-o04jBeRPjLugq3JwKlBJ0_HTehKGFd_MruY3_0G00]--></g></svg>