<svg xmlns="http://www.w3.org/2000/svg" xmlns:xlink="http://www.w3.org/1999/xlink" contentStyleType="text/css" data-diagram-type="SEQUENCE" height="1000px" preserveAspectRatio="none" style="width:960px;height:1000px;background:#FFFFFF;" version="1.1" viewBox="0 0 960 1000" width="960px" zoomAndPan="magnify"><title>VT2 &#8212; VehicleTime: Initialization and Readiness Check</title><defs/><g><text fill="#000000" font-family="sans-serif" font-size="14" font-weight="bold" lengthAdjust="spacing" textLength="431.7236" x="260.6248" y="27.9951">VT2 &#8212; VehicleTime: Initialization and Readiness Check</text><rect fill="#E6F0FF" height="840.4453" style="stroke:#181818;stroke-width:0.5;" width="88.9194" x="307" y="147.4844"/><text fill="#000000" font-family="sans-serif" font-size="13" font-weight="bold" lengthAdjust="spacing" textLength="82.9194" x="310" y="159.5513">Application</text><rect fill="#F0FFF0" height="840.4453" style="stroke:#181818;stroke-width:0.5;" width="367.3296" x="556.2363" y="147.4844"/><text fill="#000000" font-family="sans-serif" font-size="13" font-weight="bold" lengthAdjust="spacing" textLength="83.0337" x="698.3843" y="159.5513">score::time</text><g><title>VehicleClock</title><rect fill="#FFFFFF" height="29.1328" style="stroke:#181818;stroke-width:1;" width="10" x="606.8306" y="245.3438"/></g><g><title>VehicleClock</title><rect fill="#FFFFFF" height="87.3984" style="stroke:#181818;stroke-width:1;" width="10" x="606.8306" y="346.7422"/></g><g><title>VehicleClock</title><rect fill="#FFFFFF" height="87.3984" style="stroke:#181818;stroke-width:1;" width="10" x="606.8306" y="571.8047"/></g><g><title>VehicleClock</title><rect fill="#FFFFFF" height="118.5313" style="stroke:#181818;stroke-width:1;" width="10" x="606.8306" y="746.6016"/></g><g><title>VehicleClockBackend</title><rect fill="#FFFFFF" height="29.1328" style="stroke:#181818;stroke-width:1;" width="10" x="832.791" y="375.875"/></g><g><title>VehicleClockBackend</title><rect fill="#FFFFFF" height="29.1328" style="stroke:#181818;stroke-width:1;" width="10" x="832.791" y="600.9375"/></g><g><title>VehicleClockBackend</title><rect fill="#FFFFFF" height="29.1328" style="stroke:#181818;stroke-width:1;" width="10" x="832.791" y="799.8672"/></g><rect fill="transparent" height="75.3984" style="stroke:#000000;stroke-width:1.5;" width="393.7368" x="550.2363" y="761.6016"/><g><title>Business</title><rect fill="transparent" height="779.7188" width="8" x="347.4597" y="214.2109"/><line style="stroke:#181818;stroke-width:0.5;stroke-dasharray:5.0,5.0;" x1="350.592" x2="350.592" y1="214.2109" y2="993.9297"/></g><g><title>VehicleClock</title><rect fill="transparent" height="779.7188" width="8" x="607.8306" y="214.2109"/><line style="stroke:#181818;stroke-width:0.5;stroke-dasharray:5.0,5.0;" x1="611.2363" x2="611.2363" y1="214.2109" y2="993.9297"/></g><g><title>VehicleClockBackend</title><rect fill="transparent" height="779.7188" width="8" x="833.791" y="214.2109"/><line style="stroke:#181818;stroke-width:0.5;stroke-dasharray:5.0,5.0;" x1="837.0161" x2="837.0161" y1="214.2109" y2="993.9297"/></g><rect fill="#FFA07A" height="46.5938" rx="2.5" ry="2.5" style="stroke:#181818;stroke-width:0.5;" width="75.7354" x="313.592" y="166.6172"/><text fill="#000000" font-family="sans-serif" font-size="14" lengthAdjust="spacing" textLength="61.7354" x="320.592" y="186.6123">Business</text><text fill="#000000" font-family="sans-serif" font-size="14" lengthAdjust="spacing" textLength="32.9287" x="334.9954" y="202.9092">logic</text><rect fill="#90EE90" height="30.2969" rx="2.5" ry="2.5" style="stroke:#181818;stroke-width:0.5;" width="103.1885" x="560.2363" y="182.9141"/><text fill="#000000" font-family="sans-serif" font-size="14" lengthAdjust="spacing" textLength="89.1885" x="567.2363" y="202.9092">VehicleClock</text><rect fill="#F08080" height="30.2969" rx="2.5" ry="2.5" style="stroke:#181818;stroke-width:0.5;" width="163.5498" x="756.0161" y="182.9141"/><text fill="#000000" font-family="sans-serif" font-size="14" lengthAdjust="spacing" textLength="149.5498" x="763.0161" y="202.9092">VehicleClockBackend</text><g><title>VehicleClock</title><rect fill="#FFFFFF" height="29.1328" style="stroke:#181818;stroke-width:1;" width="10" x="606.8306" y="245.3438"/></g><g><title>VehicleClock</title><rect fill="#FFFFFF" height="87.3984" style="stroke:#181818;stroke-width:1;" width="10" x="606.8306" y="346.7422"/></g><g><title>VehicleClock</title><rect fill="#FFFFFF" height="87.3984" style="stroke:#181818;stroke-width:1;" width="10" x="606.8306" y="571.8047"/></g><g><title>VehicleClock</title><rect fill="#FFFFFF" height="118.5313" style="stroke:#181818;stroke-width:1;" width="10" x="606.8306" y="746.6016"/></g><g><title>VehicleClockBackend</title><rect fill="#FFFFFF" height="29.1328" style="stroke:#181818;stroke-width:1;" width="10" x="832.791" y="375.875"/></g><g><title>VehicleClockBackend</title><rect fill="#FFFFFF" height="29.1328" style="stroke:#181818;stroke-width:1;" width="10" x="832.791" y="600.9375"/></g><g><title>VehicleClockBackend</title><rect fill="#FFFFFF" height="29.1328" style="stroke:#181818;stroke-width:1;" width="10" x="832.791" y="799.8672"/></g><polygon fill="#181818" points="594.8306,241.3438,604.8306,245.3438,594.8306,249.3438,598.8306,245.3438" style="stroke:#181818;stroke-width:1;"/><line style="stroke:#181818;stroke-width:1;" x1="351.4597" x2="600.8306" y1="245.3438" y2="245.3438"/><text fill="#000080" font-family="sans-serif" font-size="13" font-weight="bold" lengthAdjust="spacing" textLength="29.9736" x="358.4597" y="240.2778">[01]</text><text fill="#000000" font-family="sans-serif" font-size="13" lengthAdjust="spacing" textLength="88.6069" x="392.4333" y="240.2778">GetInstance()</text><polygon fill="#181818" points="362.4597,270.4766,352.4597,274.4766,362.4597,278.4766,358.4597,274.4766" style="stroke:#181818;stroke-width:1;"/><line style="stroke:#181818;stroke-width:1;stroke-dasharray:2.0,2.0;" x1="356.4597" x2="610.8306" y1="274.4766" y2="274.4766"/><text fill="#000080" font-family="sans-serif" font-size="13" font-weight="bold" lengthAdjust="spacing" textLength="29.9736" x="368.4597" y="269.4106">[02]</text><text fill="#000000" font-family="sans-serif" font-size="13" lengthAdjust="spacing" textLength="44.3066" x="402.4333" y="269.4106">handle</text><rect fill="#EEEEEE" height="3" style="stroke:#EEEEEE;stroke-width:1;" width="953.9731" x="0" y="303.043"/><line style="stroke:#000000;stroke-width:1;" x1="0" x2="953.9731" y1="303.043" y2="303.043"/><line style="stroke:#000000;stroke-width:1;" x1="0" x2="953.9731" y1="306.043" y2="306.043"/><rect fill="#EEEEEE" height="23.1328" style="stroke:#000000;stroke-width:2;" width="277.9292" x="338.022" y="292.4766"/><text fill="#000000" font-family="sans-serif" font-size="13" font-weight="bold" lengthAdjust="spacing" textLength="259.4033" x="344.022" y="308.5435">Step 1 &#8212; Init: open the IPC channel</text><polygon fill="#181818" points="594.8306,342.7422,604.8306,346.7422,594.8306,350.7422,598.8306,346.7422" style="stroke:#181818;stroke-width:1;"/><line style="stroke:#181818;stroke-width:1;" x1="351.4597" x2="600.8306" y1="346.7422" y2="346.7422"/><text fill="#000080" font-family="sans-serif" font-size="13" font-weight="bold" lengthAdjust="spacing" textLength="29.9736" x="358.4597" y="341.6763">[03]</text><text fill="#000000" font-family="sans-serif" font-size="13" lengthAdjust="spacing" textLength="30.9258" x="392.4333" y="341.6763">Init()</text><polygon fill="#181818" points="820.791,371.875,830.791,375.875,820.791,379.875,824.791,375.875" style="stroke:#181818;stroke-width:1;"/><line style="stroke:#181818;stroke-width:1;" x1="616.8306" x2="826.791" y1="375.875" y2="375.875"/><text fill="#000080" font-family="sans-serif" font-size="13" font-weight="bold" lengthAdjust="spacing" textLength="29.9736" x="623.8306" y="370.8091">[04]</text><text fill="#000000" font-family="sans-serif" font-size="13" lengthAdjust="spacing" textLength="30.9258" x="657.8042" y="370.8091">Init()</text><polygon fill="#181818" points="627.8306,401.0078,617.8306,405.0078,627.8306,409.0078,623.8306,405.0078" style="stroke:#181818;stroke-width:1;"/><line style="stroke:#181818;stroke-width:1;stroke-dasharray:2.0,2.0;" x1="621.8306" x2="836.791" y1="405.0078" y2="405.0078"/><text fill="#000080" font-family="sans-serif" font-size="13" font-weight="bold" lengthAdjust="spacing" textLength="29.9736" x="633.8306" y="399.9419">[05]</text><text fill="#000000" font-family="sans-serif" font-size="13" lengthAdjust="spacing" textLength="157.9868" x="667.8042" y="399.9419">true  (IPC channel open)</text><polygon fill="#181818" points="362.4597,430.1406,352.4597,434.1406,362.4597,438.1406,358.4597,434.1406" style="stroke:#181818;stroke-width:1;"/><line style="stroke:#181818;stroke-width:1;stroke-dasharray:2.0,2.0;" x1="356.4597" x2="610.8306" y1="434.1406" y2="434.1406"/><text fill="#000080" font-family="sans-serif" font-size="13" font-weight="bold" lengthAdjust="spacing" textLength="29.9736" x="368.4597" y="429.0747">[06]</text><text fill="#000000" font-family="sans-serif" font-size="13" lengthAdjust="spacing" textLength="26.6792" x="402.4333" y="429.0747">true</text><path d="M616,447.1406 L616,502.1406 L834,502.1406 L834,457.1406 L824,447.1406 L616,447.1406 " fill="#FEFFDD" style="stroke:#181818;stroke-width:0.5;"/><path d="M824,447.1406 L824,457.1406 L834,457.1406 L824,447.1406 " fill="#FEFFDD" style="stroke:#181818;stroke-width:0.5;"/><text fill="#000000" font-family="sans-serif" font-size="13" lengthAdjust="spacing" textLength="110.6079" x="622" y="464.2075">is_ready_ = true.</text><text fill="#000000" font-family="sans-serif" font-size="13" lengthAdjust="spacing" textLength="197.4248" x="622" y="479.3403">IsAvailable() now returns true.</text><text fill="#000000" font-family="sans-serif" font-size="13" lengthAdjust="spacing" textLength="156.2222" x="622" y="494.4731">Now() returns real data.</text><rect fill="#EEEEEE" height="3" style="stroke:#EEEEEE;stroke-width:1;" width="953.9731" x="0" y="528.1055"/><line style="stroke:#000000;stroke-width:1;" x1="0" x2="953.9731" y1="528.1055" y2="528.1055"/><line style="stroke:#000000;stroke-width:1;" x1="0" x2="953.9731" y1="531.1055" y2="531.1055"/><rect fill="#EEEEEE" height="23.1328" style="stroke:#000000;stroke-width:2;" width="378.0444" x="287.9644" y="517.5391"/><text fill="#000000" font-family="sans-serif" font-size="13" font-weight="bold" lengthAdjust="spacing" textLength="359.5186" x="293.9644" y="533.606">Step 2 &#8212; Optional: non-blocking readiness probe</text><polygon fill="#181818" points="594.8306,567.8047,604.8306,571.8047,594.8306,575.8047,598.8306,571.8047" style="stroke:#181818;stroke-width:1;"/><line style="stroke:#181818;stroke-width:1;" x1="351.4597" x2="600.8306" y1="571.8047" y2="571.8047"/><text fill="#000080" font-family="sans-serif" font-size="13" font-weight="bold" lengthAdjust="spacing" textLength="29.9736" x="358.4597" y="566.7388">[07]</text><text fill="#000000" font-family="sans-serif" font-size="13" lengthAdjust="spacing" textLength="80.355" x="392.4333" y="566.7388">IsAvailable()</text><polygon fill="#181818" points="820.791,596.9375,830.791,600.9375,820.791,604.9375,824.791,600.9375" style="stroke:#181818;stroke-width:1;"/><line style="stroke:#181818;stroke-width:1;" x1="616.8306" x2="826.791" y1="600.9375" y2="600.9375"/><text fill="#000080" font-family="sans-serif" font-size="13" font-weight="bold" lengthAdjust="spacing" textLength="29.9736" x="623.8306" y="595.8716">[08]</text><text fill="#000000" font-family="sans-serif" font-size="13" lengthAdjust="spacing" textLength="80.355" x="657.8042" y="595.8716">IsAvailable()</text><polygon fill="#181818" points="627.8306,626.0703,617.8306,630.0703,627.8306,634.0703,623.8306,630.0703" style="stroke:#181818;stroke-width:1;"/><line style="stroke:#181818;stroke-width:1;stroke-dasharray:2.0,2.0;" x1="621.8306" x2="836.791" y1="630.0703" y2="630.0703"/><text fill="#000080" font-family="sans-serif" font-size="13" font-weight="bold" lengthAdjust="spacing" textLength="29.9736" x="633.8306" y="625.0044">[09]</text><text fill="#000000" font-family="sans-serif" font-size="13" lengthAdjust="spacing" textLength="26.6792" x="667.8042" y="625.0044">true</text><polygon fill="#181818" points="362.4597,655.2031,352.4597,659.2031,362.4597,663.2031,358.4597,659.2031" style="stroke:#181818;stroke-width:1;"/><line style="stroke:#181818;stroke-width:1;stroke-dasharray:2.0,2.0;" x1="356.4597" x2="610.8306" y1="659.2031" y2="659.2031"/><text fill="#000080" font-family="sans-serif" font-size="13" font-weight="bold" lengthAdjust="spacing" textLength="29.9736" x="368.4597" y="654.1372">[10]</text><text fill="#000000" font-family="sans-serif" font-size="13" lengthAdjust="spacing" textLength="26.6792" x="402.4333" y="654.1372">true</text><rect fill="#EEEEEE" height="3" style="stroke:#EEEEEE;stroke-width:1;" width="953.9731" x="0" y="687.7695"/><line style="stroke:#000000;stroke-width:1;" x1="0" x2="953.9731" y1="687.7695" y2="687.7695"/><line style="stroke:#000000;stroke-width:1;" x1="0" x2="953.9731" y1="690.7695" y2="690.7695"/><rect fill="#EEEEEE" height="23.1328" style="stroke:#000000;stroke-width:2;" width="412.9058" x="270.5337" y="677.2031"/><text fill="#000000" font-family="sans-serif" font-size="13" font-weight="bold" lengthAdjust="spacing" textLength="394.3799" x="276.5337" y="693.27">Alternative: blocking wait with stop_token + deadline</text><polygon fill="#181818" points="594.8306,742.6016,604.8306,746.6016,594.8306,750.6016,598.8306,746.6016" style="stroke:#181818;stroke-width:1;"/><line style="stroke:#181818;stroke-width:1;" x1="351.4597" x2="600.8306" y1="746.6016" y2="746.6016"/><text fill="#000080" font-family="sans-serif" font-size="13" font-weight="bold" lengthAdjust="spacing" textLength="29.9736" x="358.4597" y="733.9692">[11]</text><text fill="#000000" font-family="sans-serif" font-size="13" lengthAdjust="spacing" textLength="199.8052" x="392.4333" y="726.4028">WaitUntilAvailable(stop_token,</text><text fill="#000000" font-family="sans-serif" font-size="13" lengthAdjust="spacing" textLength="176.9409" x="400.698" y="741.5356">steady_clock::now() + 30s)</text><path d="M550.2363,761.6016 L626.8604,761.6016 L626.8604,768.7344 L616.8604,778.7344 L550.2363,778.7344 L550.2363,761.6016 " fill="#EEEEEE" style="stroke:#000000;stroke-width:1.5;"/><rect fill="transparent" height="75.3984" style="stroke:#000000;stroke-width:1.5;" width="393.7368" x="550.2363" y="761.6016"/><text fill="#000000" font-family="sans-serif" font-size="13" font-weight="bold" lengthAdjust="spacing" textLength="31.624" x="565.2363" y="774.6685">loop</text><text fill="#000000" font-family="sans-serif" font-size="11" font-weight="bold" lengthAdjust="spacing" textLength="297.1128" x="641.8604" y="773.812">[until available OR deadline OR stop requested]</text><polygon fill="#181818" points="820.791,795.8672,830.791,799.8672,820.791,803.8672,824.791,799.8672" style="stroke:#181818;stroke-width:1;"/><line style="stroke:#181818;stroke-width:1;" x1="616.8306" x2="826.791" y1="799.8672" y2="799.8672"/><text fill="#000080" font-family="sans-serif" font-size="13" font-weight="bold" lengthAdjust="spacing" textLength="29.9736" x="623.8306" y="794.8013">[12]</text><text fill="#000000" font-family="sans-serif" font-size="13" lengthAdjust="spacing" textLength="80.355" x="657.8042" y="794.8013">IsAvailable()</text><polygon fill="#181818" points="627.8306,825,617.8306,829,627.8306,833,623.8306,829" style="stroke:#181818;stroke-width:1;"/><line style="stroke:#181818;stroke-width:1;stroke-dasharray:2.0,2.0;" x1="621.8306" x2="836.791" y1="829" y2="829"/><text fill="#000080" font-family="sans-serif" font-size="13" font-weight="bold" lengthAdjust="spacing" textLength="29.9736" x="633.8306" y="823.9341">[13]</text><text fill="#000000" font-family="sans-serif" font-size="13" lengthAdjust="spacing" textLength="27.771" x="667.8042" y="823.9341">bool</text><polygon fill="#181818" points="362.4597,861.1328,352.4597,865.1328,362.4597,869.1328,358.4597,865.1328" style="stroke:#181818;stroke-width:1;"/><line style="stroke:#181818;stroke-width:1;stroke-dasharray:2.0,2.0;" x1="356.4597" x2="610.8306" y1="865.1328" y2="865.1328"/><text fill="#000080" font-family="sans-serif" font-size="13" font-weight="bold" lengthAdjust="spacing" textLength="29.9736" x="368.4597" y="860.0669">[14]</text><text fill="#000000" font-family="sans-serif" font-size="13" lengthAdjust="spacing" textLength="155.7905" x="402.4333" y="860.0669">true (became available)</text><path d="M5,878.1328 L5,978.1328 L346,978.1328 L346,888.1328 L336,878.1328 L5,878.1328 " fill="#FEFFDD" style="stroke:#181818;stroke-width:0.5;"/><path d="M336,878.1328 L336,888.1328 L346,888.1328 L336,878.1328 " fill="#FEFFDD" style="stroke:#181818;stroke-width:0.5;"/><text fill="#000000" font-family="sans-serif" font-size="13" lengthAdjust="spacing" textLength="256.2168" x="11" y="895.1997">Only Clock&lt;Tag&gt; domains that require</text><text fill="#000000" font-family="sans-serif" font-size="13" lengthAdjust="spacing" textLength="220.2002" x="11" y="910.3325">explicit initialization expose Init(),</text><text fill="#000000" font-family="sans-serif" font-size="13" lengthAdjust="spacing" textLength="246.562" x="11" y="925.4653">IsAvailable() and WaitUntilAvailable().</text><text fill="#000000" font-family="sans-serif" font-size="13" lengthAdjust="spacing" textLength="320.8169" x="11" y="940.5981">HighResSteadyTime / SteadyClock / SystemClock</text><text fill="#000000" font-family="sans-serif" font-size="13" lengthAdjust="spacing" textLength="276.5229" x="11" y="955.731">are always ready &#8212; calling these methods</text><text fill="#000000" font-family="sans-serif" font-size="13" lengthAdjust="spacing" textLength="176.5601" x="11" y="970.8638">on them is a compile error.</text><rect fill="transparent" height="79.1875" id="_legend" rx="7.5" ry="7.5" style="stroke:#000000;stroke-width:1;" width="332.54" x="12" y="54.2969"/><text fill="#000000" font-family="sans-serif" font-size="14" font-weight="bold" lengthAdjust="spacing" textLength="41.2139" x="21.874" y="74.292">Color</text><text fill="#000000" font-family="sans-serif" font-size="14" font-weight="bold" lengthAdjust="spacing" textLength="90.5488" x="141.0723" y="74.292">Description</text><rect fill="#FFA07A" height="16.2969" style="stroke:transparent;stroke-width:1;" width="119.1982" x="17" y="77.5938"/><text fill="#000000" font-family="sans-serif" font-size="14" lengthAdjust="spacing" textLength="35.6016" x="17" y="90.5889">&#160;&#160;&#160;&#160;&#160;&#160;&#160;&#160;</text><text fill="#000000" font-family="sans-serif" font-size="14" lengthAdjust="spacing" textLength="181.0703" x="140.6484" y="90.5889">Application business logic</text><rect fill="#90EE90" height="16.2969" style="stroke:transparent;stroke-width:1;" width="119.1982" x="17" y="93.8906"/><text fill="#000000" font-family="sans-serif" font-size="14" lengthAdjust="spacing" textLength="40.0518" x="17" y="106.8857">&#160;&#160;&#160;&#160;&#160;&#160;&#160;&#160;&#160;</text><text fill="#000000" font-family="sans-serif" font-size="14" lengthAdjust="spacing" textLength="158.833" x="140.6484" y="106.8857">score::time framework</text><rect fill="#F08080" height="16.2969" style="stroke:transparent;stroke-width:1;" width="119.1982" x="17" y="110.1875"/><text fill="#000000" font-family="sans-serif" font-size="14" lengthAdjust="spacing" textLength="40.0518" x="17" y="123.1826">&#160;&#160;&#160;&#160;&#160;&#160;&#160;&#160;&#160;</text><text fill="#000000" font-family="sans-serif" font-size="14" lengthAdjust="spacing" textLength="149.9395" x="140.6484" y="123.1826">VehicleTime backend</text><line style="stroke:#000000;stroke-width:1;" x1="17" x2="339.54" y1="61.2969" y2="61.2969"/><line style="stroke:#000000;stroke-width:1;" x1="17" x2="339.54" y1="77.5938" y2="77.5938"/><line style="stroke:#000000;stroke-width:1;" x1="17" x2="339.54" y1="93.8906" y2="93.8906"/><line style="stroke:#000000;stroke-width:1;" x1="17" x2="339.54" y1="110.1875" y2="110.1875"/><line style="stroke:#000000;stroke-width:1;" x1="17" x2="339.54" y1="126.4844" y2="126.4844"/><line style="stroke:#000000;stroke-width:1;" x1="17" x2="17" y1="61.2969" y2="126.4844"/><line style="stroke:#000000;stroke-width:1;" x1="136.1982" x2="136.1982" y1="61.2969" y2="126.4844"/><line style="stroke:#000000;stroke-width:1;" x1="339.54" x2="339.54" y1="61.2969" y2="126.4844"/><!--SRC=[fLLDRzD04BtxLupIIoEQ4a3YO2MHsY2LI8YYjfG3HTNO7iUhh7VDxgPfK0_y27uXluJPTJxSng58-6JlpdixxytEs0ad2QwlNiFldx_WcWgHIheI9SKmKS89bE87Eg4LeChWWZ0JYgo5SK7fB8hiJAWA3PQGO3gR6ZrNsLXBRM1H24TH8JA2N6kNwFi8vqwhUPcGWSuWryf1waE72k-Meq4o-jhlV-j4aQGfyLbELo0fTn7myp24clRnmylloAP6L275dUUX1WyEFeXfuIvHbbgDDfjmKbLIfBMyP6vhPL9FHReBFZD4Moo3RQeDnR5Zho1d1sYXpMpFoMDjK3R13QE3SrvmCst-hcs88dOEEerCEt10R_D-deSJs7mdKb4XkzavNMcuKK541z02LXKqvNjgyDMeYHigcDZJvlrTubMwOwdJMM1D_HiqdFaxvhIM6A1hkGrdjZdvR7kZ5NqCP-GcoZfKAHrs8qoTk4D7zNPK1_KutADYAD2R5cNq92uQ3k7IKGMlmXttrpe6NP42Ln1CFeqXPQWY2SFXJWO-Uk_HeusOtS3LJhIEw3L8dPaJm67pQ9zFjvdx6lzKfSUsQ5IQturt57I-MlGb4VRMSDCkRs4OeCTXTM9Fxb18J2Jx2aelm92R6sKRCH_rWlVMwqmY8KE7nw5O_hYjiVNmE0zDY3BcNTLBV0f2JJroDJCgenDgDRcPphzutHx_dEN_OIyhFP6EZE8MlEFPk56tGE5W8Lm1bWVMhTFC2Y-06JB9gjlKVc78P-M4t8hOOezkU8nP5qeM076iGY5Um9k-tJ57QfwISqy6k6Q3yulj-VpkoRaAt-V4l5cexREU-g0Th_nYcxU9rZ9ijlYxpsCuJ2ZbeRbDkxllLlkVWB_K30wdd2kvX31M1bSu7K6cInJ-wXReWavXA0JIlH-QN1_n-4_6wzhIgcEFMXh2_-fQgjIj6-CzTza5sSjGf331NqBz4PBoNqjskXnlcX0DwvGBN8O-ofQXNLAKqjyW7aASJ4ckq9aDuJfCff9x5v1_aMKbkAXaZ3QDvli3]--></g></svg>