<svg xmlns="http://www.w3.org/2000/svg" xmlns:xlink="http://www.w3.org/1999/xlink" contentStyleType="text/css" data-diagram-type="DESCRIPTION" height="893px" preserveAspectRatio="none" style="width:2019px;height:893px;background:#FFFFFF;" version="1.1" viewBox="0 0 2019 893" width="2019px" zoomAndPan="magnify"><title>score::time &#8212; Architecture Layers</title><defs/><g><text fill="#000000" font-family="sans-serif" font-size="14" font-weight="bold" lengthAdjust="spacing" textLength="268.6182" x="868.1909" y="22.9951">score::time &#8212; Architecture Layers</text><rect fill="transparent" height="79.1875" id="_legend" rx="7.5" ry="7.5" style="stroke:#000000;stroke-width:1;" width="341.3926" x="12" y="49.2969"/><rect fill="#ADD8E6" height="16.2969" style="stroke:transparent;stroke-width:1;" width="31.1514" x="17" y="56.2969"/><text fill="#000000" font-family="sans-serif" font-size="14" lengthAdjust="spacing" textLength="13.3506" x="17" y="69.292">&#160;&#160;&#160;</text><text fill="#000000" font-family="sans-serif" font-size="14" lengthAdjust="spacing" textLength="262.3701" x="52.6016" y="69.292">Public headers (clients include these)</text><rect fill="#90EE90" height="16.2969" style="stroke:transparent;stroke-width:1;" width="31.1514" x="17" y="72.5938"/><text fill="#000000" font-family="sans-serif" font-size="14" lengthAdjust="spacing" textLength="8.9004" x="17" y="85.5889">&#160;&#160;</text><text fill="#000000" font-family="sans-serif" font-size="14" lengthAdjust="spacing" textLength="237.9385" x="52.6016" y="85.5889">Framework layer (clock/ package)</text><rect fill="#F5DEB3" height="16.2969" style="stroke:transparent;stroke-width:1;" width="31.1514" x="17" y="88.8906"/><text fill="#000000" font-family="sans-serif" font-size="14" lengthAdjust="spacing" textLength="31.1514" x="17" y="101.8857">&#160;&#160;&#160;&#160;&#160;&#160;&#160;</text><text fill="#000000" font-family="sans-serif" font-size="14" lengthAdjust="spacing" textLength="190.6748" x="52.6016" y="101.8857">Time-domain tag packages</text><rect fill="#F08080" height="16.2969" style="stroke:transparent;stroke-width:1;" width="31.1514" x="17" y="105.1875"/><text fill="#000000" font-family="sans-serif" font-size="14" lengthAdjust="spacing" textLength="8.9004" x="17" y="118.1826">&#160;&#160;</text><text fill="#000000" font-family="sans-serif" font-size="14" lengthAdjust="spacing" textLength="266.1777" x="52.6016" y="118.1826">Internal details (clients never include)</text><line style="stroke:#000000;stroke-width:1;" x1="17" x2="348.3926" y1="56.2969" y2="56.2969"/><line style="stroke:#000000;stroke-width:1;" x1="17" x2="348.3926" y1="72.5938" y2="72.5938"/><line style="stroke:#000000;stroke-width:1;" x1="17" x2="348.3926" y1="88.8906" y2="88.8906"/><line style="stroke:#000000;stroke-width:1;" x1="17" x2="348.3926" y1="105.1875" y2="105.1875"/><line style="stroke:#000000;stroke-width:1;" x1="17" x2="348.3926" y1="121.4844" y2="121.4844"/><line style="stroke:#000000;stroke-width:1;" x1="17" x2="17" y1="56.2969" y2="121.4844"/><line style="stroke:#000000;stroke-width:1;" x1="48.1514" x2="48.1514" y1="56.2969" y2="121.4844"/><line style="stroke:#000000;stroke-width:1;" x1="348.3926" x2="348.3926" y1="56.2969" y2="121.4844"/><!--cluster Client Code--><g id="cluster_Client Code"><rect fill="#FFFFE0" height="97" rx="2.5" ry="2.5" style="stroke:#181818;stroke-width:1;" width="289" x="1218" y="148.4844"/><text fill="#000000" font-family="sans-serif" font-size="14" font-weight="bold" lengthAdjust="spacing" textLength="90.3096" x="1317.3452" y="163.4795">Client Code</text></g><!--cluster Public Interface ? clock/--><g id="cluster_Public Interface &#8212; clock/"><rect fill="#90EE90" height="203" rx="2.5" ry="2.5" style="stroke:#181818;stroke-width:1;" width="854" x="471" y="269.4844"/><text fill="#000000" font-family="sans-serif" font-size="14" font-weight="bold" lengthAdjust="spacing" textLength="193.8057" x="801.0972" y="284.4795">Public Interface &#8212; clock/</text></g><!--cluster Test utilities ? clock/ (testonly)--><g id="cluster_Test utilities &#8212; clock/ (testonly)"><rect fill="#FFFFE0" height="97" rx="2.5" ry="2.5" style="stroke:#181818;stroke-width:1;" width="664" x="1349" y="269.4844"/><text fill="#000000" font-family="sans-serif" font-size="14" font-weight="bold" lengthAdjust="spacing" textLength="250.8994" x="1555.5503" y="284.4795">Test utilities &#8212; clock/ (testonly)</text></g><!--cluster Time-Domain Tags--><g id="cluster_Time-Domain Tags"><rect fill="#F5DEB3" height="391" rx="2.5" ry="2.5" style="stroke:#181818;stroke-width:1;" width="1329" x="7" y="496.4844"/><text fill="#000000" font-family="sans-serif" font-size="14" font-weight="bold" lengthAdjust="spacing" textLength="146.5078" x="598.2461" y="511.4795">Time-Domain Tags</text></g><!--cluster vehicle_time/--><g id="cluster_vehicle_time/"><rect fill="transparent" height="203" rx="2.5" ry="2.5" style="stroke:#181818;stroke-width:1;" width="407" x="905" y="539.4844"/><text fill="#000000" font-family="sans-serif" font-size="14" font-weight="bold" lengthAdjust="spacing" textLength="103.667" x="1056.6665" y="554.4795">vehicle_time/</text></g><!--cluster high_res_steady_time/--><g id="cluster_high_res_steady_time/"><rect fill="transparent" height="97" rx="2.5" ry="2.5" style="stroke:#181818;stroke-width:1;" width="242" x="639" y="539.4844"/><text fill="#000000" font-family="sans-serif" font-size="14" font-weight="bold" lengthAdjust="spacing" textLength="174.2891" x="672.8555" y="554.4795">high_res_steady_time/</text></g><!--cluster steady_time/--><g id="cluster_steady_time/"><rect fill="transparent" height="97" rx="2.5" ry="2.5" style="stroke:#181818;stroke-width:1;" width="278" x="337" y="539.4844"/><text fill="#000000" font-family="sans-serif" font-size="14" font-weight="bold" lengthAdjust="spacing" textLength="100.8027" x="425.5986" y="554.4795">steady_time/</text></g><!--cluster system_time/--><g id="cluster_system_time/"><rect fill="transparent" height="97" rx="2.5" ry="2.5" style="stroke:#181818;stroke-width:1;" width="282" x="31" y="539.4844"/><text fill="#000000" font-family="sans-serif" font-size="14" font-weight="bold" lengthAdjust="spacing" textLength="104.2549" x="119.8726" y="554.4795">system_time/</text></g><!--cluster ptp/--><g id="cluster_ptp/"><rect fill="transparent" height="97" rx="2.5" ry="2.5" style="stroke:#181818;stroke-width:1;" width="565" x="747" y="766.4844"/><text fill="#000000" font-family="sans-serif" font-size="14" font-weight="bold" lengthAdjust="spacing" textLength="31.8486" x="1013.5757" y="781.4795">ptp/</text></g><!--cluster Internal ? details/ (never included by clients)--><g id="cluster_Internal &#8212; details/ (never included by clients)"><rect fill="#F08080" height="203" rx="2.5" ry="2.5" style="stroke:#181818;stroke-width:1;" width="503" x="1360" y="539.4844"/><text fill="#000000" font-family="sans-serif" font-size="14" font-weight="bold" lengthAdjust="spacing" textLength="361.1084" x="1430.9458" y="554.4795">Internal &#8212; details/ (never included by clients)</text></g><!--entity app--><g id="elem_app"><rect fill="#F1F1F1" height="46.2969" rx="2.5" ry="2.5" style="stroke:#181818;stroke-width:0.5;" width="118.2236" x="1234" y="183.4844"/><rect fill="#F1F1F1" height="10" style="stroke:#181818;stroke-width:0.5;" width="15" x="1332.2236" y="188.4844"/><rect fill="#F1F1F1" height="2" style="stroke:#181818;stroke-width:0.5;" width="4" x="1330.2236" y="190.4844"/><rect fill="#F1F1F1" height="2" style="stroke:#181818;stroke-width:0.5;" width="4" x="1330.2236" y="194.4844"/><text fill="#000000" font-family="sans-serif" font-size="14" lengthAdjust="spacing" textLength="78.2236" x="1249" y="216.4795">Application</text></g><!--entity test--><g id="elem_test"><rect fill="#F1F1F1" height="46.2969" rx="2.5" ry="2.5" style="stroke:#181818;stroke-width:0.5;" width="102.8975" x="1387.5" y="183.4844"/><rect fill="#F1F1F1" height="10" style="stroke:#181818;stroke-width:0.5;" width="15" x="1470.3975" y="188.4844"/><rect fill="#F1F1F1" height="2" style="stroke:#181818;stroke-width:0.5;" width="4" x="1468.3975" y="190.4844"/><rect fill="#F1F1F1" height="2" style="stroke:#181818;stroke-width:0.5;" width="4" x="1468.3975" y="194.4844"/><text fill="#000000" font-family="sans-serif" font-size="14" lengthAdjust="spacing" textLength="62.8975" x="1402.5" y="216.4795">Unit Test</text></g><!--entity clock--><g id="elem_clock"><rect fill="#F1F1F1" height="46.2969" rx="2.5" ry="2.5" style="stroke:#181818;stroke-width:0.5;" width="127.5137" x="819" y="410.4844"/><rect fill="#F1F1F1" height="10" style="stroke:#181818;stroke-width:0.5;" width="15" x="926.5137" y="415.4844"/><rect fill="#F1F1F1" height="2" style="stroke:#181818;stroke-width:0.5;" width="4" x="924.5137" y="417.4844"/><rect fill="#F1F1F1" height="2" style="stroke:#181818;stroke-width:0.5;" width="4" x="924.5137" y="421.4844"/><text fill="#000000" font-family="sans-serif" font-size="14" lengthAdjust="spacing" textLength="87.5137" x="834" y="443.4795">Clock&lt;Tag&gt;</text></g><!--entity vclock--><g id="elem_vclock"><rect fill="#F1F1F1" height="46.2969" rx="2.5" ry="2.5" style="stroke:#181818;stroke-width:0.5;" width="165.8701" x="1143" y="304.4844"/><rect fill="#F1F1F1" height="10" style="stroke:#181818;stroke-width:0.5;" width="15" x="1288.8701" y="309.4844"/><rect fill="#F1F1F1" height="2" style="stroke:#181818;stroke-width:0.5;" width="4" x="1286.8701" y="311.4844"/><rect fill="#F1F1F1" height="2" style="stroke:#181818;stroke-width:0.5;" width="4" x="1286.8701" y="315.4844"/><text fill="#000000" font-family="sans-serif" font-size="14" lengthAdjust="spacing" textLength="125.8701" x="1158" y="337.4795">VehicleClock alias</text></g><!--entity hclock--><g id="elem_hclock"><rect fill="#F1F1F1" height="46.2969" rx="2.5" ry="2.5" style="stroke:#181818;stroke-width:0.5;" width="221.2686" x="886.5" y="304.4844"/><rect fill="#F1F1F1" height="10" style="stroke:#181818;stroke-width:0.5;" width="15" x="1087.7686" y="309.4844"/><rect fill="#F1F1F1" height="2" style="stroke:#181818;stroke-width:0.5;" width="4" x="1085.7686" y="311.4844"/><rect fill="#F1F1F1" height="2" style="stroke:#181818;stroke-width:0.5;" width="4" x="1085.7686" y="315.4844"/><text fill="#000000" font-family="sans-serif" font-size="14" lengthAdjust="spacing" textLength="181.2686" x="901.5" y="337.4795">HighResSteadyClock alias</text></g><!--entity sclock--><g id="elem_sclock"><rect fill="#F1F1F1" height="46.2969" rx="2.5" ry="2.5" style="stroke:#181818;stroke-width:0.5;" width="163.457" x="688.5" y="304.4844"/><rect fill="#F1F1F1" height="10" style="stroke:#181818;stroke-width:0.5;" width="15" x="831.957" y="309.4844"/><rect fill="#F1F1F1" height="2" style="stroke:#181818;stroke-width:0.5;" width="4" x="829.957" y="311.4844"/><rect fill="#F1F1F1" height="2" style="stroke:#181818;stroke-width:0.5;" width="4" x="829.957" y="315.4844"/><text fill="#000000" font-family="sans-serif" font-size="14" lengthAdjust="spacing" textLength="123.457" x="703.5" y="337.4795">SteadyClock alias</text></g><!--entity sysclock--><g id="elem_sysclock"><rect fill="#F1F1F1" height="46.2969" rx="2.5" ry="2.5" style="stroke:#181818;stroke-width:0.5;" width="166.9229" x="486.5" y="304.4844"/><rect fill="#F1F1F1" height="10" style="stroke:#181818;stroke-width:0.5;" width="15" x="633.4229" y="309.4844"/><rect fill="#F1F1F1" height="2" style="stroke:#181818;stroke-width:0.5;" width="4" x="631.4229" y="311.4844"/><rect fill="#F1F1F1" height="2" style="stroke:#181818;stroke-width:0.5;" width="4" x="631.4229" y="315.4844"/><text fill="#000000" font-family="sans-serif" font-size="14" lengthAdjust="spacing" textLength="126.9229" x="501.5" y="337.4795">SystemClock alias</text></g><!--entity guard--><g id="elem_guard"><rect fill="#F1F1F1" height="46.2969" rx="2.5" ry="2.5" style="stroke:#181818;stroke-width:0.5;" width="312.624" x="1683.5" y="304.4844"/><rect fill="#F1F1F1" height="10" style="stroke:#181818;stroke-width:0.5;" width="15" x="1976.124" y="309.4844"/><rect fill="#F1F1F1" height="2" style="stroke:#181818;stroke-width:0.5;" width="4" x="1974.124" y="311.4844"/><rect fill="#F1F1F1" height="2" style="stroke:#181818;stroke-width:0.5;" width="4" x="1974.124" y="315.4844"/><text fill="#000000" font-family="sans-serif" font-size="14" lengthAdjust="spacing" textLength="272.624" x="1698.5" y="337.4795">test_utils::ScopedClockOverride&lt;Tag&gt;</text></g><!--entity factory--><g id="elem_factory"><rect fill="#F1F1F1" height="46.2969" rx="2.5" ry="2.5" style="stroke:#181818;stroke-width:0.5;" width="282.6416" x="1365.5" y="304.4844"/><rect fill="#F1F1F1" height="10" style="stroke:#181818;stroke-width:0.5;" width="15" x="1628.1416" y="309.4844"/><rect fill="#F1F1F1" height="2" style="stroke:#181818;stroke-width:0.5;" width="4" x="1626.1416" y="311.4844"/><rect fill="#F1F1F1" height="2" style="stroke:#181818;stroke-width:0.5;" width="4" x="1626.1416" y="315.4844"/><text fill="#000000" font-family="sans-serif" font-size="14" lengthAdjust="spacing" textLength="242.6416" x="1380.5" y="337.4795">test_utils::ClockTestFactory&lt;Tag&gt;</text></g><!--entity vtag--><g id="elem_vtag"><rect fill="#F1F1F1" height="46.2969" rx="2.5" ry="2.5" style="stroke:#181818;stroke-width:0.5;" width="153.251" x="929.5" y="574.4844"/><rect fill="#F1F1F1" height="10" style="stroke:#181818;stroke-width:0.5;" width="15" x="1062.751" y="579.4844"/><rect fill="#F1F1F1" height="2" style="stroke:#181818;stroke-width:0.5;" width="4" x="1060.751" y="581.4844"/><rect fill="#F1F1F1" height="2" style="stroke:#181818;stroke-width:0.5;" width="4" x="1060.751" y="585.4844"/><text fill="#000000" font-family="sans-serif" font-size="14" lengthAdjust="spacing" textLength="113.251" x="944.5" y="607.4795">VehicleTime tag</text></g><!--entity vstatus--><g id="elem_vstatus"><rect fill="#F1F1F1" height="46.2969" rx="2.5" ry="2.5" style="stroke:#181818;stroke-width:0.5;" width="170.457" x="921" y="680.4844"/><rect fill="#F1F1F1" height="10" style="stroke:#181818;stroke-width:0.5;" width="15" x="1071.457" y="685.4844"/><rect fill="#F1F1F1" height="2" style="stroke:#181818;stroke-width:0.5;" width="4" x="1069.457" y="687.4844"/><rect fill="#F1F1F1" height="2" style="stroke:#181818;stroke-width:0.5;" width="4" x="1069.457" y="691.4844"/><text fill="#000000" font-family="sans-serif" font-size="14" lengthAdjust="spacing" textLength="130.457" x="936" y="713.4795">VehicleTimeStatus</text></g><!--entity vcb--><g id="elem_vcb"><rect fill="#F1F1F1" height="46.2969" rx="2.5" ry="2.5" style="stroke:#181818;stroke-width:0.5;" width="170.2314" x="1126" y="680.4844"/><rect fill="#F1F1F1" height="10" style="stroke:#181818;stroke-width:0.5;" width="15" x="1276.2314" y="685.4844"/><rect fill="#F1F1F1" height="2" style="stroke:#181818;stroke-width:0.5;" width="4" x="1274.2314" y="687.4844"/><rect fill="#F1F1F1" height="2" style="stroke:#181818;stroke-width:0.5;" width="4" x="1274.2314" y="691.4844"/><text fill="#000000" font-family="sans-serif" font-size="14" lengthAdjust="spacing" textLength="130.2314" x="1141" y="713.4795">PTP callback types</text></g><!--entity htag--><g id="elem_htag"><rect fill="#F1F1F1" height="46.2969" rx="2.5" ry="2.5" style="stroke:#181818;stroke-width:0.5;" width="208.6494" x="655.5" y="574.4844"/><rect fill="#F1F1F1" height="10" style="stroke:#181818;stroke-width:0.5;" width="15" x="844.1494" y="579.4844"/><rect fill="#F1F1F1" height="2" style="stroke:#181818;stroke-width:0.5;" width="4" x="842.1494" y="581.4844"/><rect fill="#F1F1F1" height="2" style="stroke:#181818;stroke-width:0.5;" width="4" x="842.1494" y="585.4844"/><text fill="#000000" font-family="sans-serif" font-size="14" lengthAdjust="spacing" textLength="168.6494" x="670.5" y="607.4795">HighResSteadyTime tag</text></g><!--entity stag--><g id="elem_stag"><rect fill="#F1F1F1" height="46.2969" rx="2.5" ry="2.5" style="stroke:#181818;stroke-width:0.5;" width="246.377" x="353" y="574.4844"/><rect fill="#F1F1F1" height="10" style="stroke:#181818;stroke-width:0.5;" width="15" x="579.377" y="579.4844"/><rect fill="#F1F1F1" height="2" style="stroke:#181818;stroke-width:0.5;" width="4" x="577.377" y="581.4844"/><rect fill="#F1F1F1" height="2" style="stroke:#181818;stroke-width:0.5;" width="4" x="577.377" y="585.4844"/><text fill="#000000" font-family="sans-serif" font-size="14" lengthAdjust="spacing" textLength="206.377" x="368" y="607.4795">std::chrono::steady_clock tag</text></g><!--entity systag--><g id="elem_systag"><rect fill="#F1F1F1" height="46.2969" rx="2.5" ry="2.5" style="stroke:#181818;stroke-width:0.5;" width="249.8428" x="47" y="574.4844"/><rect fill="#F1F1F1" height="10" style="stroke:#181818;stroke-width:0.5;" width="15" x="276.8428" y="579.4844"/><rect fill="#F1F1F1" height="2" style="stroke:#181818;stroke-width:0.5;" width="4" x="274.8428" y="581.4844"/><rect fill="#F1F1F1" height="2" style="stroke:#181818;stroke-width:0.5;" width="4" x="274.8428" y="585.4844"/><text fill="#000000" font-family="sans-serif" font-size="14" lengthAdjust="spacing" textLength="209.8428" x="62" y="607.4795">std::chrono::system_clock tag</text></g><!--entity tss--><g id="elem_tss"><rect fill="#F1F1F1" height="46.2969" rx="2.5" ry="2.5" style="stroke:#181818;stroke-width:0.5;" width="229.5947" x="1066" y="801.4844"/><rect fill="#F1F1F1" height="10" style="stroke:#181818;stroke-width:0.5;" width="15" x="1275.5947" y="806.4844"/><rect fill="#F1F1F1" height="2" style="stroke:#181818;stroke-width:0.5;" width="4" x="1273.5947" y="808.4844"/><rect fill="#F1F1F1" height="2" style="stroke:#181818;stroke-width:0.5;" width="4" x="1273.5947" y="812.4844"/><text fill="#000000" font-family="sans-serif" font-size="14" lengthAdjust="spacing" textLength="189.5947" x="1081" y="834.4795">TimeSlaveSyncData&lt;Tag&gt;</text></g><!--entity pdm--><g id="elem_pdm"><rect fill="#F1F1F1" height="46.2969" rx="2.5" ry="2.5" style="stroke:#181818;stroke-width:0.5;" width="267.917" x="763" y="801.4844"/><rect fill="#F1F1F1" height="10" style="stroke:#181818;stroke-width:0.5;" width="15" x="1010.917" y="806.4844"/><rect fill="#F1F1F1" height="2" style="stroke:#181818;stroke-width:0.5;" width="4" x="1008.917" y="808.4844"/><rect fill="#F1F1F1" height="2" style="stroke:#181818;stroke-width:0.5;" width="4" x="1008.917" y="812.4844"/><text fill="#000000" font-family="sans-serif" font-size="14" lengthAdjust="spacing" textLength="227.917" x="778" y="834.4795">PDelayMeasurementData&lt;Tag&gt;</text></g><!--entity viface--><g id="elem_viface"><rect fill="#F1F1F1" height="46.2969" rx="2.5" ry="2.5" style="stroke:#181818;stroke-width:0.5;" width="189.5498" x="1657" y="574.4844"/><rect fill="#F1F1F1" height="10" style="stroke:#181818;stroke-width:0.5;" width="15" x="1826.5498" y="579.4844"/><rect fill="#F1F1F1" height="2" style="stroke:#181818;stroke-width:0.5;" width="4" x="1824.5498" y="581.4844"/><rect fill="#F1F1F1" height="2" style="stroke:#181818;stroke-width:0.5;" width="4" x="1824.5498" y="585.4844"/><text fill="#000000" font-family="sans-serif" font-size="14" lengthAdjust="spacing" textLength="149.5498" x="1672" y="607.4795">VehicleClockBackend</text></g><!--entity hiface--><g id="elem_hiface"><rect fill="#F1F1F1" height="46.2969" rx="2.5" ry="2.5" style="stroke:#181818;stroke-width:0.5;" width="244.9482" x="1376.5" y="574.4844"/><rect fill="#F1F1F1" height="10" style="stroke:#181818;stroke-width:0.5;" width="15" x="1601.4482" y="579.4844"/><rect fill="#F1F1F1" height="2" style="stroke:#181818;stroke-width:0.5;" width="4" x="1599.4482" y="581.4844"/><rect fill="#F1F1F1" height="2" style="stroke:#181818;stroke-width:0.5;" width="4" x="1599.4482" y="585.4844"/><text fill="#000000" font-family="sans-serif" font-size="14" lengthAdjust="spacing" textLength="204.9482" x="1391.5" y="607.4795">HighResSteadyClockBackend</text></g><!--entity prod--><g id="elem_prod"><rect fill="#F1F1F1" height="46.2969" rx="2.5" ry="2.5" style="stroke:#181818;stroke-width:0.5;" width="179.1318" x="1482.5" y="680.4844"/><rect fill="#F1F1F1" height="10" style="stroke:#181818;stroke-width:0.5;" width="15" x="1641.6318" y="685.4844"/><rect fill="#F1F1F1" height="2" style="stroke:#181818;stroke-width:0.5;" width="4" x="1639.6318" y="687.4844"/><rect fill="#F1F1F1" height="2" style="stroke:#181818;stroke-width:0.5;" width="4" x="1639.6318" y="691.4844"/><text fill="#000000" font-family="sans-serif" font-size="14" lengthAdjust="spacing" textLength="139.1318" x="1497.5" y="713.4795">Production backend</text></g><!--entity stub--><g id="elem_stub"><rect fill="#F1F1F1" height="46.2969" rx="2.5" ry="2.5" style="stroke:#181818;stroke-width:0.5;" width="136.2295" x="1697" y="680.4844"/><rect fill="#F1F1F1" height="10" style="stroke:#181818;stroke-width:0.5;" width="15" x="1813.2295" y="685.4844"/><rect fill="#F1F1F1" height="2" style="stroke:#181818;stroke-width:0.5;" width="4" x="1811.2295" y="687.4844"/><rect fill="#F1F1F1" height="2" style="stroke:#181818;stroke-width:0.5;" width="4" x="1811.2295" y="691.4844"/><text fill="#000000" font-family="sans-serif" font-size="14" lengthAdjust="spacing" textLength="96.2295" x="1712" y="713.4795">Stub backend</text></g><!--link app to vclock--><g id="link_app_vclock"><path d="M1271.5,229.5244 C1271.5,250.9244 1271.5,276.6144 1271.5,298.1144 " fill="transparent" id="app-to-vclock" style="stroke:#181818;stroke-width:1;"/><polygon fill="#181818" points="1271.5,304.1144,1275.5,295.1144,1271.5,299.1144,1267.5,295.1144,1271.5,304.1144" style="stroke:#181818;stroke-width:1;"/><polygon fill="transparent" points="1114.5,253.8908,1118.5,257.8908,1114.5,261.8908,1110.5,257.8908" style="stroke:#B38D22;stroke-width:1;"/><text fill="#000000" font-family="sans-serif" font-size="13" lengthAdjust="spacing" textLength="149.792" x="1121.5" y="262.8913">include vehicle_clock.h</text></g><!--link app to hclock--><g id="link_app_hclock"><path d="M1233.81,206.4844 C1147.43,206.4844 997,206.4844 997,206.4844 C997,206.4844 997,263.3344 997,298.4444 " fill="transparent" id="app-to-hclock" style="stroke:#181818;stroke-width:1;"/><polygon fill="#181818" points="997,304.4444,1001,295.4444,997,299.4444,993,295.4444,997,304.4444" style="stroke:#181818;stroke-width:1;"/><polygon fill="transparent" points="850.43,193.5508,854.43,197.5508,850.43,201.5508,846.43,197.5508" style="stroke:#B38D22;stroke-width:1;"/><text fill="#000000" font-family="sans-serif" font-size="13" lengthAdjust="spacing" textLength="208.73" x="857.43" y="202.5513">include high_res_steady_clock.h</text></g><!--link test to guard--><g id="link_test_guard"><path d="M1490.6,206.4844 C1598.91,206.4844 1840,206.4844 1840,206.4844 C1840,206.4844 1840,263.3344 1840,298.4444 " fill="transparent" id="test-to-guard" style="stroke:#181818;stroke-width:1;"/><polygon fill="#181818" points="1840,304.4444,1844,295.4444,1840,299.4444,1836,295.4444,1840,304.4444" style="stroke:#181818;stroke-width:1;"/><text fill="#000000" font-family="sans-serif" font-size="13" lengthAdjust="spacing" textLength="241.1475" x="1715.28" y="202.5513">ScopedClockOverride&lt;VehicleTime&gt;</text></g><!--link test to factory--><g id="link_test_factory"><path d="M1439,229.5244 C1439,250.9244 1439,276.6144 1439,298.1144 " fill="transparent" id="test-to-factory" style="stroke:#181818;stroke-width:1;"/><polygon fill="#181818" points="1439,304.1144,1443,295.1144,1439,299.1144,1435,295.1144,1439,304.1144" style="stroke:#181818;stroke-width:1;"/><text fill="#000000" font-family="sans-serif" font-size="13" lengthAdjust="spacing" textLength="353.6533" x="1085" y="279.8913">ClockTestFactory&lt;HighResSteadyTime&gt;::Make(mock)</text></g><!--link vclock to clock--><g id="link_vclock_clock"><path d="M1219.5,350.9644 C1219.5,379.1044 1219.5,422.4844 1219.5,422.4844 C1219.5,422.4844 1050.72,422.4844 953.09,422.4844 " fill="transparent" id="vclock-to-clock" style="stroke:#181818;stroke-width:1;"/><polygon fill="#181818" points="947.09,422.4844,956.09,426.4844,952.09,422.4844,956.09,418.4844,947.09,422.4844" style="stroke:#181818;stroke-width:1;"/></g><!--link hclock to clock--><g id="link_hclock_clock"><path d="M916.75,350.4844 C916.75,368.1444 916.75,386.4244 916.75,404.1644 " fill="transparent" id="hclock-to-clock" style="stroke:#181818;stroke-width:1;"/><polygon fill="#181818" points="916.75,410.1644,920.75,401.1644,916.75,405.1644,912.75,401.1644,916.75,410.1644" style="stroke:#181818;stroke-width:1;"/></g><!--link sclock to clock--><g id="link_sclock_clock"><path d="M835.25,350.4844 C835.25,368.1444 835.25,386.4244 835.25,404.1644 " fill="transparent" id="sclock-to-clock" style="stroke:#181818;stroke-width:1;"/><polygon fill="#181818" points="835.25,410.1644,839.25,401.1644,835.25,405.1644,831.25,401.1644,835.25,410.1644" style="stroke:#181818;stroke-width:1;"/></g><!--link sysclock to clock--><g id="link_sysclock_clock"><path d="M626.25,350.9644 C626.25,379.1044 626.25,422.4844 626.25,422.4844 C626.25,422.4844 736.83,422.4844 812.87,422.4844 " fill="transparent" id="sysclock-to-clock" style="stroke:#181818;stroke-width:1;"/><polygon fill="#181818" points="818.87,422.4844,809.87,418.4844,813.87,422.4844,809.87,426.4844,818.87,422.4844" style="stroke:#181818;stroke-width:1;"/></g><!--link clock to vtag--><g id="link_clock_vtag"><path d="M938.25,456.6344 C938.25,487.8944 938.25,537.2544 938.25,568.4544 " fill="transparent" id="clock-to-vtag" style="stroke:#181818;stroke-width:1;"/><polygon fill="#181818" points="938.25,574.4544,942.25,565.4544,938.25,569.4544,934.25,565.4544,938.25,574.4544" style="stroke:#181818;stroke-width:1;"/></g><!--link clock to htag--><g id="link_clock_htag"><path d="M841.75,456.6344 C841.75,487.8944 841.75,537.2544 841.75,568.4544 " fill="transparent" id="clock-to-htag" style="stroke:#181818;stroke-width:1;"/><polygon fill="#181818" points="841.75,574.4544,845.75,565.4544,841.75,569.4544,837.75,565.4544,841.75,574.4544" style="stroke:#181818;stroke-width:1;"/></g><!--link clock to stag--><g id="link_clock_stag"><path d="M818.6,445.4844 C719.96,445.4844 542.75,445.4844 542.75,445.4844 C542.75,445.4844 542.75,525.8744 542.75,568.3944 " fill="transparent" id="clock-to-stag" style="stroke:#181818;stroke-width:1;"/><polygon fill="#181818" points="542.75,574.3944,546.75,565.3944,542.75,569.3944,538.75,565.3944,542.75,574.3944" style="stroke:#181818;stroke-width:1;"/></g><!--link clock to systag--><g id="link_clock_systag"><path d="M818.96,433.4844 C644.2,433.4844 172,433.4844 172,433.4844 C172,433.4844 172,523.1244 172,568.3344 " fill="transparent" id="clock-to-systag" style="stroke:#181818;stroke-width:1;"/><polygon fill="#181818" points="172,574.3344,176,565.3344,172,569.3344,168,565.3344,172,574.3344" style="stroke:#181818;stroke-width:1;"/></g><!--link vtag to vstatus--><g id="link_vtag_vstatus"><path d="M1006,620.4844 C1006,638.1444 1006,656.4244 1006,674.1644 " fill="transparent" id="vtag-to-vstatus" style="stroke:#181818;stroke-width:1;"/><polygon fill="#181818" points="1006,680.1644,1010,671.1644,1006,675.1644,1002,671.1644,1006,680.1644" style="stroke:#181818;stroke-width:1;"/></g><!--link vtag to vcb--><g id="link_vtag_vcb"><path d="M1082.6,597.4844 C1110.12,597.4844 1134.5,597.4844 1134.5,597.4844 C1134.5,597.4844 1134.5,643.3044 1134.5,674.4844 " fill="transparent" id="vtag-to-vcb" style="stroke:#181818;stroke-width:1;"/><polygon fill="#181818" points="1134.5,680.4844,1138.5,671.4844,1134.5,675.4844,1130.5,671.4844,1134.5,680.4844" style="stroke:#181818;stroke-width:1;"/></g><!--link vcb to tss--><g id="link_vcb_tss"><path d="M1239.33,726.5244 C1239.33,747.9244 1239.33,773.6144 1239.33,795.1144 " fill="transparent" id="vcb-to-tss" style="stroke:#181818;stroke-width:1;"/><polygon fill="#181818" points="1239.33,801.1144,1243.33,792.1144,1239.33,796.1144,1235.33,792.1144,1239.33,801.1144" style="stroke:#181818;stroke-width:1;"/></g><!--link vcb to pdm--><g id="link_vcb_pdm"><path d="M1182.67,726.5444 C1182.67,743.8244 1182.67,764.4844 1182.67,764.4844 C1182.67,764.4844 976,764.4844 976,764.4844 C976,764.4844 976,778.5344 976,795.4544 " fill="transparent" id="vcb-to-pdm" style="stroke:#181818;stroke-width:1;"/><polygon fill="#181818" points="976,801.4544,980,792.4544,976,796.4544,972,792.4544,976,801.4544" style="stroke:#181818;stroke-width:1;"/></g><!--link clock to viface--><g id="link_clock_viface"><path d="M947.09,433.4844 C1134.81,433.4844 1670.25,433.4844 1670.25,433.4844 C1670.25,433.4844 1670.25,523.1244 1670.25,568.3344 " fill="transparent" id="clock-to-viface" style="stroke:#181818;stroke-width:1;stroke-dasharray:7.0,7.0;"/><polygon fill="#181818" points="1670.25,574.3344,1674.25,565.3344,1670.25,569.3344,1666.25,565.3344,1670.25,574.3344" style="stroke:#181818;stroke-width:1;"/><text fill="#000000" font-family="sans-serif" font-size="13" lengthAdjust="spacing" textLength="137.23" x="1241.1" y="429.5513">uses (via shared_ptr)</text></g><!--link clock to hiface--><g id="link_clock_hiface"><path d="M947.18,445.4844 C1104.95,445.4844 1499,445.4844 1499,445.4844 C1499,445.4844 1499,525.8744 1499,568.3944 " fill="transparent" id="clock-to-hiface" style="stroke:#181818;stroke-width:1;stroke-dasharray:7.0,7.0;"/><polygon fill="#181818" points="1499,574.3944,1503,565.3944,1499,569.3944,1495,565.3944,1499,574.3944" style="stroke:#181818;stroke-width:1;"/><text fill="#000000" font-family="sans-serif" font-size="13" lengthAdjust="spacing" textLength="137.23" x="1149.55" y="458.5513">uses (via shared_ptr)</text></g><!--reverse link viface to prod--><g id="link_viface_prod"><path d="M1638.52,597.4844 C1638.52,597.4844 1652.75,649.3044 1652.75,680.4844 " fill="transparent" id="viface-backto-prod" style="stroke:#181818;stroke-width:1;"/><polygon fill="transparent" points="1656.52,597.4844,1638.52,591.4844,1638.52,603.4844,1656.52,597.4844" style="stroke:#181818;stroke-width:1;"/></g><!--reverse link viface to stub--><g id="link_viface_stub"><path d="M1765,638.4844 C1765,656.1444 1765,662.4244 1765,680.1644 " fill="transparent" id="viface-backto-stub" style="stroke:#181818;stroke-width:1;"/><polygon fill="transparent" points="1765,620.4844,1759,638.4844,1771,638.4844,1765,620.4844" style="stroke:#181818;stroke-width:1;"/></g><!--SRC=[XLNRYjim47ttLmpRbyr3jkzc2NIpR5jewT9iMqefGR5d8n55CfASnNGB_OX-OR-aeujZEPVM4B17PuxcScRYX9C8jj86ozA9BSAVNx_XbQcuS5YvrY2yOnqQMnHs8rJ33Dj2mweDM-F2TUHh2CRKMc86M15WRNIhwhcMsi2JPylEfL3ekWP16yTrKKXSewh1wGOaFhe2w7c6wnVln9gx6zdYB1ZksvKK5N1aDKK4bvKKg9m5eIhPrWYEeyK9nETvpFBQ8AgPDznH1FYapGQapypJw6hpii-gzpza-KBNkbblXWUgrRJMMoOKEBRklIsSUWvYcMl3P8ZbhN9e59DGesD2PZaft55iARD9Og4YnL8LHReFBkR10UQwnWk8_5zHIlq4FyAjtrur3LMDEQ7LTs0MMDF4WqzAE7X0wuBPqKlnCoDErGuXFh8gAYFMghye5BM_P-wFhX_OUXRu0ZAUV4OkAea104mAPWDYbq7U4Dr7j0j7lUqEWJm3daRO7D5PXziZH9SmUOe-UMYTaC89QjsG85pwScWbkydfelhZfVUqPRceT8DrkF03DSs86eSoh5jcwcEVWFRNtx7AQTCD3e_HC8xJY-qsYes0bc8ASapHx76xMEYb7sHgKZpDM-29l5nZ_Udb96BXc6jJZsnu7s3t3_TGCIdzY8EVuRwNgu3vEGw8K-MM1ktIXhQT26pK-55ul0_lWFCibNLrMLRSQANBCg52E_UKzXnbaCn_AIFgWB8xHzguPamMIYlP3XUTgcwPOqFJdSrBV8kqcTuZixH-jpJSOsnJRzDrkKJscyIBE6qJal5eZTImwY0jcBskmpBgPPrFwWrHqwg9xHL-0vmRrHp9C-IzqNLR-SKJ_X5wI4FcVfZRrUZ8ai6dHJiAfjDPMX5Gmej-n_SI3mTNV8_aHyX3xVKUVWo3InXDyZWrlzaqp0QFD9laSpI_HpgUbULxji7BBG4dHP4oyInn3_53WpqoT4UcOZ24wHq- -VZJ7dn6bHRUANgdkHuCDC3q2-zUZVsxLriYkhgQ9I5G0LfB2_Do9nXOpWpMoyQPIGRa_mOcdkldwJJg8JS45Vm5]--></g></svg>